<svg xmlns="http://www.w3.org/2000/svg" xmlns:xlink="http://www.w3.org/1999/xlink" viewBox="0 0 841.61 1190.27"><defs><style>.cls-1,.cls-3,.cls-7{fill:none;}.cls-2{fill:#fff;}.cls-3,.cls-7{stroke:#00797a;}.cls-3{stroke-width:6px;}.cls-4{clip-path:url(#clip-path);}.cls-5{fill:#00797a;}.cls-6{fill:#e83820;}.cls-7{stroke-width:3px;}</style><clipPath id="clip-path"><rect class="cls-1" width="841.61" height="1190.27"/></clipPath></defs><g id="레이어_2" data-name="레이어 2"><g id="레이어_1-2" data-name="레이어 1"><rect class="cls-2" width="841.61" height="1190.27"/><line class="cls-3" x1="57.26" y1="555.48" x2="140.88" y2="555.48"/><line class="cls-3" x1="170.36" y1="555.48" x2="253.98" y2="555.48"/><line class="cls-3" x1="57.26" y1="666" x2="140.88" y2="666"/><line class="cls-3" x1="170.36" y1="881.43" x2="253.98" y2="881.43"/><line class="cls-3" x1="57.26" y1="856.32" x2="108.99" y2="856.32"/><line class="cls-3" x1="99.07" y1="898.44" x2="155.76" y2="898.44"/><line class="cls-3" x1="57.26" y1="773.72" x2="140.88" y2="773.72"/><line class="cls-3" x1="170.36" y1="773.72" x2="253.98" y2="773.72"/><line class="cls-3" x1="170.36" y1="666" x2="253.98" y2="666"/><line class="cls-3" x1="56.91" y1="923.6" x2="142.58" y2="837.92"/><g class="cls-4"><path class="cls-5" d="M654.39,359c0-6.32-2.56-11.2-8.48-13.68-3.36-1.36-6.32-2.08-6.32-4.48,0-1.76,1.2-2.64,3.36-2.64,2.64,0,4.24,1.36,5,4.4h5.84v-6.8c0-7-.8-9.76-3.36-12.56a12.94,12.94,0,0,0-9.6-4c-7.6,0-12.88,6.08-12.88,14.48,0,8.08,4.24,11.44,10.72,14.24,3.2,1.36,4.48,2.4,4.48,4.32s-1.6,2.88-4,2.88c-3.28,0-5.28-1.92-6.32-5.84h-5.6V356c0,5,.08,9.92,3.68,13.92a13.07,13.07,0,0,0,9.76,4.32,13.21,13.21,0,0,0,9.68-4,15.85,15.85,0,0,0,4.08-11.2"/></g><polygon class="cls-5" points="533.94 337.63 533.94 320.03 514.1 320.03 514.1 373.39 519.94 373.39 519.94 349.07 533.14 349.07 533.14 344.03 519.94 344.03 519.94 337.63 533.94 337.63"/><polygon class="cls-5" points="419.25 337.63 419.25 320.03 398.53 320.03 398.53 337.63 405.73 337.63 405.73 373.39 411.65 373.39 411.65 337.63 419.25 337.63"/><g class="cls-4"><path class="cls-5" d="M334.73,356.91V320H328.8v26c0,3.92-.88,5.2-2.07,6.64a7.22,7.22,0,0,1-5.61,2.56,7.63,7.63,0,0,1-5.27-2.24c-1.77-1.84-2.41-3.52-2.41-7.92V320h-5.92v26.24c0,3-.64,4.88-2.32,6.64a7.27,7.27,0,0,1-5.35,2.32,7.42,7.42,0,0,1-5.05-2c-2.48-2.16-2.64-4.64-2.64-7.2V320h-5.84v36.88c0,6.24-.16,9.2,3.84,13.36a13.47,13.47,0,0,0,9.44,3.92,13.75,13.75,0,0,0,10.88-5.36c3.44,3.92,6.81,5.36,11.2,5.36a12.47,12.47,0,0,0,8.8-3.6c4-4,4.25-6.48,4.25-13.68"/></g><polygon class="cls-5" points="191.64 337.63 191.64 320.03 170.92 320.03 170.92 337.63 178.12 337.63 178.12 373.39 184.04 373.39 184.04 337.63 191.64 337.63"/><g class="cls-4"><path class="cls-5" d="M107.11,373.39V336.51c0-7.2-.24-9.68-4.24-13.68a12.47,12.47,0,0,0-8.8-3.6c-4.4,0-7.76,1.44-11.2,5.36A13.75,13.75,0,0,0,72,319.23a13.47,13.47,0,0,0-9.44,3.92c-4,4.16-3.84,7.12-3.84,13.36v36.88h5.84v-26c0-2.56.16-5,2.64-7.2a7.41,7.41,0,0,1,5-2,7.3,7.3,0,0,1,5.36,2.32c1.68,1.76,2.32,3.68,2.32,6.64v26.24h5.92v-25c0-4.4.64-6.08,2.4-7.92a7.67,7.67,0,0,1,5.28-2.24,7.2,7.2,0,0,1,5.6,2.56c1.2,1.44,2.08,2.72,2.08,6.64v26Z"/></g><polygon class="cls-5" points="652.15 546.44 652.15 529.08 626.15 529.08 626.15 546.68 645.99 546.68 628.71 582.44 635.27 582.44 652.15 546.44"/><g class="cls-4"><path class="cls-5" d="M532.18,561.08c0,2.8-2.4,3.6-4.8,3.6-4.56,0-7.6-3-8.56-7.28h5.36c2.56,0,8-.08,8,3.68m8.64,6.4c0-6.24-1.2-10.16-3.28-12-2.32-2.08-5.76-2.88-10.24-2.88h-7.92c2.08-5.36,6-5.92,10.8-5.92h9.12v-17.6H527.22c-9.12,0-13.28,3.12-13.28,13.28v25c0,6.4.88,8.8,3.92,12a13.76,13.76,0,0,0,9.6,3.92,13.41,13.41,0,0,0,9.52-3.68c2.88-2.72,3.84-6.64,3.84-12.08"/><path class="cls-5" d="M425.57,567.8c0-5-.32-9.2-3-11.68-3-2.72-5.84-3-10.4-3h-7.28v-6.4h18.32v-17.6h-23V558.2h11.2c2.4,0,5.12.08,5.12,3.36,0,2.88-2.32,3.28-4.8,3.28H400.13v17.6h12.8c6,0,7.6-1.28,9.76-3.2s2.88-6.4,2.88-11.44"/></g><path class="cls-5" d="M301.52,555.08H289.76l3.36-8.4h8.4Zm10.4,27.36v-17.6h-4.48V560.2h4.48v-5.12h-4.48v-26h-12.8l-11,26.32v4.8h17.92v4.64H295.2v17.6Z"/><g class="cls-4"><path class="cls-5" d="M198,569.64c0-6.64,0-10.88-6.32-14.4,4.8-2.72,5-6.24,5-11.6,0-3.92-.08-8.32-2.88-11.44-2.16-2.4-5.12-3.12-8.48-3.12h-12.8v17.6H182.6c2.32,0,5,.4,5,3.36,0,3.2-3,3.2-5.44,3.2h-7.28v5h7.6c3.52,0,6.32.24,6.32,3.44,0,2.4-1.6,3.12-6.16,3.12H172.52v17.6h14.32c4.64,0,7.44-1.76,9.12-4.32a15.86,15.86,0,0,0,2-8.48"/><path class="cls-5" d="M84.39,544.12v-2.24c0-4.48-.56-7.68-3.6-10.32s-5.2-2.48-10.32-2.48H59.19v17.6h11c1.76,0,5,.16,5,3.12a2.62,2.62,0,0,1-1,2.48c-2.56,1.52-8.72-.32-12.48,3.36-3.36,3.36-3.44,7.92-3.44,12.4v14.4H84.23v-17.6h-20c0-2.72.16-5.28,3.12-6.16,4.72-1.36,10.24.64,13.92-3.12,1.92-2,3.12-3.84,3.12-11.44"/></g><polygon class="cls-6" points="754.35 474.73 754.35 421.37 740.43 421.37 740.43 439.29 748.27 439.29 748.27 474.73 754.35 474.73"/><path class="cls-5" d="M660.23,662.8H648.47l3.36-8.4h8.4Zm10.4,27.36v-17.6h-4.48v-4.64h4.48V662.8h-4.48v-26h-12.8l-11,26.32v4.8h17.92v4.64h-6.32v17.6Zm-30.08,0V636.8H626.63v17.92h7.84v35.44Z"/><g class="cls-4"><path class="cls-5" d="M557.3,677.36c0-6.64,0-10.88-6.32-14.4,4.8-2.72,5-6.24,5-11.6,0-3.92-.08-8.32-2.88-11.44-2.16-2.4-5.12-3.12-8.48-3.12h-12.8v17.6h10.08c2.32,0,5,.4,5,3.36,0,3.2-3,3.2-5.44,3.2h-7.28v5h7.6c3.52,0,6.32.24,6.32,3.44,0,2.4-1.6,3.12-6.16,3.12H531.86v17.6h14.32c4.64,0,7.44-1.76,9.12-4.32a15.86,15.86,0,0,0,2-8.48m-30.56,12.8V636.8H512.82v17.92h7.84v35.44Z"/><path class="cls-5" d="M443.73,651.84V649.6c0-4.48-.56-7.68-3.6-10.32s-5.2-2.48-10.32-2.48H418.53v17.6h11c1.76,0,5,.16,5,3.12a2.62,2.62,0,0,1-1,2.48c-2.56,1.52-8.72-.32-12.48,3.36-3.36,3.36-3.44,7.92-3.44,12.4v14.4h25.92v-17.6h-20c0-2.72.16-5.28,3.12-6.16,4.72-1.36,10.24.64,13.92-3.12,1.92-2,3.12-3.84,3.12-11.44m-30.8,38.32V636.8H399v17.92h7.84v35.44Z"/></g><path class="cls-5" d="M316.49,690.16V636.8H302.57v17.92h7.84v35.44Zm-17.37,0V636.8H285.2v17.92H293v35.44Z"/><g class="cls-4"><path class="cls-5" d="M212.92,663.68a8.59,8.59,0,0,1-8.88,8.56c-4.8,0-8.8-3-8.8-8.56a9.11,9.11,0,0,1,8.8-8.88,9,9,0,0,1,8.88,8.88m4.8,9.6V654.4c0-9-.8-11.28-4-14.48a13.81,13.81,0,0,0-19.28,0c-3.52,3.6-4,6.24-4,14.48v18.88c0,6.72.64,10.4,3.68,13.44a14.32,14.32,0,0,0,10,4.24,13.52,13.52,0,0,0,9.6-4.08c3.2-3,4-6.48,4-13.6m-32.4,16.88V636.8H171.4v17.92h7.84v35.44Z"/><path class="cls-5" d="M80.31,661.84H75c-2.56,0-8,.08-8-3.68,0-2.8,2.4-3.6,4.8-3.6,4.56,0,7.6,3,8.56,7.28m4.88,15v-25c0-6.4-.88-8.8-3.92-12a13.76,13.76,0,0,0-9.6-3.92,13.41,13.41,0,0,0-9.52,3.68c-2.88,2.72-3.84,6.64-3.84,12.08,0,6.24,1.2,10.16,3.28,12,2.32,2.08,5.76,2.88,10.24,2.88h7.92c-2.08,5.36-6,5.92-10.8,5.92H59.83v17.6H71.91c9.12,0,13.28-3.12,13.28-13.28"/><path class="cls-6" d="M760.51,561.32c0,2.88-2.88,3.52-5,3.52s-4.88-.8-4.88-3.28c0-2.72,2.64-3.44,4.88-3.44,2.08,0,5,.56,5,3.2M759.23,550c0,1.92-1.84,3-3.6,3-1.6,0-3.68-1-3.68-3s1.68-3.2,3.76-3.2a3.29,3.29,0,0,1,3.52,3.2m10.4,18.08c0-6-1.12-9.6-6.4-13,5.28-2.64,5.12-7.36,5.12-12.88s-.88-8.08-3.28-10.56c-1.92-2-5.68-3.44-9.44-3.44s-7.36,1.2-9.6,3.44c-2.4,2.4-3.28,5.36-3.28,10.64,0,5.52,0,10.16,5.12,12.8-5.36,3.36-6.32,6.8-6.32,12.88,0,5.2.64,8.4,3.76,11.36a14.93,14.93,0,0,0,10.24,3.84,14.6,14.6,0,0,0,10.48-4c3.2-3,3.6-7.52,3.6-11.12"/><path class="cls-5" d="M669.91,797.88V744.52H656v17.92h7.84v35.44Zm-16.48-38.32v-2.24c0-4.48-.56-7.68-3.6-10.32s-5.2-2.48-10.32-2.48H628.23v17.6h11c1.76,0,5,.16,5,3.12a2.62,2.62,0,0,1-1,2.48c-2.56,1.52-8.72-.32-12.48,3.36-3.36,3.36-3.44,7.92-3.44,12.4v14.4h25.92v-17.6h-20c0-2.72.16-5.28,3.12-6.16,4.72-1.36,10.24.64,13.92-3.12,1.92-2,3.12-3.84,3.12-11.44"/><path class="cls-5" d="M565.3,771.4a8.59,8.59,0,0,1-8.88,8.56c-4.8,0-8.8-3-8.8-8.56a9.11,9.11,0,0,1,8.8-8.88,9,9,0,0,1,8.88,8.88m4.8,9.6V762.12c0-9-.8-11.28-4-14.48a13.81,13.81,0,0,0-19.28,0c-3.52,3.6-4,6.24-4,14.48V781c0,6.72.64,10.4,3.68,13.44a14.32,14.32,0,0,0,10,4.24,13.52,13.52,0,0,0,9.6-4.08c3.2-3,4-6.48,4-13.6m-30.48-21.44v-2.24c0-4.48-.56-7.68-3.6-10.32s-5.2-2.48-10.32-2.48H514.42v17.6h11c1.76,0,5,.16,5,3.12a2.62,2.62,0,0,1-1,2.48c-2.56,1.52-8.72-.32-12.48,3.36-3.36,3.36-3.44,7.92-3.44,12.4v14.4h25.92v-17.6h-20c0-2.72.16-5.28,3.12-6.16,4.72-1.36,10.24.64,13.92-3.12,1.92-2,3.12-3.84,3.12-11.44"/><path class="cls-5" d="M438.37,769.56H433c-2.56,0-8,.08-8-3.68,0-2.8,2.4-3.6,4.8-3.6,4.56,0,7.6,3,8.56,7.28m4.88,15v-25c0-6.4-.88-8.8-3.92-12a13.76,13.76,0,0,0-9.6-3.92,13.41,13.41,0,0,0-9.52,3.68c-2.88,2.72-3.84,6.64-3.84,12.08,0,6.24,1.2,10.16,3.28,12,2.32,2.08,5.76,2.88,10.24,2.88h7.92c-2.08,5.36-6,5.92-10.8,5.92h-9.12v17.6H430c9.12,0,13.28-3.12,13.28-13.28m-30.32,13.28V744.52H399v17.92h7.84v35.44Z"/><path class="cls-5" d="M323.2,776.76c0,2.88-2.88,3.52-5,3.52s-4.88-.8-4.88-3.28c0-2.72,2.64-3.44,4.88-3.44,2.08,0,5,.56,5,3.2m-1.28-11.28c0,1.92-1.84,3-3.6,3-1.6,0-3.68-1-3.68-3s1.68-3.2,3.76-3.2a3.29,3.29,0,0,1,3.52,3.2m10.4,18.08c0-6-1.12-9.6-6.4-13,5.28-2.64,5.12-7.36,5.12-12.88s-.88-8.08-3.28-10.56c-1.92-2-5.68-3.44-9.44-3.44s-7.36,1.2-9.6,3.44c-2.4,2.4-3.28,5.36-3.28,10.64,0,5.52,0,10.16,5.12,12.8-5.36,3.36-6.32,6.8-6.32,12.88,0,5.2.64,8.4,3.76,11.36a14.93,14.93,0,0,0,10.24,3.84,14.6,14.6,0,0,0,10.48-4c3.2-3,3.6-7.52,3.6-11.12m-33.2,14.32V744.52H285.2v17.92H293v35.44Z"/></g><path class="cls-5" d="M214.2,761.88V744.52h-26v17.6H208l-17.28,35.76h6.56Zm-28.88,36V744.52H171.4v17.92h7.84v35.44Z"/><g class="cls-4"><path class="cls-5" d="M94.87,776.52c0,2.8-2.4,3.6-4.8,3.6-4.56,0-7.6-3-8.56-7.28h5.36c2.56,0,8-.08,8,3.68m8.64,6.4c0-6.24-1.2-10.16-3.28-12C97.91,768.84,94.47,768,90,768H82.07c2.08-5.36,6-5.92,10.8-5.92H102v-17.6H89.91c-9.12,0-13.28,3.12-13.28,13.28v25c0,6.4.88,8.8,3.92,12a13.76,13.76,0,0,0,9.6,3.92A13.41,13.41,0,0,0,99.67,795c2.88-2.72,3.84-6.64,3.84-12.08m-32,15V744.52H57.59v17.92h7.84v35.44Z"/><path class="cls-6" d="M784.91,675.52c0-5-.32-9.2-3-11.68-3-2.72-5.84-3-10.4-3h-7.28v-6.4h18.32V636.8h-23v29.12h11.2c2.4,0,5.12.08,5.12,3.36,0,2.88-2.32,3.28-4.8,3.28H759.47v17.6h12.8c6,0,7.6-1.28,9.76-3.2s2.88-6.4,2.88-11.44m-30.56,14.64V636.8H740.43v17.92h7.84v35.44Z"/><path class="cls-5" d="M341.76,891c0-5-.32-9.2-3-11.68-3-2.72-5.84-3-10.4-3H321v-6.4h18.32v-17.6h-23v29.12h11.2c2.4,0,5.12.08,5.12,3.36,0,2.88-2.32,3.28-4.79,3.28H316.32v17.6h12.8c6,0,7.6-1.28,9.76-3.2s2.88-6.4,2.88-11.44M312,867.27V865c0-4.48-.57-7.68-3.61-10.32s-5.2-2.48-10.32-2.48H286.8v17.6h11.05c1.75,0,5,.16,5,3.12a2.62,2.62,0,0,1-1,2.48c-2.56,1.52-8.73-.32-12.49,3.36-3.35,3.36-3.44,7.92-3.44,12.4v14.4h25.93V888h-20c0-2.72.16-5.28,3.11-6.16,4.72-1.36,10.24.64,13.92-3.12,1.92-2,3.13-3.84,3.13-11.44"/><path class="cls-5" d="M567.7,869.59V852.23h-26v17.6h19.84l-17.28,35.76h6.56Zm-28.08-2.32V865c0-4.48-.56-7.68-3.6-10.32s-5.2-2.48-10.32-2.48H514.42v17.6h11c1.76,0,5,.16,5,3.12a2.62,2.62,0,0,1-1,2.48c-2.56,1.52-8.72-.32-12.48,3.36-3.36,3.36-3.44,7.92-3.44,12.4v14.4h25.92V888h-20c0-2.72.16-5.28,3.12-6.16,4.72-1.36,10.24.64,13.92-3.12,1.92-2,3.12-3.84,3.12-11.44"/><path class="cls-5" d="M447.25,884.23c0,2.8-2.4,3.6-4.8,3.6-4.56,0-7.6-3-8.56-7.28h5.36c2.56,0,8-.08,8,3.68m8.64,6.4c0-6.24-1.2-10.16-3.28-12-2.32-2.08-5.76-2.88-10.24-2.88h-7.92c2.08-5.36,6-5.92,10.8-5.92h9.12v-17.6H442.29c-9.12,0-13.28,3.12-13.28,13.28v25c0,6.4.88,8.8,3.92,12a13.76,13.76,0,0,0,9.6,3.92,13.41,13.41,0,0,0,9.52-3.68c2.88-2.72,3.84-6.64,3.84-12.08m-30.08-23.36V865c0-4.48-.56-7.68-3.6-10.32s-5.2-2.48-10.32-2.48H400.61v17.6h11c1.76,0,5,.16,5,3.12a2.62,2.62,0,0,1-1,2.48c-2.56,1.52-8.72-.32-12.48,3.36-3.36,3.36-3.44,7.92-3.44,12.4v14.4h25.92V888h-20c0-2.72.16-5.28,3.12-6.16,4.72-1.36,10.24.64,13.92-3.12,1.92-2,3.12-3.84,3.12-11.44"/><path class="cls-5" d="M676.07,884.47c0,2.88-2.88,3.52-5,3.52s-4.88-.8-4.88-3.28c0-2.72,2.64-3.44,4.88-3.44,2.08,0,5,.56,5,3.2m-1.28-11.28c0,1.92-1.84,3-3.6,3-1.6,0-3.68-1-3.68-3s1.68-3.2,3.76-3.2a3.29,3.29,0,0,1,3.52,3.2m10.4,18.08c0-6-1.12-9.6-6.4-13,5.28-2.64,5.12-7.36,5.12-12.88s-.88-8.08-3.28-10.56c-1.92-2-5.68-3.44-9.44-3.44s-7.36,1.2-9.6,3.44c-2.4,2.4-3.28,5.36-3.28,10.64,0,5.52,0,10.16,5.12,12.8-5.36,3.36-6.32,6.8-6.32,12.88,0,5.2.64,8.4,3.76,11.36a14.93,14.93,0,0,0,10.24,3.84,14.6,14.6,0,0,0,10.48-4c3.2-3,3.6-7.52,3.6-11.12m-31.76-24V865c0-4.48-.56-7.68-3.6-10.32s-5.2-2.48-10.32-2.48H628.23v17.6h11c1.76,0,5,.16,5,3.12a2.62,2.62,0,0,1-1,2.48c-2.56,1.52-8.72-.32-12.48,3.36-3.36,3.36-3.44,7.92-3.44,12.4v14.4h25.92V888h-20c0-2.72.16-5.28,3.12-6.16,4.72-1.36,10.24.64,13.92-3.12,1.92-2,3.12-3.84,3.12-11.44"/><path class="cls-5" d="M216.44,878.23H204.68l3.36-8.4h8.4Zm10.4,27.36V888h-4.48v-4.64h4.48v-5.12h-4.48v-26h-12.8l-11,26.32v4.8h17.92V888h-6.32v17.6ZM198.2,867.27V865c0-4.48-.56-7.68-3.6-10.32s-5.2-2.48-10.32-2.48H173v17.6h11c1.76,0,5,.16,5,3.12a2.62,2.62,0,0,1-1,2.48c-2.56,1.52-8.72-.32-12.48,3.36-3.36,3.36-3.44,7.92-3.44,12.4v14.4H198V888H178c0-2.72.16-5.28,3.12-6.16,4.72-1.36,10.24.64,13.92-3.12,1.92-2,3.12-3.84,3.12-11.44"/><path class="cls-5" d="M102.63,868.41c0-5.31,0-8.7-5-11.52,3.84-2.17,4-5,4-9.28,0-3.13-.07-6.65-2.31-9.15-1.72-1.92-4.09-2.5-6.78-2.5H82.28V850h8.06c1.86,0,4,.32,4,2.69,0,2.56-2.37,2.56-4.36,2.56H84.2v4h6.08c2.82,0,5.06.2,5.06,2.76,0,1.92-1.28,2.49-4.93,2.49H82.28v14.08H93.74c3.71,0,6-1.41,7.29-3.45a12.67,12.67,0,0,0,1.6-6.79M78.82,848v-1.8c0-3.58-.44-6.14-2.88-8.25s-4.16-2-8.25-2h-9V850H67.5c1.4,0,4,.13,4,2.5a2.1,2.1,0,0,1-.83,2c-2,1.22-7-.25-10,2.69C58,859.9,58,863.55,58,867.13v11.52H78.7V864.57h-16c0-2.17.12-4.22,2.49-4.93,3.78-1.08,8.19.52,11.14-2.49,1.53-1.6,2.49-3.07,2.49-9.15"/><path class="cls-5" d="M145.27,898a6.87,6.87,0,0,1-7.1,6.85c-3.84,0-7-2.43-7-6.85a7.28,7.28,0,0,1,7-7.1,7.17,7.17,0,0,1,7.1,7.1m3.84,7.68v-15.1c0-7.17-.64-9-3.2-11.59a11.06,11.06,0,0,0-15.42,0c-2.82,2.88-3.2,5-3.2,11.59v15.1c0,5.38.51,8.32,2.94,10.75a11.48,11.48,0,0,0,8,3.4,10.83,10.83,0,0,0,7.68-3.27c2.56-2.43,3.2-5.18,3.2-10.88M124.41,909c0-5.32,0-8.71-5.06-11.52,3.84-2.18,4-5,4-9.28,0-3.14-.06-6.66-2.3-9.16-1.73-1.92-4.1-2.49-6.79-2.49H104.05v14.08h8.07c1.85,0,4,.32,4,2.69,0,2.56-2.37,2.56-4.35,2.56H106v4h6.08c2.82,0,5.06.19,5.06,2.75,0,1.92-1.28,2.5-4.93,2.5h-8.13v14.08h11.46c3.71,0,5.95-1.41,7.3-3.46a12.73,12.73,0,0,0,1.6-6.78"/><path class="cls-6" d="M796.67,759.56v-2.24c0-4.48-.56-7.68-3.6-10.32s-5.2-2.48-10.32-2.48H771.47v17.6h11c1.76,0,5,.16,5,3.12a2.62,2.62,0,0,1-1,2.48c-2.56,1.52-8.72-.32-12.48,3.36-3.36,3.36-3.44,7.92-3.44,12.4v14.4h25.92v-17.6h-20c0-2.72.16-5.28,3.12-6.16,4.72-1.36,10.24.64,13.92-3.12,1.92-2,3.12-3.84,3.12-11.44m-29.44,0v-2.24c0-4.48-.56-7.68-3.6-10.32s-5.2-2.48-10.32-2.48H742v17.6h11c1.76,0,5,.16,5,3.12a2.62,2.62,0,0,1-1,2.48c-2.56,1.52-8.72-.32-12.48,3.36-3.36,3.36-3.44,7.92-3.44,12.4v14.4h25.92v-17.6h-20c0-2.72.16-5.28,3.12-6.16,4.72-1.36,10.24.64,13.92-3.12,1.92-2,3.12-3.84,3.12-11.44"/><path class="cls-6" d="M792.51,877.27h-5.36c-2.56,0-8,.08-8-3.68,0-2.8,2.4-3.6,4.8-3.6,4.56,0,7.6,3,8.56,7.28m4.88,15v-25c0-6.4-.88-8.8-3.92-12a13.76,13.76,0,0,0-9.6-3.92,13.41,13.41,0,0,0-9.52,3.68c-2.88,2.72-3.84,6.64-3.84,12.08,0,6.24,1.2,10.16,3.28,12,2.32,2.08,5.76,2.88,10.24,2.88H792c-2.08,5.36-6,5.92-10.8,5.92H772v17.6h12.08c9.12,0,13.28-3.12,13.28-13.28m-30.16-25V865c0-4.48-.56-7.68-3.6-10.32s-5.2-2.48-10.32-2.48H742v17.6h11c1.76,0,5,.16,5,3.12a2.62,2.62,0,0,1-1,2.48c-2.56,1.52-8.72-.32-12.48,3.36-3.36,3.36-3.44,7.92-3.44,12.4v14.4h25.92V888h-20c0-2.72.16-5.28,3.12-6.16,4.72-1.36,10.24.64,13.92-3.12,1.92-2,3.12-3.84,3.12-11.44"/><path class="cls-6" d="M768.19,359c0-6.32-2.56-11.2-8.48-13.68-3.36-1.36-6.32-2.08-6.32-4.48,0-1.76,1.2-2.64,3.36-2.64,2.64,0,4.24,1.36,5,4.4h5.84v-6.8c0-7-.8-9.76-3.36-12.56a12.94,12.94,0,0,0-9.6-4c-7.6,0-12.88,6.08-12.88,14.48,0,8.08,4.24,11.44,10.72,14.24,3.2,1.36,4.48,2.4,4.48,4.32s-1.6,2.88-4,2.88c-3.28,0-5.28-1.92-6.32-5.84H741V356c0,5,.08,9.92,3.68,13.92a13.07,13.07,0,0,0,9.76,4.32,13.21,13.21,0,0,0,9.68-4,15.85,15.85,0,0,0,4.08-11.2"/></g><path class="cls-6" d="M448.91,212.59V58.91H408.82v51.61H431.4V212.59Zm-50,0V58.91H358.82v51.61H381.4V212.59Z"/><g class="cls-4"><path class="cls-6" d="M474.51,247.23v-7c0-2.37-.37-3.29-1.37-4.29a3.89,3.89,0,0,0-2.81-1c-1.85,0-3.07.89-3.89,2.89h-.18v-2.41h-2.33v19.24h2.33v-8.91c0-2.81,1-4.18,3-4.18a2.84,2.84,0,0,1,2.07.88c.56.63.78,1.34.78,3.26v1.55ZM459.93,244h-6.62a3.43,3.43,0,0,1,3.33-2.52,3.18,3.18,0,0,1,3.29,2.52m1.92,4.88v-1.7H460a4.64,4.64,0,0,1-3.25,1.29,3.29,3.29,0,0,1-3.44-2.66h8.54v-4.66c0-4.15-2.07-6.26-5.36-6.26s-5,2.67-5,6.26v7.51c0,1.81.29,3.88,1.7,5.1a5.23,5.23,0,0,0,7.07-.07,6.28,6.28,0,0,0,1.62-4.81m-14-3.7a3.59,3.59,0,0,1-3.59,3.44,3.54,3.54,0,0,1,.15-7.07,3.55,3.55,0,0,1,3.44,3.63m1.74,4.51V240c0-3.19-1.48-5-4.18-5a3.93,3.93,0,0,0-3.93,3h-.18V230H439v24.67h2.33v-2.4h.18a3.75,3.75,0,0,0,3.93,2.89c2.73,0,4.18-1.82,4.18-5.41m-12.69,4.92V239.69c0-2-.37-2.82-1.22-3.67a4.12,4.12,0,0,0-3-1.11,4,4,0,0,0-3.93,3.19h-.18a4.08,4.08,0,0,0-7.88-.3h-.22v-2.41h-2.34v19.24h2.34v-8.69c0-1.74.29-2.78.92-3.48a2.9,2.9,0,0,1,4-.15,4.76,4.76,0,0,1,.89,3.37v8.95h2.33v-8.76c0-2,.26-2.63,1-3.48a2.48,2.48,0,0,1,2-.85,2.67,2.67,0,0,1,2,.88c.74.74.82,2.11.82,3.52v8.69ZM414.2,244h-6.62a3.43,3.43,0,0,1,3.33-2.52A3.19,3.19,0,0,1,414.2,244m1.92,4.88v-1.7h-1.85a4.64,4.64,0,0,1-3.25,1.29,3.29,3.29,0,0,1-3.44-2.66h8.54v-4.66c0-4.15-2.07-6.26-5.36-6.26s-5,2.67-5,6.26v7.51c0,1.81.29,3.88,1.7,5.1a5.22,5.22,0,0,0,7.06-.07,6.25,6.25,0,0,0,1.63-4.81m-11.69-13.51h-2.52l-.44,9.55c-.07,1.63-.18,2.22-.59,2.74a2.37,2.37,0,0,1-1.85.85,2.06,2.06,0,0,1-2-1.15,6.32,6.32,0,0,1-.37-2.44l-.48-9.55h-2.48l.89,19.24h9Zm-13.87,9.66a3.46,3.46,0,0,1-6.92,0,3.46,3.46,0,1,1,6.92,0m1.77,4v-8.21c0-3.55-2-6-5.21-6s-5.22,2.22-5.22,6.15v8c0,3.33,1.74,6,5.18,6a5.35,5.35,0,0,0,3.74-1.6,5.9,5.9,0,0,0,1.51-4.44M380,254.63V240.09c0-5.77-.11-7.06-1.77-8.65a6,6,0,0,0-4.59-1.85,6.16,6.16,0,0,0-4.26,1.81c-1.92,1.85-2,3.66-2,6.55v16.68h2.7V243.46c0-2.4.19-3.07,1.22-4.18a3.35,3.35,0,0,1,2.37-1,3.28,3.28,0,0,1,2.44,1c.78.81,1.11,1.44,1.11,4.25v11.1Z"/><path class="cls-6" d="M669.79,1132.17a1.83,1.83,0,1,0-1.75-1.82,1.75,1.75,0,0,0,1.75,1.82m-3.7-9.76h-2.55V1116H661v17.53h2.51v-9h2.55ZM653,1119.59h5.67v-2h-8.17v11.72H652a43.08,43.08,0,0,0,8.07-.57l-.24-2.07a42.75,42.75,0,0,1-6.83.55Zm-8.74,13.84h2.51v-17.5h-2.51Zm-8.7-15.83h-2.49v11.53h1.56a41.29,41.29,0,0,0,8.55-.82l-.27-2.09a41.33,41.33,0,0,1-7.35.76Zm-5,2.54h-2.31V1116h-2.51v10.24h2.51v-4h2.31Zm-4.8,8h-6.41v-1.33H616.9v6.4h11.38v-6.4h-2.49Zm0,3.12h-6.41v-1.22h6.41Zm-1.85-8.29c0-1.86-1.76-3.09-4.29-3.09s-4.29,1.23-4.29,3.09,1.76,3.1,4.29,3.1,4.29-1.25,4.29-3.1m-6.19,0c0-.83.78-1.27,1.9-1.27s1.9.44,1.9,1.27-.78,1.28-1.9,1.28-1.9-.44-1.9-1.28m7.07-5.53H620.9v-1.67h-2.52v1.67h-3.9v2H624.8Zm-28,8.29h15.83v-2H596.85Zm7.85,1.14c-3.78,0-6.06,1.2-6.06,3.25s2.28,3.25,6.06,3.25,6.08-1.2,6.08-3.25-2.3-3.25-6.08-3.25m0,4.58c-2.34,0-3.54-.42-3.54-1.33s1.2-1.33,3.54-1.33,3.53.42,3.53,1.33-1.2,1.33-3.53,1.33m6.21-11.19h-9.58v-4h-2.5v6h12.08Zm-15.6,2.31h-2.45v-6.68h-2.51v17.48h2.51v-8.72h2.45ZM580,1117.73v2h5.72c-.46,3.88-2.62,6.65-6.69,8.74l1.41,1.92c5.81-2.94,7.81-7.44,7.81-12.69Zm-11.76,6.52v-2.09a2.88,2.88,0,0,0,2-2.59c0-2.09-2.47-3.36-6.34-3.36s-6.33,1.27-6.33,3.36a2.86,2.86,0,0,0,2,2.57v2.11H556v2h15.81v-2Zm-4.31-6.14c2.39,0,3.76.48,3.76,1.46s-1.37,1.45-3.76,1.45-3.75-.5-3.75-1.45,1.37-1.46,3.75-1.46m-1.85,4.68a15.09,15.09,0,0,0,1.85.11,16.68,16.68,0,0,0,1.8-.1v1.45H562Zm1.81,4.31c-3.78,0-6.06,1.14-6.06,3.17s2.28,3.19,6.06,3.19,6.08-1.16,6.08-3.19-2.3-3.17-6.08-3.17m0,4.46c-2.34,0-3.54-.4-3.54-1.29s1.2-1.27,3.54-1.27,3.53.38,3.53,1.27-1.2,1.29-3.53,1.29m-20.45-12.14c1.3,0,2.19,1.39,2.19,4s-.89,4-2.19,4-2.18-1.38-2.18-4,.89-4,2.18-4m0-2.26c-2.64,0-4.6,2.4-4.6,6.23s2,6.27,4.6,6.27,4.6-2.41,4.6-6.27-2-6.23-4.6-6.23m6.9,16.32h2.51v-17.55H550.3ZM528.91,1120v-4H526.4v10.39h2.51V1122h2.31V1120Zm-5.72,6.67c-3.65,0-5.93,1.28-5.93,3.42s2.28,3.38,5.93,3.38,5.91-1.25,5.91-3.38-2.28-3.42-5.91-3.42m0,4.89c-2.24,0-3.44-.48-3.44-1.47s1.2-1.48,3.44-1.48,3.42.48,3.42,1.48-1.2,1.47-3.42,1.47m2.37-7.64a5,5,0,0,1-4-4.77H525v-2h-9.46v2H519a5.67,5.67,0,0,1-4.13,5.36l1.26,2a6.81,6.81,0,0,0,4.22-3.78,6.45,6.45,0,0,0,4,3.18Zm-15.46-8v6.68h-1.47v-6.4H506.3v16.44h2.33v-8h1.47v8.8h2.37v-17.5ZM498,1129.07h6.9v-11.34H498Zm2.34-9.36h2.24v7.41h-2.24Zm-14.86,15.8a20.47,20.47,0,0,0,0-21.82l-1.95.82a20.88,20.88,0,0,1,0,20.18Zm-9.41-5.06c-1.34,0-2.35-1.34-2.35-5.71s1-5.61,2.35-5.61,2.33,1.26,2.33,5.61-1,5.71-2.33,5.71m0,2.41c3.15,0,5.25-2.77,5.25-8.12s-2.1-8-5.25-8-5.27,2.62-5.27,8,2.1,8.12,5.27,8.12m-13,0c3,0,5.46-1.65,5.46-4.51a3.87,3.87,0,0,0-3.1-3.82v-.11a3.69,3.69,0,0,0,2.6-3.55c0-2.66-2-4.13-5-4.13a6.86,6.86,0,0,0-4.66,1.91l1.57,1.89a4.45,4.45,0,0,1,2.94-1.39,1.86,1.86,0,0,1,2.08,1.95c0,1.39-.92,2.38-3.78,2.38v2.22c3.38,0,4.29,1,4.29,2.48s-1.08,2.16-2.65,2.16a5,5,0,0,1-3.47-1.59l-1.44,2a6.59,6.59,0,0,0,5.2,2.16m-9.38-1.51a1.91,1.91,0,0,0,1.93-2,1.94,1.94,0,1,0-1.93,2m0-10.58a2,2,0,1,0-1.94-2,1.93,1.93,0,0,0,1.94,2m-4.73-2.27a5.73,5.73,0,0,0-4.22-1.76c-3.13,0-6,2.47-6,8.27,0,5.48,2.63,7.85,5.59,7.85a4.86,4.86,0,0,0,4.87-5.18c0-3.34-1.85-4.9-4.45-4.9a4.51,4.51,0,0,0-3.19,1.66c.12-3.88,1.59-5.23,3.38-5.23a3.36,3.36,0,0,1,2.39,1.14Zm-4.7,12c-1.3,0-2.36-1.09-2.65-3.92a3.07,3.07,0,0,1,2.54-1.64c1.35,0,2.21.86,2.21,2.71s-1,2.85-2.1,2.85m-12.85-10.78H429V1116h-2.51v9.74H429v-3.89h2.31Zm-13.66,13.49H429v-6.84H417.68Zm2.45-4.87h6.43v2.91h-6.43ZM415.9,1117v2h5.55c-.37,2.3-2.49,4.22-6.39,5.18l1,2c5.19-1.35,8.13-4.5,8.13-9.16Zm-2.07,5.59h-2.55V1116h-2.51v17.48h2.51v-8.83h2.55Zm-15.72,6.65h8.36V1117.6h-8.36Zm2.47-9.62H404v7.64h-3.42Zm-20.69,5v2h6.9v3h2.51v-3h6.44v-2Zm4.35,3.48h-2.51v5.07H394v-2h-9.75Zm9.48-11.38H381.85v6.51h11.87Zm-2.47,4.54h-6.93v-2.59h6.93Zm-13.18,4.39H362.26v2h6.59v5.87h2.51v-5.87h6.71Zm-14.16-1c3.06-.42,5.21-1.73,6.25-3.52,1,1.79,3.2,3.1,6.26,3.52l.89-2c-3.55-.43-5.4-2.14-5.64-3.82h4.95v-2h-13v2h5c-.25,1.68-2.11,3.39-5.68,3.82Zm-5.7,10.9,1.93-.82a21,21,0,0,1,0-20.18l-1.93-.82a20.58,20.58,0,0,0,0,21.82m-9.8-2.07h2.51V1116h-2.51Zm-5.22-13.75h3.61v-2.07H337v2.07h3.65v1c0,3-1.42,6.19-4.35,7.5l1.42,2A8.34,8.34,0,0,0,342,1125a7.84,7.84,0,0,0,4.2,4.69l1.37-2a7.47,7.47,0,0,1-4.33-7.08Zm-8.27,3.1h-2.26v-6.86h-2.52v17.5h2.52v-8.57h2.26Zm-10.43-5.06v2h1.88c-.13,3.89-.76,6.82-3.07,9.74l2,1.39c3.06-3.78,3.46-8.09,3.46-13.15Zm-5.32,0v2h2.36c-.14,3.51-.82,6-3.14,8.6l2,1.43c3.12-3.46,3.55-7.22,3.55-12Zm-6.1,15.75h2.51v-17.55h-2.51Zm-5.2-16.19h-2.51v2.55c0,3.4-1.44,6.78-4.5,8.09l1.5,2.08a8.47,8.47,0,0,0,4.29-5.21,8,8,0,0,0,4.14,4.79l1.43-2c-3-1.27-4.35-4.46-4.35-7.71Zm-16.28,15.28h3.13c.26-6.09.74-9.26,4.35-13.67V1117H288.74v2.58h7c-3,4.12-3.86,7.56-4.14,13m-26.55-5.7h15.8v-2H265Zm4.42,1.18H267v5.09h12.13v-2h-9.62Zm3.48-4.37c3.82,0,6.35-1.39,6.35-3.61s-2.53-3.61-6.35-3.61-6.33,1.39-6.33,3.61,2.53,3.61,6.33,3.61m0-5.25c2.36,0,3.76.57,3.76,1.64s-1.4,1.61-3.76,1.61-3.74-.53-3.74-1.61,1.4-1.64,3.74-1.64m-20.2,12.87v-1.1h9.16v-4.77H250.23v1.92h9.18v1.06h-9.16v4.84h12.09v-2Zm4.22-10.85c0-2.32-2-4-4.66-4s-4.69,1.67-4.69,4,2,4,4.69,4,4.66-1.67,4.66-4m-6.92,0a2,2,0,0,1,2.26-2,2,2,0,1,1-2.26,2m11.86-4.5h-2.53v8.75h2.53ZM242,1129.38v-4.28a4.15,4.15,0,0,0,2.1-3.59c0-2.87-2.75-4.71-6.53-4.71s-6.52,1.84-6.52,4.71a4.08,4.08,0,0,0,2.11,3.59v4.28H229.7v2h15.84v-2Zm-4.43-10.6c2.43,0,4.06,1,4.06,2.73s-1.63,2.74-4.06,2.74-4-1-4-2.74,1.62-2.73,4-2.73m-1.92,7.25a9.78,9.78,0,0,0,1.92.18,10.06,10.06,0,0,0,1.94-.18v3.35h-3.86Zm-18.28,5.27v-1.1h9.16v-4.77H214.89v1.92h9.18v1.06h-9.16v4.84H227v-2Zm4.22-10.85c0-2.32-2-4-4.66-4s-4.69,1.67-4.69,4,2,4,4.69,4,4.66-1.67,4.66-4m-6.92,0a2,2,0,0,1,2.26-2,2,2,0,1,1-2.26,2m11.86-4.5H224v8.75h2.53Zm-21.89,9.67H188.86v2h6.6v5.87H198v-5.87h6.71Zm-14.15-1c3.06-.42,5.2-1.73,6.25-3.52,1,1.79,3.19,3.1,6.25,3.52l.89-2c-3.55-.43-5.39-2.14-5.64-3.82h5v-2h-13v2h5c-.25,1.68-2.11,3.39-5.69,3.82Zm-6.71-8.68v6.68h-1.46v-6.4H180v16.44h2.34v-8h1.46v8.8h2.37v-17.5Zm-12.14,13.14h6.9v-11.34h-6.9Zm2.34-9.36h2.24v7.41H174Z"/><path class="cls-5" d="M450.36,1088.67a1.83,1.83,0,1,0-1.75-1.82,1.75,1.75,0,0,0,1.75,1.82m-3.7-9.76h-2.55v-6.46H441.6V1090h2.51v-9h2.55Zm-13.08-2.82h5.67v-2h-8.17v11.72h1.5a43.08,43.08,0,0,0,8.07-.57l-.24-2.07a42.75,42.75,0,0,1-6.83.55Zm-8.73,13.84h2.5v-17.5h-2.5Zm-8.71-15.83h-2.49v11.53h1.56a41.29,41.29,0,0,0,8.55-.82l-.26-2.09a41.54,41.54,0,0,1-7.36.76Zm-5,2.54h-2.32v-4.19h-2.51v10.24h2.51v-4h2.32Zm-4.81,8H400v-1.33h-2.48v6.4h11.38v-6.4h-2.49Zm0,3.12H400v-1.22h6.41Zm-1.85-8.29c0-1.86-1.76-3.09-4.29-3.09s-4.29,1.23-4.29,3.09,1.76,3.1,4.29,3.1,4.29-1.25,4.29-3.1m-6.19,0c0-.83.78-1.27,1.9-1.27s1.9.44,1.9,1.27-.78,1.28-1.9,1.28-1.9-.44-1.9-1.28m7.07-5.53h-3.91v-1.67H399V1074h-3.9v2h10.32Zm-19.29,9.07c-3.68,0-6,1.27-6,3.46s2.3,3.45,6,3.45,6-1.29,6-3.45-2.3-3.46-6-3.46m0,5c-2.3,0-3.51-.5-3.51-1.52s1.21-1.52,3.51-1.52,3.54.49,3.54,1.52-1.24,1.52-3.54,1.52m3.42-7.41v2.09H392v-10.26h-2.51v2.28h-3.85a4.79,4.79,0,0,0-3.44-1.35,4.3,4.3,0,1,0,0,8.57,4.77,4.77,0,0,0,3.4-1.33Zm0-3.9v1.9h-2.79a3.87,3.87,0,0,0,.12-.95,4.77,4.77,0,0,0-.1-1Zm-9.51,1a2.23,2.23,0,0,1,4.46,0,2.23,2.23,0,0,1-4.46,0m-20.28,3.27v2h6.78v3h2.57v-3h6.5v-2Zm4.39,3.46h-2.55v5.24h12.28v-2h-9.73Zm3.52-4.37c3.78,0,6.28-1.41,6.28-3.63s-2.5-3.63-6.28-3.63-6.29,1.42-6.29,3.63,2.52,3.63,6.29,3.63m0-5.27c2.22,0,3.59.55,3.59,1.64s-1.37,1.63-3.59,1.63-3.58-.55-3.58-1.63,1.39-1.64,3.58-1.64m-26,1.16c1.3,0,2.19,1.39,2.19,4s-.89,4-2.19,4-2.18-1.38-2.18-4,.89-4,2.18-4m0-2.26c-2.64,0-4.59,2.4-4.59,6.23s1.95,6.27,4.59,6.27,4.6-2.41,4.6-6.27-1.95-6.23-4.6-6.23m6.9,16.32h2.51v-17.55h-2.51Zm-16.17-7.43H329.9v1.31a4.41,4.41,0,0,1-2.72,4.09v-5.24h-2.29v1.71h-1.77v-1.71H320.8v7h6.38v-1.32l1,1.51a5.34,5.34,0,0,0,2.93-2.74,5.19,5.19,0,0,0,3,2.74l1.24-1.87a4.15,4.15,0,0,1-3-4.2Zm-7.48,5.32h-1.77v-1.65h1.77Zm6.11-9.65v3.48h2.51v-9.25H331v3.74h-2.81a4.37,4.37,0,0,0-4.48-3.1c-2.62,0-4.6,1.73-4.6,4.12s2,4.15,4.6,4.15a4.4,4.4,0,0,0,4.5-3.14Zm-9.5-1a2.22,2.22,0,1,1,2.21,2.08,2,2,0,0,1-2.21-2.08m-9.95,5H295.7v2h6.61v5.71h2.51v-5.71h6.73Zm-1.9-8.93H297.53v7.07h12.12Zm-2.45,5.09H300v-3.11h7.2Zm-13.32,5.25H278v2h3.65V1090h2.53v-4.33h3.51V1090h2.53v-4.33h3.63ZM280,1079.82c0,1.94,2.24,3,6,3s6-1.06,6-3-2.26-3-6-3-6,1.07-6,3m9.39,0c0,.78-1.12,1.14-3.4,1.14s-3.39-.36-3.39-1.14,1.11-1.12,3.39-1.12,3.4.34,3.4,1.12m3.7-5.63h-5.85v-1.76h-2.51v1.76h-5.89v2H293ZM266.84,1090h2.51v-17.55h-2.51Zm-5.21-16.19h-2.5v2.55c0,3.4-1.45,6.78-4.51,8.09l1.5,2.08a8.48,8.48,0,0,0,4.3-5.21,8,8,0,0,0,4.14,4.79l1.43-2c-3-1.27-4.36-4.46-4.36-7.71Zm-19.43,1.54a2.13,2.13,0,1,1-2.32,2.13,2.11,2.11,0,0,1,2.32-2.13m0-2.09c-2.72,0-4.77,1.75-4.77,4.22s2,4.2,4.77,4.2,4.75-1.75,4.75-4.2-2-4.22-4.75-4.22m7.07,14.54h-6.73v-2.68h6.73Zm-9.2,2h11.65v-6.6H240.07Zm9.12-7.38h2.53v-9.91h-2.53Zm-35.19,1h15.81v-2H214Zm4.43,1.18h-2.51v5.09H228v-2h-9.61Zm3.48-4.37c3.82,0,6.34-1.39,6.34-3.61s-2.52-3.61-6.34-3.61-6.33,1.39-6.33,3.61,2.53,3.61,6.33,3.61m0-5.25c2.35,0,3.76.57,3.76,1.64s-1.41,1.61-3.76,1.61-3.75-.53-3.75-1.61,1.41-1.64,3.75-1.64m-20.58,13.17v-.89h9.73v-4.11H198.84v1.7h9.75v.83h-9.73v4.18h12.6v-1.71Zm-.76-5.51h2.51v-2.39c1.54-.08,3.08-.21,4.6-.42l-.16-1.56a107.17,107.17,0,0,1-11.17.4l.25,1.71c1.23,0,2.58,0,4,0Zm1.33-4.67c2.6,0,4.37-1,4.37-2.59s-1.77-2.62-4.37-2.62-4.37,1-4.37,2.62,1.75,2.59,4.37,2.59m0-3.57c1.25,0,2,.32,2,1s-.78,1-2,1-2.05-.32-2.05-1,.8-1,2.05-1m3.55,6.19v1.52h3.1v.51h2.51v-10.12h-2.51v8.09Zm-20.79,8.53H194v-2.5h-2.92v-13H188.8a10,10,0,0,1-3.62,1.3v1.91H188v9.83h-3.34Zm-12.58,0h9.34v-2.5h-2.91v-13h-2.29a10,10,0,0,1-3.62,1.3v1.91h2.82v9.83h-3.34Z"/><path class="cls-5" d="M408.07,1058.67a1.83,1.83,0,1,0-1.75-1.82,1.75,1.75,0,0,0,1.75,1.82m-3.71-9.76h-2.54v-6.46h-2.51V1060h2.51v-9h2.54Zm-13.07-2.82H397v-2h-8.16v11.72h1.5a43.08,43.08,0,0,0,8.07-.57l-.25-2.07a42.53,42.53,0,0,1-6.82.55Zm-8.74,13.84h2.51v-17.5h-2.51Zm-8.7-15.83h-2.49v11.53h1.56a41.29,41.29,0,0,0,8.55-.82l-.27-2.09a41.33,41.33,0,0,1-7.35.76Zm-16.05,1.14a2.07,2.07,0,1,1-2.32,2,2.07,2.07,0,0,1,2.32-2m0-2.07c-2.72,0-4.77,1.73-4.77,4.12s2.05,4.14,4.77,4.14,4.75-1.73,4.75-4.14-2-4.12-4.75-4.12m.38,13h6.65v1.6h-6.65Zm-2.49-3.55v7.13h11.63v-7.13h-2.49v1.63h-6.65v-1.63Zm9.1-.76h2.53v-9.4h-2.53Zm-13.83.38H335.11v2h6.61v5.71h2.51v-5.71H351Zm-1.9-8.93H336.93v7.07h12.13Zm-2.45,5.09H339.4v-3.11h7.21Zm-13.32,5.25H317.44v2h3.65V1060h2.52v-4.33h3.52V1060h2.53v-4.33h3.63Zm-13.93-3.82c0,1.94,2.24,3,6,3s6-1.06,6-3-2.26-3-6-3-6,1.07-6,3m9.38,0c0,.78-1.12,1.14-3.4,1.14s-3.38-.36-3.38-1.14,1.1-1.12,3.38-1.12,3.4.34,3.4,1.12m3.71-5.63H326.6v-1.76h-2.51v1.76H318.2v2h14.23Zm-38.19,9.18h15.81v-2H294.26Zm4.43,1.18h-2.51v5.09H308.3v-2h-9.61Zm3.47-4.37c3.82,0,6.35-1.39,6.35-3.61S306,1043,302.16,1043s-6.32,1.39-6.32,3.61,2.52,3.61,6.32,3.61m0-5.25c2.36,0,3.77.57,3.77,1.64s-1.41,1.61-3.77,1.61-3.74-.53-3.74-1.61,1.41-1.64,3.74-1.64M282,1057.8v-1.1h9.15v-4.77H279.46v1.92h9.18v1.06h-9.16v4.84h12.08v-2Zm4.21-10.85c0-2.32-2-4-4.65-4s-4.69,1.67-4.69,4,2,4,4.69,4,4.65-1.67,4.65-4m-6.91,0a2,2,0,0,1,2.26-2,2,2,0,1,1,0,4,2,2,0,0,1-2.26-2m11.85-4.5H288.6v8.75h2.52Zm-19.87,13.43v-4.28a4.16,4.16,0,0,0,2.11-3.59c0-2.87-2.75-4.71-6.54-4.71s-6.51,1.84-6.51,4.71a4.08,4.08,0,0,0,2.11,3.59v4.28h-3.5v2h15.85v-2Zm-4.43-10.6c2.44,0,4.07,1,4.07,2.73s-1.63,2.74-4.07,2.74-4-1-4-2.74,1.61-2.73,4-2.73m-1.92,7.25a9.86,9.86,0,0,0,1.92.18,10,10,0,0,0,1.94-.18v3.35H264.9Zm-18.65,5.57v-.89H256v-4.11H243.76v1.7h9.75v.83h-9.73v4.18h12.59v-1.71Zm-.76-5.51H248v-2.39c1.54-.08,3.08-.21,4.6-.42l-.15-1.56a107.36,107.36,0,0,1-11.17.4l.25,1.71c1.23,0,2.58,0,4,0Zm1.33-4.67c2.6,0,4.37-1,4.37-2.59s-1.77-2.62-4.37-2.62-4.37,1-4.37,2.62,1.75,2.59,4.37,2.59m0-3.57c1.25,0,2,.32,2,1s-.78,1-2,1-2.06-.32-2.06-1,.8-1,2.06-1m3.55,6.19v1.52h3.1v.51H256v-10.12h-2.51v8.09Zm-16.47,1.58H218.09v2h6.59V1060h2.51v-5.87h6.71Zm-14.16-1c3.06-.42,5.21-1.73,6.25-3.52,1,1.79,3.19,3.1,6.25,3.52l.9-2c-3.56-.43-5.4-2.14-5.65-3.82h5v-2h-13v2h5c-.25,1.68-2.11,3.39-5.68,3.82Zm-6.7-8.68v6.68h-1.47v-6.4h-2.33v16.44h2.33v-8H213v8.8h2.37v-17.5Zm-12.15,13.14h6.9v-11.34h-6.9Zm2.34-9.36h2.24v7.41h-2.24Z"/></g><line class="cls-7" x1="170.36" y1="1053.09" x2="187.37" y2="1053.09"/></g></g></svg>