<svg xmlns="http://www.w3.org/2000/svg" xmlns:xlink="http://www.w3.org/1999/xlink" viewBox="0 0 163.81 95.73"><defs><style>.cls-1{fill:none;}.cls-2{fill:#007878;}.cls-3{clip-path:url(#clip-path);}.cls-4{fill:#eee1ca;}</style><clipPath id="clip-path" transform="translate(0)"><rect class="cls-1" width="163.81" height="95.73"/></clipPath></defs><g id="레이어_2" data-name="레이어 2"><g id="레이어_1-2" data-name="레이어 1"><rect class="cls-2" x="56.92" y="-30.13" width="49.97" height="156" transform="translate(11.07 110.97) rotate(-72)"/><g class="cls-3"><path class="cls-4" d="M21.66,43.11a7.1,7.1,0,0,1-10.3-3.55c-1.17-3-.29-5.8.67-8.74L13.28,27l3,1c-.19,2.46.51,3.93,2.26,4.49,1.28.42,2.33.09,2.68-1s-.13-1.94-1.57-3.29c-2.93-2.75-4.55-5.44-3-10.14,1.59-4.88,5.55-7.51,9.61-6.19a7,7,0,0,1,4.36,4c.83,2.07.74,3.79-.59,7.89l-1.28,3.95-3.12-1c.2-1.89-.4-3-1.81-3.42-1.15-.37-2-.07-2.29,1-.45,1.39,1,2.32,2.52,3.7,2.69,2.47,3.13,5.75,1.94,9.42a10.24,10.24,0,0,1-4.29,5.81" transform="translate(0)"/><path class="cls-4" d="M37.16,32a4.42,4.42,0,0,0-5.52,3.05c-.84,2.6.33,5.09,2.46,5.79a4.54,4.54,0,0,0,5.54-3c.8-2.46-.26-5.13-2.48-5.85M35.1,49.54l1-3-.26-.08c-1.54,2.28-3.35,2.92-5.66,2.18-3.24-1.06-4-4-2.65-8.22l4.05-12.48c1.33-4.09,3.79-5.71,6.9-4.7,2.18.71,3.27,2.56,3.23,5.16l.25.09,1-3.12,2.68.87-7.86,24.2Z" transform="translate(0)"/></g><rect class="cls-4" x="30.74" y="34.85" width="32.64" height="2.83" transform="translate(-1.97 69.81) rotate(-72)"/><g class="cls-3"><path class="cls-4" d="M57.48,38.65a4.4,4.4,0,0,0-5.52,3c-.84,2.61.33,5.1,2.46,5.79a4.53,4.53,0,0,0,5.54-3c.8-2.47-.27-5.13-2.48-5.85M55.42,56.14l1-3L56.15,53c-1.54,2.28-3.35,2.93-5.66,2.18-3.24-1.05-4-4-2.65-8.22l4-12.47c1.33-4.1,3.79-5.72,6.9-4.71C61,30.52,62.06,32.37,62,35l.25.08,1-3.12,2.68.88L58.11,57Z" transform="translate(0)"/><path class="cls-4" d="M72,43.36c-2.21-.72-4.64.8-5.44,3.27a4.53,4.53,0,0,0,2.73,5.67c2.13.69,4.54-.63,5.39-3.24A4.4,4.4,0,0,0,72,43.36M70.22,61l1-3L71,57.85c-1.48,2.25-3.4,2.91-5.7,2.17-3.16-1-4.08-3.85-2.61-8.36l4-12.29c1.3-4,3.76-5.77,6.88-4.76,2.17.7,3.41,2.55,3.31,5.19l.21.07,3.23-10,2.69.87-10.08,31Z" transform="translate(0)"/><path class="cls-4" d="M88.74,65.31a7.11,7.11,0,0,1-10.3-3.55c-1.16-2.95-.28-5.8.67-8.73l1.25-3.87,3,1c-.19,2.46.52,3.93,2.26,4.5,1.28.41,2.33.08,2.68-1s-.12-1.94-1.57-3.29c-2.93-2.75-4.55-5.44-3-10.14,1.58-4.88,5.55-7.5,9.6-6.19a7,7,0,0,1,4.36,4c.84,2.07.75,3.79-.58,7.89l-1.29,4-3.11-1c.19-1.89-.41-3-1.81-3.41-1.16-.38-2-.08-2.29,1-.46,1.39,1,2.33,2.52,3.7,2.69,2.47,3.13,5.75,1.93,9.43a10.21,10.21,0,0,1-4.29,5.8" transform="translate(0)"/><path class="cls-4" d="M103.78,54a4.25,4.25,0,0,0-4.87,1.92l7.64,2.48a3.93,3.93,0,0,0-2.77-4.4m-.85,16.71a6,6,0,0,1-8.18-2.56c-1.12-2.06-.61-4.78.13-7.06L98,51.64c1.46-4.52,4.64-7.19,8.35-6s5.32,4.66,3.63,9.87L108,61.39l-9.85-3.2a4.09,4.09,0,0,0,2.88,4.64,5.36,5.36,0,0,0,4.28-.41l2.14.69-.7,2.15c-.67,2-1.59,4.16-3.84,5.44" transform="translate(0)"/></g><rect class="cls-4" x="97.09" y="56.82" width="32.64" height="2.83" transform="translate(22.99 148.1) rotate(-72)"/><rect class="cls-4" x="103.12" y="58.78" width="32.64" height="2.83" transform="translate(25.29 155.19) rotate(-72)"/><path class="cls-4" d="M129.6,62.38a4.25,4.25,0,0,0-4.87,1.92l7.63,2.48a3.94,3.94,0,0,0-2.76-4.4m-.86,16.7a5.81,5.81,0,0,1-4.71.43,5.87,5.87,0,0,1-3.46-3c-1.12-2.06-.62-4.78.12-7.06L123.76,60c1.47-4.51,4.65-7.18,8.36-6s5.32,4.67,3.63,9.88l-1.91,5.86L124,66.58a4.07,4.07,0,0,0,2.88,4.64,5.37,5.37,0,0,0,4.28-.41l2.13.69-.69,2.14c-.67,2-1.59,4.17-3.85,5.44" transform="translate(0)"/><path class="cls-4" d="M145.33,75.47l.64-2c.78-2.42.81-3.39.43-4.39a3.33,3.33,0,0,0-2-1.89c-2.31-.75-4.06.58-5.21,4.12l-3.64,11.21-2.69-.87,7.86-24.2,2.69.87-1,3,.21.07c1.76-2.21,3.53-2.87,5.66-2.18a4.51,4.51,0,0,1,2.82,2.36c.74,1.63.79,2.93-.18,5.91l-2.86,8.8Z" transform="translate(0)"/></g></g></svg>