<svg xmlns="http://www.w3.org/2000/svg" viewBox="0 0 433.64 163.85"><defs><style>.cls-1{fill:#1b1b1a;}</style></defs><g id="레이어_2" data-name="레이어 2"><g id="Layer_1" data-name="Layer 1"><path class="cls-1" d="M320.87,71c-1.48-1.12-3-2-3.72-3.66A2.39,2.39,0,0,0,315.79,66,11.74,11.74,0,0,1,309,58.74c-.09-.22-.11-.61-.43-.56s-.41.32-.52.53a12.89,12.89,0,0,0-.9,2.17c-1,3.25.53,5.75,3.82,5.87,1.46.06,2.25.47,2.43,2.07s2.59,3.38,4,3.18a24.06,24.06,0,0,0,3.45-1m1.8-1.33c.14-1.31-.71-2.61-.19-3.86a15.73,15.73,0,0,0,.85-3.57,5.32,5.32,0,0,1,.73-2.07c.24-.37,1.11-1,.44-1.83-.81-1-.49-1.87.3-2.7.43-.45.7-.9.09-1.46-1.41-1.31-1.47-3.2-1.58-4.86-.09-1.4.6-2.83.41-4.34-.05-.43.39-.88.76-1.29.59-.65,1.81-1,1.52-2.23a22.72,22.72,0,0,1-.35-3.94c-.08-1.26-.42-2.53.05-3.8s.15-2-1.14-2.2c-3.93-.7-6.76-.29-8.56,3.87a4.59,4.59,0,0,0,.93,5,1,1,0,0,1,.31,1.18c-.18.45-.34.93-1,.87a4.47,4.47,0,0,0-2.41.61c-3.09,1.52-3.73,6.07-3.32,8.57a1.76,1.76,0,0,0,1.1,1.41c1.26.46,1.41,1.36,1.15,2.49a8.74,8.74,0,0,1-.49,1.92,2.38,2.38,0,0,0,0,2.05c1.2,2.79,2.77,5.16,6.21,5.33.5,0,1.11.1,1.22.63.28,1.42,1.61,2.19,2,3.5.13.37.34.74.89.68m11.41,10.58a8.89,8.89,0,0,0-1.31-.92,1.82,1.82,0,0,1-.85-2.68,15.35,15.35,0,0,1,1.66-3.41,4.69,4.69,0,0,1,1.76-1.53c1.27-.6,1.31-1.17.18-2a1.71,1.71,0,0,0-1.38-.3,5.63,5.63,0,0,1-4.26-1c-2.44-1.61-2.71-4.16-.54-6.07,2.39-2.1,5-3.89,7.39-6,1.79-1.62,2.13-2.07,1.45-4.49-.15-.56,0-.71.57-.68a9.33,9.33,0,0,0,1.18-.06c2.4-.12,3-.66,3.67-3.08a6.75,6.75,0,0,1,.59-1.32c.85-1.54.11-2.79-.71-4s-1.66-.25-2.5-.19c-.22,0-.43.12-.64.16A3.45,3.45,0,0,1,336.39,39c.21-1.8.64-3.54.24-5.43s-1.43-3.31-2.95-3a4.09,4.09,0,0,0-3.21,2.29c-.87,2-1.71,4.06-1.26,6.36a19,19,0,0,0,1,3c.61,1.66.33,2.47-1.3,3.07-.87.32-2,.22-1.81,1.74.1,1-.31,1.93-.07,2.92.44,1.82,1.8,3.1,2.72,4.63a1.51,1.51,0,0,1-.51,2.34,1.34,1.34,0,0,0-.82,1.89c.1.37-.13.69-.15,1,0,1.26.21,2.62-1.5,3.06a7.51,7.51,0,0,1-.87,3.41c-.07.16-.14.37.08.45.72.29.39.7.19,1.16a5.09,5.09,0,0,0,1.53,4.9c.6.37,1.07.86.67,1.49-.5.81-.39,1.8-.93,2.55-.33.45.06.3.2.27.47-.1.41.17.47.51a11.14,11.14,0,0,0,.63,2,3,3,0,0,0,2.21,2c1.49.38,2-.8,3.13-1.39m6.39-45.28a6.58,6.58,0,0,1,0,3.35c-.19.6,0,.88.67.95A8.14,8.14,0,0,1,347,43a11.77,11.77,0,0,1,1.63,2.28c.83,2-.29,3.49-1.08,5.09a5.47,5.47,0,0,1-3.73,3.06,1.66,1.66,0,0,0-1.34,2c.13,1.81-1.51,2.55-2.62,3.32a16.13,16.13,0,0,0-2.41,1.69c-.31.3-.72,1-1.21,0-.19-.37-.4.09-.58.2-1.15.69-1.31,2.22-2.42,2.9-.86.52-.87,1.17-.71,2s.48,1,1.19,1.15a16.33,16.33,0,0,1,3.41,1.16A4.36,4.36,0,0,1,340,71.61c.08,1.15,1.14,2.28.07,3.47,0,0,.08.39.19.43,1.25.46.45,1.13.24,1.78a10.48,10.48,0,0,1-2.56,3.94c-.78.79-1.61,2.64-3.47,1.94-.71,1-1.88,0-2.73.68-.59.44-1.26-.19-1.88-.33-4.21-1-5.6-3.68-5.85-7.66,0-.56.39-1,.32-1.63-.14-1.25-.78-1.49-1.79-1.23a9.29,9.29,0,0,0-2.62.87c-1.95,1.18-3.81.37-5.56-.27-2.11-.78-4-1.93-4.85-4.34-.41-1.18-1.92-.86-2.89-1.31a2,2,0,0,1-.95-.57A9,9,0,0,1,304,60.07c.2-1.12.4-2.77,2.17-3.2.54-.13.72-1.07,1.43-1.39s2,0,2.12-.94c.08-.49-1-1.07-1.35-1.73-.87-1.82-1.61-3.7-.46-5.72a.79.79,0,0,0-.07-.87.88.88,0,0,1,.1-1c1.25-1.89,2.67-3.6,4.91-4.37.88-.3.92-.76.52-1.48a4.17,4.17,0,0,1,.3-4.7c.78-1.14.61-2.67,1.54-3.76.31-.36.44-.91,1.11-.63a.59.59,0,0,0,.49-.09c3.18-2.26,6.45-1.59,9.7-.22.59.25,1.19.47,1.51-.16,1-1.92,2.94-1.82,4.49-1.87,3.45-.11,7.06,3,8,7"/><path class="cls-1" d="M365.46,97.51c4.22,2.18,8.25,4.62,11.4,8.28.53.62,1.4,1.08,1.66,1.78.34.93-1,1-1.37,1.72-1,1.78-1.69,5.17.18,7.42a4.63,4.63,0,0,0,2.6,1.29c.35.1.74,0,1.06.27,2.34,1.74,4.66,1.28,7,0a6,6,0,0,0,2.74-3.44,11.09,11.09,0,0,0,.65-3.8,7.41,7.41,0,0,0-1.25-4.44,6.92,6.92,0,0,1-1.06-2.82c1.19,0,2-1.17,3.2-1,.82.12,1.13-.11.9-.91a.53.53,0,0,1,.34-.7,2.4,2.4,0,0,0,1.24-2.33c.05-1.06.39-2.1.53-3.16.46-3.32-.34-6.23-3.75-8.12a4.67,4.67,0,0,0-4.94-.19c-1.53.82-3,3.58-2.51,5.23a2.27,2.27,0,0,1-1.47,3.05c-.58.26-.83.53-.77,1.19a3.91,3.91,0,0,1-.22,1.33,2.63,2.63,0,0,0,.87,2.87c1.17,1.08,1.13,1.13-.27,2a4.6,4.6,0,0,1-.53.31c-.7.32-1.17,1.41-1.82,1.22a4.6,4.6,0,0,1-1.94-1.65,21.36,21.36,0,0,0-6.24-5.18c-1.67-.93-3.13-2.22-4.91-3-.25-.1-.6-.24-.56-.58s.38-.53.69-.63c3-1,6.16-1.74,9.27-1,1.9.46,4.1.29,5.68,1.85a.9.9,0,0,0,1.33,0c.44-.37.26-.78.12-1.23-.61-2.11-2.58-2.65-4.76-3.12-.4-.08-.84.06-1.23,0-4.92-1.27-9.41.15-13.79,2.22-.72.34-1.1.36-1.54-.44-.57-1-.78-2.18-1.43-3.14-.18-.26-.25-.71-.65-.65s-.32.51-.37.81c-.46,2.75-.06,5.5,0,8.24a8.51,8.51,0,0,1,.06,1.23c-.05.56-.12,1.24.57,1.26s1.51,0,1.72-1c.35-1.6,1-1.94,2.6-1.37.31.11.6.26.9.39"/><path class="cls-1" d="M47.78,105.27c2.78,1.15,5.48.6,8.18-.33a2.48,2.48,0,0,1,3.37,1.94c.56,2.27.81,2.48,3.09,2.09,1.48-.26,3-1.14,4.37-.93,1.92.28,2.28-1.23,3.17-2A6.65,6.65,0,0,0,72,102.43a3,3,0,0,0-.47-2.69A6.5,6.5,0,0,1,70.73,98c-.65-1.69-.58-1.75,1.13-1.54A1.94,1.94,0,0,0,74,95.55a3.32,3.32,0,0,0-.1-3.3A6.84,6.84,0,0,0,71,89.46c-1.79-.82-2.39-1.95-2-3.35.26-1,1.06-1.18,1.7-.65,1.65,1.36,3.63,2.51,3.87,5,.06.68,1.12.49,1.3,1.28.42,1.88,1,3.72,1.4,5.6.1.44-.42.81-.94,1s-1.32.19-.64,1.17c.38.54-.13,1-.72,1-1.21,0-1.2.89-.93,1.56.66,1.64,0,3.07-.2,4.64s-2.06,1.48-2.09,2.87c-1.95-.37-2.41,2.6-4.71,2-.84-.23-2.23.6-3.39.87-2.57.59-4,0-5-2.39-.4-.88-2.17-1.71-3-1.27-3.16,1.77-5.83.08-8.62-1a15.76,15.76,0,0,1-4.22-2.85,7.27,7.27,0,0,1-2.22-2.9,8.37,8.37,0,0,0-3.48-4.61,12.71,12.71,0,0,1-5.82-7.52,21.43,21.43,0,0,1-.46-6.62c.05-1.18-.22-2.8,1.06-3.79.14-.11.27-.47.3-.46,1,.35,1.22-.53,1.82-.89a50.34,50.34,0,0,1,7.07-3.76c.41-.17.95-.57,1.26-.25,1.32,1.37,1.92-.21,2.33-.74a8.64,8.64,0,0,1,4.12-2.78c2.32-.81,5.69.95,6.42,3.33.18.59.06.89-.59.85a5.07,5.07,0,0,1-2.06-.23c-1.62-.95-3.15-.21-4.3.52a4.56,4.56,0,0,0-1.85,4c0,.67-.27.71-.85.57a3.81,3.81,0,0,1-1.82-1,2.35,2.35,0,0,0-3.57-.24,17.62,17.62,0,0,1-4.09,2.47c-.71.29-.83,1-1.19,1.48-2.1,3-1.66,8,.64,10.76,1.15,1.34,2.69,1.46,4.13,1.89A3.35,3.35,0,0,1,42,99.44c-.4,1.1.76,3.13,2.31,4,.56.33,1.14.63,1.72.92s1.16.59,1.74.88"/><path class="cls-1" d="M42.41,83.92a31,31,0,0,0,3.16.81c.86.13,1-.71,1.2-1.29.73-1.63,1.51-2,2.72-1.51.73.33,1,.78.58,1.53-.66,1.13-1,2.52-2.25,3.23a.64.64,0,0,0-.24.91,1.29,1.29,0,0,0,1.31.85c3.17-.62,4,1.9,5,3.88a1.2,1.2,0,0,0,1.86.59c1.55-1.29,2.93-.56,4.25.18,1.63.92,1.78,1,2.57-.66a2.65,2.65,0,0,1,3.59-1.25,12,12,0,0,0,2,.88,1.19,1.19,0,0,1,1,1.34c-.09.62-.67.66-1.17.76l-.44.06c-3.36.37-3.8,1.26-2.18,4.22a5.56,5.56,0,0,1,.54,4.38c-.34,1.19-1,1.85-2.24,1.72A2.13,2.13,0,0,1,62.11,102c1.15-3.15-.56-4.91-2.93-6.36-1.12-.68-2.27-.15-3.28.33a21.09,21.09,0,0,0-5.18,3.5c-.84.77-1.64,1-2.44,0a1.43,1.43,0,0,1,.4-2.39c1.09-.69,1.38-2.07,2.68-2.7.91-.45-.35-1.23-.58-1.85s-1-.46-1.53-.15c-2.17,1.31-2.88,1-3.48-1.37a14.76,14.76,0,0,1-.31-1.47c-.29-1.78-1.49-2.37-2.94-1.38-.75.51-1.44,1.19-2.4.5s-.56-1.93-.66-2.88c-.07-.65.57-1.46,1-2.08s1.28-.34,2,.2"/><path class="cls-1" d="M52.86,82.42c.34-2.63,2.75-4.25,4.68-6.18.6-.6.82-1.44,1.59-1.92,2-1.26,4-2.67,6-3.95A13,13,0,0,0,66.93,69a7,7,0,0,1,3.49-1.64c.84-.16,1.67-.11,2,.81s-.51,1.14-1.1,1.46c-3.42,1.86-6.11,4.72-9.3,6.84-2.49,1.66-3.69,4-5.26,6.25-.71,1-1.71,1.74-2.22,3-.35.81-1.79.4-2.07-.6a3,3,0,0,1,.36-2.68"/><path class="cls-1" d="M57.73,86c.82-1.84,2.42-2.79,3.47-4.19,1.37-1.84,3.35-3,4.82-4.78,1-1.19,2.56-1.74,3.65-3,.81-.91,3.28.31,3.45,1.54.1.8-.58,1.12-1.12,1.44a20.49,20.49,0,0,0-5.2,4.28C65.44,83,63.66,84.18,62.47,86c-.44.67-1,1.27-1.37,2s-.7,1.59-1.36,1.35a2.84,2.84,0,0,1-2-1.83,5.17,5.17,0,0,1,0-1.41"/><path class="cls-1" d="M7.24,155.88a9,9,0,0,1,3.93-.23c1.92.15,4.14-.08,4.76,2.56a1.74,1.74,0,0,0,.36.52c.29.38.56.81.22,1.25a1.44,1.44,0,0,1-1.38.72c-3.13-.73-6.3-1.38-8.92-3.44-.43-.34-.42-.58,0-.84l1-.54m11.83-31.15c.06,1.25-.12,2.12-1.43,2.19-.39,0-.52.36-.44.75a4.72,4.72,0,0,0,2.86,2.4c.45,0,1-.17,1.12.47a1.43,1.43,0,0,1-.5,1.57,7.32,7.32,0,0,1-2,1.08c-.35.13-.69.29-.62.8.11.81,2,2.24,2.77,2A5,5,0,0,0,24,133.68c.34-.68.61-.65,1.24-.43,1,.34,2.15.69,3.07-.15,2.27-2.08,1.24-6.79-1.66-7.82-.51-.17-1.18-.46-1.5,0a1.8,1.8,0,0,0,.25,1.78c0,.09.23.08.31.16.66.63.81,2.33.24,2.63a2.26,2.26,0,0,1-3.16-2c.18-2.39-1.2-4-2.88-5.22a3.36,3.36,0,0,1-1.66-2.6c-.18-1.29.91-1.46,1.53-2s1.26,0,1.68.54a4.92,4.92,0,0,0,1.25,1.2c.56.31,1,.63,1.27-.34a3.14,3.14,0,0,1,1.92-1.71c.25-.12.78-.17.62.23-.46,1.12.67,1.39.95,2.09a1.14,1.14,0,0,0,1.18.76c.51,0,.66-.41.81-.83a3.25,3.25,0,0,1,3.05-2.45c.24,0,.5-.22.7,0s0,.57-.19.75c-1.16,1.1-.08,1.87.47,2.56a1.67,1.67,0,0,0,2.27.71,5,5,0,0,1,2.4-.56c.29,0,.64.09.68.44s-.28.46-.58.52c-.45.1-.91.2-1.35.32-1.16.34-1.39,1.18-.69,2.19,1,1.5,2.61,1.57,4.12,1.38.76-.09,1.22.07,1.39.63s.84,1.27.27,1.87-1.09,1.06-1.9.25a2.79,2.79,0,0,0-2-.46c-.53,0-.67.32-.61.73a2.18,2.18,0,0,0,.66,1.58,18.63,18.63,0,0,0,2.26,1.78c.73.38.93,1.78.3,2.11a23.25,23.25,0,0,1-3.22,1.34,1.39,1.39,0,0,1-1.77-.61,3.32,3.32,0,0,0-2.7-1.36c-.47,0-1.06-.4-1.27.31a1.5,1.5,0,0,0,.38,1.82c.49.37.87.89,1.34,1.3s.21.86-.26,1a2.12,2.12,0,0,1-1.43,0,13.58,13.58,0,0,0-3.14-.76c-1.1-.23-1.16.5-.89,1,.42.84.62,1.94,1.85,2.18.69.13.67.6.11.93a5.34,5.34,0,0,1-4.72.79c-.61-.22-1.34-1.11-1.87-.47s.45,1.3.74,1.95c.55,1.19,3.42,2.66,4.71,2.5a4.8,4.8,0,0,0,4-4c.07-.49.16-1,.78-.86a2.72,2.72,0,0,1,1.81,1,3.88,3.88,0,0,0,2.23,1.7c.9.28.52,1,.42,1.57s-.45.9-1.08.43a1,1,0,0,0-1.27.11c-1,.69-1.1,1.24-.34,2.7.56,1.08.47,2.27-.21,2.71a2.25,2.25,0,0,1-3.16-.77c-.3-.48-.44-1.19-1.25-.88s-1.23.75-1,1.62a.59.59,0,0,1-.58.78c-.62.05-1.48.36-1.63-.63-.12-.82.28-1.36,1.24-1.27.81.08.8-.36.55-.95-.51-1.19-1.12-1.39-2.53-.72a2.73,2.73,0,0,1-2.6-.27c-.84-.44-.42-1.11-.21-1.75.25-.8-.24-1.29-.9-1.57s-1.22-1-1.79-.23c-.71.91-1.65,1.71-1.89,2.89a3,3,0,0,1-1.23,2c-1.6,1-1.56,2.59-1.65,4.16,0,.3.35.68-.12.87a.77.77,0,0,1-.89-.33c-.85-1.15-2.17-1.29-3.4-1.62-.88-.24-1.26-.52-.57-1.44a15.05,15.05,0,0,0,2.9-8.46c0-.34,0-.8.39-.81,1.55,0,2.14-1.34,3.05-2.2a2.46,2.46,0,0,0,.2-2.8c-.78-1-1.38-.19-2,.2a1.13,1.13,0,0,0-.22.11c-1.47,1.47-2.79,1.48-4.33-.05-.84-.84-1.55-.39-1.62.9,0,.76-.56.92-1.06,1a2.07,2.07,0,0,1-2.36-2.14,2.79,2.79,0,0,0-1.73-2.9c-1.52-.4-1.5-.39-.73-1.75a2.79,2.79,0,0,1,1.42-1.16,1.42,1.42,0,0,0,1-1.42A2.87,2.87,0,0,0,4,127.38c-.48-.13-1.07-.47-.6-.89,1.32-1.2,2.15-3.08,4.23-3.28.61-.06.66-.3.55-.81-.35-1.6.43-2.33,2.23-2-.5,1-1.89,1.9-.54,3.26.49.5.83,1.21,1.48,1.47s.79-.58,1.16-.93c1.5-1.43,3.09-1.33,4.48.26.54.61,1.12,1.23,2.05.3m-1.86,37.63c2.19-1,2.54-1.64,1.75-4.07a6.17,6.17,0,0,1,.39-5.08c.6-1.11,1.11-2.25,1.74-3.34.42-.74.94-1,1.42,0,.16.33.4.77.7.85,1.68.47,2.26,1.93,3.05,3.21a1.22,1.22,0,0,0,.86.68,8,8,0,0,0,3.37.3,2.5,2.5,0,0,1,2.33.48c.45.34,1,.83,1.41,0,0,0,.22,0,.32,0a3,3,0,0,0,2.82-1.38,10.11,10.11,0,0,0,1-3.08c0-.19.05-.5.18-.56.63-.33,1.4-.61,1.49-1.37.27-2.13.73-4.3-.1-6.4-.5-1.24-1.8-1.64-2.82-2.31-.29-.18-.86-.21-.62-.74.17-.38.56-.44,1-.22.17.09.45.22.57.14,1.62-.94,3.72-1,5-2.49.9-1.05.72-2.47.44-3.73a2.12,2.12,0,0,1,.93-2.54,1.78,1.78,0,0,0,.41-2.18c-.72-1.76-1-3.65-2.4-5.19-.87-.94-1.15-2.46-1.58-3.76-.26-.77-.67-1.31-1.43-1.4-1-.12-1.86-.87-3-.67-.57.1-1-.53-1.13-1.14a2.27,2.27,0,0,0-2.42-2c-1.35,0-2.79-.46-3.62,1.16-.18.35-.44.34-.77,0-1.59-1.79-3-2-5-.71-.77.46-1.42,1-2.43,0a5.2,5.2,0,0,0-2.93-.87c-1.9-.14-3,2.13-2.79,3.74.13,1.06,0,1.87-1.33,2-.59,0-.8-.3-1.14-.59-.95-.79-1.54-2.17-3.14-1.91-.3,0-.72-.14-.77.39,0,.19-.17.4-.29.24-1.14-1.52-1.6.15-2.19.56A2.73,2.73,0,0,0,5.63,120c-.14.73-.15,1.38-1.17,1-.12,0-.41.07-.44.17-.61,1.69-2.56,2-3.53,3.31-.51.7-.67,1.2-.25,1.89.28.46.51,1.07.94,1.31,1.19.67.72,1.41.23,2.18a4.61,4.61,0,0,0,.37,5.17c1.34,1.46,2.06,3.32,3.27,4.85a5.12,5.12,0,0,0,4.53,1.91,1.92,1.92,0,0,0,.71-.15c.37-.17.68-.87,1.13-.29s.75,1.15.28,1.73a4.66,4.66,0,0,0-1.06,3c0,.57-.64.8-.93,1.22-.74,1.09-.93,2.6-2.36,3.22-.44.19-.73.79-1,1.24A2.93,2.93,0,0,1,4.79,153a1.59,1.59,0,0,0-1.1,1.88,7.34,7.34,0,0,0,4.82,6.56c2,.72,3.87,1.75,6.12,1.51a6.53,6.53,0,0,0,2.58-.6"/><path class="cls-1" d="M119.27,61.82a16.43,16.43,0,0,1,5.27-.83,2.43,2.43,0,0,0,2-1.08c.25-.32.8-.6.44-1.06s-.64.14-1,.2c0,0-.13.05-.16,0-1.43-1.06-2.92-.16-4.38-.26-2.37-.17-3.42-1.63-3.15-3.86.06-.54.37-1.1-.28-1.61-.48-.39-.28-.94,0-1.46a6.77,6.77,0,0,0,1-4.57,3.47,3.47,0,0,1,.49-2.11,6.69,6.69,0,0,0,.86-4.54c-.11-.59.35-.73.81-.75,1.19,0,1.61-.76,1.7-1.76.11-1.27.72-1.24,1.57-.57a8,8,0,0,0,4.15,2.13c1.08.11,1.4,1.3,1.63,2.24.19.73.46,1.24,1.32,1s.63-.91.55-1.46c-.4-2.68-2.23-4.59-3.83-6.66a8.37,8.37,0,0,0-5-2.92c-2.31-.56-4.35.59-6.39,1.47-.13.06-.22.22-.34.33-.44.4-.39,1.32-1.33,1.18a8,8,0,0,1-2.38-1.11c-.26-.13-.32-.32-.06-.62a10.59,10.59,0,0,1,7.79-3.6c1.06,0,2.18-.9,3.2.2,1.92-1.19,3.21.41,4.66,1.15A15.12,15.12,0,0,1,131.75,33a14.69,14.69,0,0,1,4.89,10.28,24.82,24.82,0,0,1-1.54,11.24c-2.27,5.56-6.11,8.53-12.45,8.64-1.91,0-3.71.82-5.54,1.25a17.16,17.16,0,0,1-6.47,0,14.15,14.15,0,0,1-9.89-6.15c-1.15-1.59-1.74-2.86-1.48-4.61.09-.6-.27-.89-.68-1.18-.61-.42-1-1.08-.65-1.65.8-1.2-.28-2.65.71-3.93.34-.43-.09-1.67.91-2.27a7.52,7.52,0,0,1,4.64-1.25c.34,0,.85-.08,1,.41s-.23.59-.5.75c-3.63,2.18-2.89,5.66-2,8.69,1.8,6.41,5.65,8.59,12.38,9.26a16.35,16.35,0,0,0,4.25-.62"/><path class="cls-1" d="M105.47,32c-.24-.55-.43-.92-.58-1.3-.08-.2-.18-.57-.12-.61,2.1-1.16.23-3.21,1.07-4.77,1.42-2.62,1.49-5.93,4.53-7.73a4.31,4.31,0,0,1,3-.47c.79.14,1.07,1.29,1.08,2.29.06,3.75-.78,7.38-1.27,11.05a3.12,3.12,0,0,1-3.07,3c-.77,0-1.11.49-.84,1.18.45,1.16.3,1.88-1.42,1.69,1.82,2.44,2.73,5.14,4.86,7.08.58.53.32.84-.33,1a3.54,3.54,0,0,1-2.55-.44,8.61,8.61,0,0,1-3.82-4.06c-.74-1.75-2.43-3-3-5-.13-.46-.44-.88-.55-1.34-.16-.66-.8-1.49-.31-2s1.54-.27,2.34,0l.89.31"/><path class="cls-1" d="M117.18,40.53a16.6,16.6,0,0,1,.12,5.13,6.23,6.23,0,0,1-7.63,4.92c-.36-.11-1,.11-1-.52A1.06,1.06,0,0,1,109.5,49c2.33-.19,2.67-2.23,3.66-3.64,1.18-1.66.75-3.44,0-5.19-.42-1-.33-1.91.86-2.35a2.25,2.25,0,0,1,2.78,1.33c.11.31.17.63.36,1.37"/><path class="cls-1" d="M412.68,142.31c-1.17-2-2.86-2.12-4.55-1.91-3.87.49-7.22-1-10.62-2.35-1.78-.68-2-1.64-1.26-3.41s1.18-2,2.93-1c1,.54,2.32,1.36,3.13.31s-.22-2.25-1.09-3.08c-1.62-1.56-1.6-2.35.21-3.88a15,15,0,0,1,2.24-2c2.31-1.26,4.73-1,7.14-.46.75.18.87.63.6,1.49s-1.56,1.62-.43,2.89c.91,1,1.68,1.24,2.63.34,2.81-2.67,5.81-2.13,8.85-.54,1.65.87,1.72,1.9.33,3.15-.23.2-.47.37-.72.55-.69.5-1.32,1.22-.89,2s1,1.75,2.16,1.61c2.48-.3,4.25,1.22,6.22,2.25a.87.87,0,0,1,.33.3c.9,1.53-.29,2.67-.82,3.88a2.17,2.17,0,0,1-2.4,1.38,5,5,0,0,1-3.47-2c-1.76-2.05-2.07-2-3.59.17s-5.58,2.6-6.93.27m-7.18,15.37c-.92,1.6-2.74,3-.85,5.15.3.34.3,1,.93,1s.9-.6,1.1-1.07c1.11-2.77,3.28-4.76,5.07-7,2.23-2.82,5.38-4.91,6.69-8.46.06-.17.39-.3.62-.36a4.86,4.86,0,0,0,1.95-1.08c1-.89,1.84-1,2.8.07a3.74,3.74,0,0,0,2.33.9c3.13.41,5.17-1.18,6.61-3.68.66-1.16,1.35-2.83.47-3.83-1.43-1.64-2.4-3.82-4.74-4.6-.82-.27-1.14-1-1.34-2.06-.37-1.86-.14-4.32-2.85-4.9-.3-.06-.33-.31-.43-.55a2.25,2.25,0,0,0-2.41-1.38c-.51,0-1,.17-1.36-.34-.81-1.29-1.94-1.25-3.24-1s-2.59.44-3.41-.82c-1.16-1.79-2.77-2.14-4.8-2.41-5.24-.67-8.36,2.42-11.08,6a58,58,0,0,0-3.18,4.9,6.64,6.64,0,0,0-1.07,3.42,6.14,6.14,0,0,0,3.45,5.4c4.33,2,8.78,3.56,13.66,3.31.37,0,.9-.1,1.11.3.53,1,1.54,1.38,2.43,1.91s1,.76.12,1.5c-1.32,1.07-2.45,2.4-3.67,3.57a29.78,29.78,0,0,0-4.29,5.29,7.39,7.39,0,0,0-.62.85"/><path class="cls-1" d="M407,152.78c-2,2.22-3.9,4.52-4.7,7.5a1.08,1.08,0,0,1-.88.73c-.51.09-.66-.3-.86-.67a3.94,3.94,0,0,1-.16-4.3c.87-1.43,1.3-3.14,2.54-4.34a16.21,16.21,0,0,0,2.72-2.77c.2-.31.82-.57,1.06-.27a3.77,3.77,0,0,1,1,2.05,2.74,2.74,0,0,1-.71,2.07"/><path class="cls-1" d="M400.17,154.31c-1.27,1.32-1.1,3.21-2,4.66-.21.34-.24.77-.74.79s-.71-.41-1-.79c-1.54-2.29-.17-4.27.6-6.32.07-.19.19-.36.27-.54.39-.91.59-2.05,1.81-2.16.84-.08,1.08.79,1.38,1.39.53,1.07.66,2.12-.37,3"/><path class="cls-1" d="M409.36,132.23c.2.22.41.5.66.75.63.64,1.12,1.1,2.28.62,2.29-.94,5.43.3,6.82,2.36.44.64.62,1.27,0,1.89s-1,.05-1.51-.3a4.65,4.65,0,0,0-5.95.72,5.86,5.86,0,0,1-1,1.07c-.63.45-1.29.54-1.79-.26s-1.5-1.64-1.22-2.93c.13-.64-.41-.74-.88-.7-1.47.12-2-1.07-2.53-2s0-1.49,1-1.59c1.39-.13,2.77-.4,4.12.37"/><path class="cls-1" d="M252.43,30.73s.27,0,.5,0c.4,0,.77,0,.88.46a.74.74,0,0,1-.35.93,6.59,6.59,0,0,0-2,2.52,2.2,2.2,0,0,0,.2,2.77,2.42,2.42,0,0,1,.2,3.31c-1,1.35-1.94,2.75-1.48,4.61.74,2.92,5.5,6.09,8.4,3.54.49-.44,1.05-.91,1.1-1.51.09-1.11.86-1.27,1.62-1.18,1,.12,2.27-.43,2.89,1,.86,2,1.72,2.28,3.7,1.48a23.35,23.35,0,0,0,3.77-1.66c2-1.25,2.74-3.17,3.39-5.22a7.41,7.41,0,0,0-.72-5.67c-.19-.4-.51-1-.07-1.24,1-.59,1.63-1.57,2.58-2.1a2.82,2.82,0,0,0,1.61-2,3.28,3.28,0,0,1,1.1-2c2.4-1.84,2.63-4.49,2.93-7.15a8.3,8.3,0,0,0-.63-4.09c-.31-.75-.28-1.56-1.72-1.1s-3.51-1.66-3.09-2.75c.34-.88.61-1.78.95-2.66A6.74,6.74,0,0,0,276,3.25c-.61-.51-1.3-.36-1.92-.59-1.83-.65-5.87-.8-7.61.92a2.13,2.13,0,0,0-.8,1.78c0,.43.54.95.1,1.26a7.63,7.63,0,0,1-1.88.76,1.23,1.23,0,0,1-.42,0c-2.66-.18-3.37.51-4.18,3.13a35,35,0,0,0-1,4.83,1.59,1.59,0,0,1-2,1.55,1.69,1.69,0,0,1-1.16-2.17c.67-1.25-.33-2.69.7-3.78s.54-2.33,1.18-3.45c1-1.73,2.09-3,4.32-3,1.22,0,1.05-1.23,1.42-1.87,1-1.74,2.14-2.46,4.07-2a1.83,1.83,0,0,0,1.07-.1,7.52,7.52,0,0,1,6.15.5,4.35,4.35,0,0,0,1.61.34A2.9,2.9,0,0,1,278,2.82c1.48,2.17,3.14,4.23,3.63,6.9a1.93,1.93,0,0,1-.18,1.39c-.39.78-.1,1.86.61,2,1.6.35,1.91,1.6,2.5,2.67,1.76,3.2,1.63,6.59,1.09,10a8.52,8.52,0,0,1-1.48,4.1c-.47.62,0,.9.49,1.1A3.75,3.75,0,0,1,286.67,33c.42.87,0,1.1-.75,1a6.38,6.38,0,0,1-3-1.12c-.57-.4-1.1-.64-1.28.33-.07.35-.36.5-.62.69-.54.39-.5.56.19.88a66.41,66.41,0,0,1,10.14,6.33,6.71,6.71,0,0,1,1.48,1.62c.21.29.64.54.29.91s-.73.07-1-.11c-1.86-1.12-3.78-2.16-5.52-3.44-2.08-1.54-4.58-2.23-6.8-3.48-.53-.3-.75.23-.74.66a2.05,2.05,0,0,0,1.3,1.79c1.51.82,3.29,1.05,4.69,2.11a12.79,12.79,0,0,1,1.13.8c.45.43.75.94.26,1.55s-.92.32-1.46.06c-1.21-.59-2.46-1.11-3.69-1.65-.94-.41-1.63-.3-1.88.81-.36,1.52-1.47,2.68-2.12,4.06a2.89,2.89,0,0,1-1.19,1.1c-1.43.88-2.91,1.73-4.36,2.53a8.3,8.3,0,0,1-6.94.37c-1.14-.42-1.9-.7-2.81.53s-2.64,1.08-3.9.91c-2.66-.37-5.4-.86-7.68-2.39A7,7,0,0,1,247,44.3c0-1.71,0-3.75,1.45-5.19.51-.49.22-.85-.11-1.28a4.82,4.82,0,0,1,2.49-7.28,4.16,4.16,0,0,1,1.57.18"/><path class="cls-1" d="M274.45,11.26a10.91,10.91,0,0,0-5.1,4.69A3.63,3.63,0,0,0,271.3,21a18.34,18.34,0,0,0,2,.73c.59.19,1.07.46.91,1.14s-.67.85-1.45.89c-1.87.09-3.93-.18-5.42,1.22a9.14,9.14,0,0,0-2.69,6.19c-.05.67,0,1.35,0,2,0,.42-.1.9.32,1.12.94.49,1,1.22,1,2.16,0,1.41-.5,1.82-2,1.32-.89-.3-1.71-1-2.69-.08a2.12,2.12,0,0,0-.5.61,15.68,15.68,0,0,1-1.88,3.23,1.91,1.91,0,0,1-2,.57c-.48-.25-.56-1-.39-1.66.44-1.66,1.1-3.24,1.47-4.93a2.42,2.42,0,0,1,1.84-1.5c.46-.13.89-.27.81-.9a12.51,12.51,0,0,1,1.51-7.78c1-1.83,1.95-4.14,4.75-4.36.59-.05.39-.53.13-.81-1.52-1.69-.56-3.59-.54-5.39,0-.64.72-.9,1.09-1.35a25.73,25.73,0,0,1,2.79-3c1.12-1,2.41-.68,4.13.8"/><path class="cls-1" d="M259.38,22.2c-1.83-.12-3.41-1.07-5.18-1.43A28.56,28.56,0,0,1,250,19.5c-2.49-1-5-1.9-7.5-2.84-2.2-.82-4.41-.56-6.61-.76a22.79,22.79,0,0,0-3.2,0c-.6,0-1.07-.15-1.21-.69s.24-1,.83-1.22a15.53,15.53,0,0,1,3.72-.4c4.48-.26,8.57,1.41,12.63,2.88,2.07.75,4.31,1,6.25,1.93s4.32,1.22,6.34,2.21a.7.7,0,0,1,.42.89.91.91,0,0,1-.87.75,10.8,10.8,0,0,1-1.39-.08"/><path class="cls-1" d="M242.07,19.45c3.39.59,6.84.81,10,2.6.79.46,2,.34,3,.71.58.21,1.24.43,1.41,1s.42,1.2,0,1.67-1.13.28-1.7.09c-2.55-.86-5.06-1.85-7.64-2.62a20,20,0,0,0-7.4-1c-1,.08-1.83-.57-2.83-.17a.92.92,0,0,1-.89-1,1.28,1.28,0,0,1,1.17-1.17c1.62-.08,3.23-.07,4.85-.09"/><path class="cls-1" d="M240.7,24.72c2.3.28,4.39.51,6.47.79a13.5,13.5,0,0,1,2.45.51c.48.16,1.55.17,1.19.91s-.46,1.9-1.79,1.72a3.89,3.89,0,0,1-1.06-.3,27.82,27.82,0,0,0-4.85-1.07c-1.34-.3-1.86-1.18-2.41-2.56"/><path class="cls-1" d="M229.67,17.51c-4.28-1.61-7.81-1.94-11.5-1-1.49.37-2.64,1.26-4,1.75a9.23,9.23,0,0,0-4.93,3.3c-.8,1.19-.79,1.3.55,1.8a16.45,16.45,0,0,1,1.75.83c.24.13.52.31.42.63s-.47.36-.81.32a4.63,4.63,0,0,1-2-.67,1.28,1.28,0,0,0-2,.51c-.44,1.1-.91,1.77-2.27,1.61a.81.81,0,0,0-.77,1.07c.25.6.7.13,1,0a2.81,2.81,0,0,1,3.14.21c.57.43.87.93.4,1.63A3.8,3.8,0,0,1,204.36,31c-.26-.08-.54-.32-.76,0s0,.6.22.85c.71.84,2.23.9,3.56.14.76-.43,2.56-.22,2.79.4.37,1-.42,1.55-1.16,2.05-.11.07-.24.2-.36.19-1.7-.16-1.12.94-1.05,1.77a2.91,2.91,0,0,0,.62,1.33c.87,1.39,2.33,2.08,3.58,3a5.39,5.39,0,0,0,4.06,1.1c1.46-.2,3-.18,4.42-.37,1.92-.25,4-.43,5.58-1.4A30,30,0,0,0,231,35.52c2.29-2.27,3.59-5.48,7-6.76.83-.31,1.3-2.5,1-3.33-.27-.68-.74-.83-1.45-.6-2,.63-3.3-.21-4-2.15-.83-2.28-1.67-4.7-3.78-5.17m-.46-1.42c2.24.57,3.75,2.76,6,3.91.59.3.42,1.6,1.41,2,.27.11.5.26.81.36,2.3.73,4.83,2.85,4.28,5.7-.22,1.14-.34,2.74-2.11,3.35a3.9,3.9,0,0,0-2.78,2.38c0,.18-.47.22-.7.37s-.93.47-.94.72c0,2.22-2.14,3-3.26,4.41a10.39,10.39,0,0,1-3.8,2.91c-.72.34-1.59.42-2.19.67-1.34.57-2.69.12-4,.52-1,.32-2.13,1.11-3.25.09a.15.15,0,0,0-.14,0c-1.71,1.35-3.37.19-5.1,0-2.26-.3-3.7-1.83-5.41-2.93A8.19,8.19,0,0,1,204.88,37c-.2-.45-.62-.89-.52-1.37.26-1.35-.67-1.87-1.64-2.37a5.47,5.47,0,0,1-2.64-4.75,1.76,1.76,0,0,1,.6-1.18,1.84,1.84,0,0,0,.65-1c.25-2.15,1.65-3.39,3.47-4.33a1.64,1.64,0,0,0,.65-.5c1.13-1.93,3-3.17,4.69-4.5a7.41,7.41,0,0,1,3.49-1.81c1.31-.18,2.24-1.19,3.61-1.33a19.94,19.94,0,0,1,12,2.25"/><path class="cls-1" d="M218.87,21.82c1.1.56,1.15,1.77,1.67,2.67.21.37-.45.63-.87.6a13.7,13.7,0,0,1-1.9-.32c-.66-.14-1.42-.4-1.41-1.1a3.44,3.44,0,0,1,.7-2c.49-.62,1.18,0,1.81.12"/><path class="cls-1" d="M223.47,18.36c1.45.66,1.88,1.77,1.14,2.66s-1.59.41-2.12-.1a4.41,4.41,0,0,1-1-2c-.21-.79.86-1.07,2-.55"/><path class="cls-1" d="M185.08,27.15c-.63,2-2.11,2.85-4,3.29a2.55,2.55,0,0,0-.94.4,5.25,5.25,0,0,1-3.42.89c-1.69-3.59-1.16-7.16-.42-10.59a37.07,37.07,0,0,0,3.28,2.26c1.58.86,3.24,1.56,4.89,2.27.9.38.89.55.59,1.48m.27,4.62c-3.31,3.24-8.41,4.31-12.87,4-1-.07-.48-2.05.3-2,4.22.29,9-.59,12.18-3.67.87-.85.94,1.12.39,1.66m-17.44-1.46a9,9,0,0,1-.55-1.06,1,1,0,0,1,0-.69c.41-.74.88-1.45,1.51-2.49-.11,1-.2,1.64-.31,2.56,1.65-.83,1.48-2.56,2.5-3.49a41,41,0,0,0,2.8-3.17c.08.69.16,1.06.17,1.44.07,2.17.1,4.35.21,6.52a2.84,2.84,0,0,1-1.73,2.72L172,31.31l-.66.74c-1.17-.56-2-1.84-3.42-1.74M166.46,28a6.43,6.43,0,0,1-2.3-2.36c-.12-.17-.13-.43-.27-.57-1.65-1.63-1.84-2.14-1.6-4.54,1.05-.11,2-.69,3-.24.31.13.84-.29,1.27-.45l.46,1.1.28,0c.1-.29.2-.57.32-.93l5.31.63c-.65,1.65-1.94,2.52-3.14,3.48a24.38,24.38,0,0,0-2.49,2.14,6.79,6.79,0,0,0-.87,1.77m-6.68-3.72a.8.8,0,0,1-1.39-.45c-.76-3.89-.39-7.83,2-11.12.37-.51,1.17-.85,1.54-.15A2.41,2.41,0,0,1,161.5,15c-1.48,2.08-1.45,4.64-1,7.06a2.52,2.52,0,0,1-.75,2.31m1.86,6.54.64-.4c1.52.37,2,1.7,2.76,2.77.14.61.3,1.27.46,2-.68.49-.16,1.17-.24,1.66l-.92.7c1.5,2.55,1,4.37-1.86,6.58l-5.86-5.52c1.14-.14,2.09-.27,3-.35.72,0,1.45,0,2.16-.08a4.61,4.61,0,0,0,1.24-.61c-.48-.59.13-.58.42-.74s.5-.24.92-.44c-1.45-.38-2.55.34-3.71.53a7.45,7.45,0,0,1-3.72.14,1.11,1.11,0,0,0-.93.16,18.58,18.58,0,0,0-1.4,1.61c.44,1.13,2,.75,2.53,1.7-.1.3-.19.56-.29.88l1.44.91c.93-.87.76.43,1.13.64a22,22,0,0,1,2.6,2c-2.06.71-3,2.47-5,2.88-.71.15-1.3.57-2.16,0-.16-2-.33-4.06-.49-6.14-.09-1.25-.09-2.52-.3-3.76a16.27,16.27,0,0,0-1-3.33c-.85-2.17-1.8-4.3-2.7-6.45-.13-.3-.21-.62-.36-1.09l4.61-.51a17.48,17.48,0,0,1,2.32.84,12.72,12.72,0,0,1,.84,1.23,1.83,1.83,0,0,1,.06,1.4c-.49,1.26-1.12,2.46-1.68,3.7-.24.54-.42,1.11-.63,1.67l.31.15c.53-.67.92-1.61,1.61-1.94,1-.47.64-1.57,1.43-2.13.64-.46.9-1.44,1.31-2.17,1-.07,1.52.44,1.37,1.54m4.88-20a3,3,0,0,1,.91-.69.83.83,0,0,1,1.25.33,31.79,31.79,0,0,1,2.75,5.07,25.73,25.73,0,0,0,1.68,3.37,7.26,7.26,0,0,1-5.4-.5,1.78,1.78,0,0,0-1.63-.15c-1,.56-1.94.13-3-.06a8.22,8.22,0,0,1,.87-3.65,40.82,40.82,0,0,1,2.61-3.72m4.21-2.94c2.07-.23,4.12-1.17,6.23-.34a13.7,13.7,0,0,1,2.46,1.21,1.74,1.74,0,0,1,.55,2.73c-1,1.69-2,3.41-3.05,5.12a1.46,1.46,0,0,1-.36.45,3.11,3.11,0,0,0-1.31,2.59c0,.07-.12.14-.47.49-.38-1.34-.66-2.46-1-3.54-.17-.49-.66-.9-.73-1.39-.24-1.57-1.31-2.74-1.91-4.14a1.91,1.91,0,0,1,.38-2.39l-1.09-.15c.14-.28.21-.62.32-.64m12.35,2.52a.65.65,0,0,1,0,.13H183Zm1.78,12.82a37,37,0,0,1-4.26-1.84c-.74-.32-1.34-.93-2.26-.89-.35,0-.73-.38-1.09-.58,1.14-4.3,4.43-6.95,7.15-10A9.13,9.13,0,0,0,180,5.42c-.92-.51-2-.81-2.87-1.34A6.63,6.63,0,0,0,172,3.22c-2.35-.25-6.18-.3-8.53,1.55-3.56,2.81-6,4.33-6.76,7.58s-2.13,6.19-1.68,9.14a3.13,3.13,0,0,0,.47,1.41c-.72-.1-1.45-.2-2.18-.28a6.91,6.91,0,0,0-3,.17,4.75,4.75,0,0,0-2.63,2.5,29.64,29.64,0,0,0,1.08,3c1.43,2.93,2.94,5.82,4.41,8.72.13.25.35.6.27.78-.63,1.39-.14,2.79-.08,4.19a38,38,0,0,0,1.43,8.92,5.13,5.13,0,0,0,.58,1c-.06-1-.09-1.64-.14-2.42a4.6,4.6,0,0,0,3.07-.69,8.09,8.09,0,0,0,2.33-1.59c.1-.11.32-.28.36-.26.59.45.89-.13,1.26-.36,2.27-1.39,3.32-3.78,4.77-5.84a.7.7,0,0,0,0-.14,4,4,0,0,0,.24-1.57,8.89,8.89,0,0,0-.54-3.58c-.82-1.93-1.11-5.79-3.58-7.2a11.82,11.82,0,0,1-2.69-2.13c2.24.83,4.47,1.69,5.83,3.84l.2.35c.42,1.31,1.07,3.35,1.46,4.74a16,16,0,0,0,.23,1.67,5.85,5.85,0,0,1-.42,4,5,5,0,0,0-.48,1.68,6.79,6.79,0,0,1-1.82,3.43A21.33,21.33,0,0,1,161.76,49l-1.91,1.05-.36.08a14.55,14.55,0,0,0-2.91,1c-.1,0-.16.23-.2.36s-.06.23-.08.34c-.23.18-.25.31-.1.39,0,.16-.07.32-.11.49a3.33,3.33,0,0,0,2.17-.6l.05,0,.26-.06a28.71,28.71,0,0,0,3-.81c1.65-.52.82-.58,2.41-1.62a18.89,18.89,0,0,1,2.9-1.5c1.32-.69.91-2.06,1.72-3.47a23.67,23.67,0,0,0,1.38-3l.57-1,1.31-1.8s1.42.34,1.6.36.45.11.93.25l.77-.1a12.88,12.88,0,0,0,1.3-.08c.61-.07,1.17-.16,1.69-.27l.49-.05a2.16,2.16,0,0,0,1.11-.37,10.71,10.71,0,0,0,3.35-1.65,14,14,0,0,0,3.59-2.62A5.88,5.88,0,0,0,188.19,32c.6-1.62,1-3.33,1.44-4.93l-.32-1.57a22.42,22.42,0,0,0-4.45-2.33"/><path class="cls-1" d="M81,46.78c0-2.93.09-5.87.12-8.81,0-.74-.47-1.84.75-1.83,1,0,1.4,1,1.43,1.9,0,1.88,0,3.76,0,5.64a6.06,6.06,0,0,0,.51,2.91c1.41-1.07,1.77-3,3.33-3.81.63-.33,1.18-.82,1.81-1.14.42-.21,1-.41,1.35.13a1,1,0,0,1-.13,1.2,20.51,20.51,0,0,1-3.33,3.87c-.51.46-1.19,1.13-1,1.82.31.94,1.22.34,1.88.33,1.42,0,2.84-.13,4.26-.12.65,0,1.41.2,1.29,1.07s-.82.64-1.38.51a4.39,4.39,0,0,0-2.54.08c-1.23.43-3.29-.1-3.58,1.19S87.09,54.3,88,55.49c.61.8,2.37,1.47,1.44,2.42s-1.83-.66-2.59-1.42-1.41-2.17-2.39-1.75c-.8.33.13,1.68.15,2.58,0,.72.77,1.78-.3,2-.8.21-.88-.91-1.19-1.55-.59-1.2-.37-3.26-1.7-3.5s-2,1.81-3,2.7c-.66.53-.93,2-2,1.41s-.26-1.77.05-2.69a6.19,6.19,0,0,1,1.35-1.91c.3-.36.67-.88.43-1.38s-.89-.24-1.35-.2a4.11,4.11,0,0,1-2.52-.17c-.32-.17-.65-.36-.64-.78s.42-.51.77-.57c1.4-.27,2.8-.51,4.19-.81,1.23-.26,1.68-.84.55-1.87-.15-.14-.3-.31-.45-.46-.6-.59-1.17-1.49-.62-2.07s1.17.42,1.73.77c.34.22.55.71,1.12.49"/><path class="cls-1" d="M363.51,65.24c1.12.15,2.14.77,3.39.64.49,0,.94.09,1,.63s-.41.8-.87.83c-1.35.12-2.71.22-4.07.23-1.11,0-1.64.34-1.15,1.42.65,1.42,1,3,2.21,4.14.36.34.92.67.43,1.24s-1,.2-1.47,0a2.83,2.83,0,0,1-1.36-1.05c-2-2.48-3.55-2.85-6.61-1.59-.6.25-1.18.46-1.64-.09s.12-1,.54-1.4c.79-.77,1.53-1.6,2.38-2.49-1.19-.76-2.51-.57-3.68-.88-.38-.09-.75-.23-.71-.68s.5-.48.87-.48c.6,0,1.2.05,1.81,0,1.65-.08,2.44-.79,1.72-2.37-.5-1.07-.39-1.83,1-2.07s2.61-.82,3.25.85a10.58,10.58,0,0,1,.26,1.27c.1.41.12.91.64,1s.7-.41.93-.76.33-.71.61-.88c.77-.45,1.84-1.29,2.45-.64.87.94-.71,1.06-1.12,1.61-.3.4-.8.7-.76,1.43"/></g></g></svg>