<svg xmlns="http://www.w3.org/2000/svg" xmlns:xlink="http://www.w3.org/1999/xlink" viewBox="0 0 299.24 299.24"><defs><style>.cls-1{fill:none;}.cls-2{clip-path:url(#clip-path);}.cls-3{fill:#fff;stroke:#e83820;stroke-miterlimit:10;}.cls-4{fill:#e83820;}</style><clipPath id="clip-path" transform="translate(-0.38 -0.38)"><rect class="cls-1" width="300" height="300"/></clipPath></defs><g id="레이어_2" data-name="레이어 2"><g id="레이어_1-2" data-name="레이어 1"><g class="cls-2"><path class="cls-3" d="M53.9,36A149.12,149.12,0,1,0,264,53.9,149.12,149.12,0,0,0,53.9,36Z" transform="translate(-0.38 -0.38)"/></g><path class="cls-4" d="M30.53,168.18l1.44,4.3,4-1.34-1.44-4.3Zm-1.22,4.38-.95-2.85-16.59,4.63,1.5,4.48Z" transform="translate(-0.38 -0.38)"/><g class="cls-2"><path class="cls-4" d="M38.76,192.22c.84,2.26-.62,4.39-3.94,5.63s-5.75.58-6.59-1.68.43-4.25,3.47-5.38l1-.37c2.91-1.09,5.26-.37,6.07,1.8m3.32.2a5.5,5.5,0,0,0-5-3.78l2.78-1-1.3-3.5-22.47,8.37,1.38,3.72,9.18-3.42a5,5,0,0,0-.91,5.42c1.44,3.88,5.75,5.31,10.58,3.51s7.16-5.53,5.76-9.28m11.51,23.33-2-3.43L44,216.74c-2.71,1.58-5,1.31-6.18-.69-1.05-1.8-.43-3.31,1.82-4.62l8.52-5-2-3.46-8.86,5.16c-3.83,2.23-4.86,5-3,8.13a5.65,5.65,0,0,0,5.91,2.91l-2.77,1.61,1.89,3.26Zm6.29,8.06-2.44-3.13L44.38,230.82,46.81,234Zm-15.11,12-2.64-3.39-3.27,2.53,2.64,3.4ZM81.6,245.2l-2.78-2.49L67.38,255.46a19.21,19.21,0,0,0-1.63,2l-.1-.09a13.44,13.44,0,0,0,1.22-2.25l7.33-16.58L71.37,236l-15.65,9.11a16.28,16.28,0,0,0-2.1,1.45l-.08-.06a19.82,19.82,0,0,0,1.82-1.84l11.45-12.75-2.9-2.6L48.22,246.79l4.45,4,14.81-8.62a12,12,0,0,0,2.15-1.5l0,.05A11.29,11.29,0,0,0,68.44,243l-7,15.71,4.44,4Zm19.94,13.9c2.2,1,2.66,3.55,1.18,6.77s-3.65,4.46-5.85,3.46-2.7-3.32-1.34-6.27l.44-1c1.3-2.82,3.47-4,5.57-3m2.51-2.2a5.5,5.5,0,0,0-6.22.85l1.24-2.7-3.39-1.56-10,21.78,3.61,1.66,4.09-8.9a5,5,0,0,0,3.18,4.49c3.76,1.73,7.82-.3,10-5s1.17-9-2.46-10.63m16.82,8.92c2.47.62,3.48,2.85,2.56,6.51s-2.85,5.08-5.32,4.46-3.46-2.78-2.54-6.44,2.83-5.15,5.3-4.53m.73-2.92c-4.62-1.16-8.62,1.07-10,6.46s1.14,9.19,5.75,10.35,8.62-1,10-6.4-1.12-9.25-5.74-10.41m19.33,6.24c2.54.22,3.89,2.25,3.58,6s-2,5.48-4.52,5.27-3.87-2.19-3.56-5.94,2-5.55,4.5-5.34m.25-3c-4.75-.39-8.34,2.46-8.8,8s2.61,8.88,7.36,9.28,8.33-2.43,8.79-7.93-2.6-8.95-7.35-9.35m23.45-.67c-3.48.42-5.91,2.38-6.7,5l-.78-3.54-3,.37,1.5,12.54,10.15-1.21-.39-3.25-6.3.75-.06-.42c-.25-2.14.5-6.16,5.23-6.73,4.5-.53,7.17,2.88,7.79,8,.63,5.32-1.37,9.16-5.64,9.67a5.11,5.11,0,0,1-5.89-3.83l-4.12,1.23c.94,3.12,4,6.71,10.34,6,7-.84,10.5-6.35,9.64-13.58s-5.3-11.72-11.74-11m31.26-4.89c2.17-.9,4.31.39,5.53,3.32l.32.77c1.28,3.08.63,5.4-1.57,6.31s-4.33-.42-5.69-3.69-.79-5.8,1.41-6.71m3.63-11.36-3.67,1.52,3.39,8.16a5.36,5.36,0,0,0-5.59-.69c-3.76,1.56-5,5.74-3,10.66s5.79,6.95,9.45,5.43a5.62,5.62,0,0,0,3.64-5.06l1.1,2.66,3.48-1.45ZM215,246.94a5.48,5.48,0,0,0-2.44,5.73l-1.67-2.58-3.17,2,9,13.87,3.36-2.18-5-7.68c-1.52-2.33-1.29-4.65.54-5.84,1.61-1.05,3.17-.48,4.48,1.55l5.46,8.4,3.33-2.16-5.78-8.9c-2.11-3.25-4.75-4.46-8.13-2.26m18.08-14.26L230,236.06l11.68,2.16.68,8.84,3.27-3.55-1-9.72,10.88,10,2.68-2.92-17.65-16.23-2.68,2.92,3.62,3.34.22,3.53Zm14.31-18.32c-2.18,3.28-1.85,6.84.87,9.37L251,221c-1.72-1.58-2.06-3.28-1-4.93,1.41-2.12,3.94-2.22,6.91-.24s3.7,4.29,2.34,6.33c-1.08,1.62-2.81,2-4.83,1l-1.63,3.57c3.42,1.68,6.72.66,9-2.75,2.79-4.19,1.8-8.59-2.69-11.58s-9-2.17-11.71,1.93m12.35-16.9c.72-1.6,2-2.21,3.23-1.64s1.62,1.8,1.07,4l-1,3.64-1-.43c-2.41-1.08-3.31-3.29-2.32-5.52m-2-2.33c-1.09,2.45-.82,4.85.7,6.4a23.51,23.51,0,0,0-2.71-.92l-1.61,3.63a20.34,20.34,0,0,1,4.89,1.63l4.5,2c4.38,2,7.17.8,9.16-3.67,1.74-3.9.87-7.32-2.25-9l-1.66,3.72a2.91,2.91,0,0,1,1.34,4.15c-.86,1.93-2.21,2.38-4.48,1.37l-.39-.18,1-3.38a14.63,14.63,0,0,0,.83-5.53,4.2,4.2,0,0,0-2.59-3.36c-2.69-1.2-5.39.06-6.76,3.14m19.65-14.64-.84,2.86L268.33,181c-3.21-.93-5.58-.25-6.69,3.56a12.76,12.76,0,0,0-.47,2.69l3.21.94a5.85,5.85,0,0,1,.26-1.62c.46-1.58,1.47-2.08,3.18-1.58l7.59,2.21L274.28,191l2.77.8,1.12-3.87,5.53,1.61-.41-4.26-4-1.16.83-2.86Zm-11.83-15.2c-.8,5.94,1.94,9.38,5.94,9.92s6.24-1.77,7.58-5.49l1.18-3.28c.9-2.48,2-3.4,3.92-3.14s2.92,2.13,2.58,4.65a5.52,5.52,0,0,1-5,5.2l1.32,3.61c4-.49,6.28-3.76,6.88-8.18.7-5.25-1.51-8.88-5.54-9.43s-6.26,1.63-7.51,5.2l-1.13,3.15c-.86,2.49-1.84,3.76-4.1,3.46-2.43-.33-3.08-2.69-2.75-5.08a6.18,6.18,0,0,1,5.57-5.66l-1.09-3.82c-3.93.44-7.1,3.39-7.84,8.89m10.88-27-.91-7.65c2.73-.26,4.54,1,4.84,3.45.28,2.34-1,3.85-3.67,4.17Zm-.32,4c5-.6,7.45-3.65,6.89-8.42s-4.29-7.44-9.71-6.8-8.08,4-7.48,9.06a7.38,7.38,0,0,0,5.29,6.63l1-3.19a4.16,4.16,0,0,1-3.21-3.68,4.25,4.25,0,0,1,4-4.91l1.38,11.53Zm-18.62-39,1.68,4.67,17.52-2.1a9,9,0,0,0,1.37-.28l0,.13a8.62,8.62,0,0,0-1.24.65L262,115.8l1.68,4.67,24-2.66-1.46-4.08-17.4,2.44a11.35,11.35,0,0,0-1.56.35l0-.09a9.92,9.92,0,0,0,1.4-.79L283.4,106l-1.45-4-17.59,1.91a9.79,9.79,0,0,0-1.58.28l0-.09a11.92,11.92,0,0,0,1.43-.72l15-9.17L277.7,90Zm-6.34-29.63-4.87-6c2.17-1.68,4.35-1.62,5.93.33s1.24,3.77-.86,5.48ZM253,77.11c3.92-3.19,4.34-7.08,1.31-10.79s-7.61-4-11.84-.55S237.78,73.5,241,77.42a7.36,7.36,0,0,0,8,2.77L248.15,77a4.16,4.16,0,0,1-4.68-1.39c-1.65-2-1.37-4.51.76-6.29l7.34,9ZM225.21,39.46,214.76,52.28l3.08,2.5,6-7.4c1.67-2.06,3.55-2.53,5.09-1.28,1.36,1.11,1.32,2.62-.12,4.39l-6.5,8L225.43,61l6.1-7.49c1.67-2,3.46-2.47,5-1.19,1.41,1.15,1.37,2.61-.16,4.48L230,64.67,233,67.18l6.84-8.39c2.46-3,2.42-6,0-8a5.41,5.41,0,0,0-6.13-.65,4.6,4.6,0,0,0-1.51-5.58,5,5,0,0,0-5.92-.48l1.85-2.28Zm-19.71,8,3.46,2L217.12,35l-3.46-2Zm9.35-16.87,3.74,2.12,2-3.6L216.88,27Zm-3.95-7-17.15-6.89-1.3,3.22,6.6,2.65-7.47,18.57,4,1.59L203,24.14l6.6,2.66ZM157.8,33.7l3.94.48,1.06-8.7c.39-3.19,1.95-4.83,4.32-4.54,2,.24,2.86,1.68,2.56,4.17L168.47,35l4,.48,1.25-10.21c.53-4.37-1.06-6.89-4.61-7.33a5.42,5.42,0,0,0-5.71,2.84l1.27-10.41-3.94-.48Zm-11.9.46c4.3-.18,6.72-2.27,6.58-5.51-.12-2.75-1.54-4.41-5-4.69l-2.79-.28c-1.76-.12-2.55-.75-2.6-1.87-.05-1.29,1-2,2.86-2.08a4.68,4.68,0,0,1,4.55,2.62l2.68-1.61c-.94-2.54-3.68-4-7.25-3.89-4.2.18-6.63,2.24-6.5,5.32.12,2.67,1.78,4.42,5.24,4.7l2.53.23c1.82.15,2.54.68,2.6,2s-1,2.06-3,2.15a4.73,4.73,0,0,1-4.93-3l-2.88,1.45c1.19,3.06,4,4.63,7.84,4.46m-16.73-8.63L121.6,27c-.46-2.71.61-4.61,3.08-5.09,2.31-.46,3.91.68,4.43,3.34Zm4,0c-1-5-4.21-7.16-8.92-6.23s-7.1,4.84-6,10.19,4.63,7.75,9.6,6.78A7.38,7.38,0,0,0,134,30.51l-3.25-.77a4.16,4.16,0,0,1-3.43,3.47,4.25,4.25,0,0,1-5.2-3.63l11.39-2.24ZM107.9,28.31l-1.31-3.78-3.5,1.21,5.39,15.63,3.75-1.29L110,33.54c-.6-1.75-1.06-3.58-.23-5.23a4.71,4.71,0,0,1,2.88-2.22l.5-.17-1.24-3.6a2.12,2.12,0,0,0-.45.12c-2.53.87-3.61,3.13-3.54,5.87M94.66,25.16l-1.56-3-13.53,7L90.4,50l3.78-2L89.47,39l9.25-4.8-1.55-3L87.92,36l-3-5.78Zm-28,43.59,3.22-2.89-.79-5.29a7.53,7.53,0,0,0-.46-1.9l0,0a6.16,6.16,0,0,0,1.81.68l5.18,1.35,3.37-3L68.94,55.31l-1.28-9.65-3.3,3,.88,4.64a7.82,7.82,0,0,0,.48,1.83l0,0a10,10,0,0,0-1.79-.65l-4.6-1.3-3.37,3,9.49,2.2Zm-5.13,6,2.61-3L51.74,60.88l-2.61,3ZM46.93,62.2,49.77,59l-3.11-2.73-2.84,3.24ZM44.47,100l2-3.19-14.59-9a18.55,18.55,0,0,0-2.26-1.24l.07-.12a13.2,13.2,0,0,0,2.42.8l17.62,4.25,2-3.24L39.93,74.46a17.11,17.11,0,0,0-1.8-1.81l0-.08A19.83,19.83,0,0,0,40.31,74L54.9,83l2-3.32L37,67.38l-3.14,5.1,11.12,13a12.19,12.19,0,0,0,1.86,1.84l0,.06a11.42,11.42,0,0,0-2.45-.82l-16.7-4-3.13,5.07ZM28.75,115.37l-1.88,7.48c-2.65-.74-3.91-2.52-3.29-5,.57-2.28,2.28-3.24,4.91-2.58Zm1.72-3.59c-4.91-1.23-8.27.75-9.44,5.4s1.34,8.49,6.63,9.82,9-.87,10.22-5.78a7.36,7.36,0,0,0-2.57-8.08l-2.09,2.61a4.15,4.15,0,0,1,1.68,4.58,4.24,4.24,0,0,1-5.5,3.15l2.83-11.25Zm3.14,43,.16-5-17.06-4.5a11.07,11.07,0,0,0-1.38-.24V145a9.53,9.53,0,0,0,1.4-.16l17.32-3.36.16-5-23.29-6.36-.14,4.33,17.08,4.13a9.93,9.93,0,0,0,1.57.25v.1a8.85,8.85,0,0,0-1.59.22l-17.33,3.56-.14,4.3,17.05,4.7A8.3,8.3,0,0,0,29,152v.11a10.69,10.69,0,0,0-1.6.14l-17.31,3L10,159.63Z" transform="translate(-0.38 -0.38)"/></g><path class="cls-4" d="M255.84,90.83,253.37,87l-3.55,2.31,2.47,3.8Zm.08-4.55,1.64,2.53,14.89-8.65-2.57-4Z" transform="translate(-0.38 -0.38)"/><g class="cls-2"><path class="cls-4" d="M142.34,107.19c.49,2.89.08,3.51-2.57,4a1.05,1.05,0,0,0-.84.85.76.76,0,0,0,.49,1,8,8,0,0,1,3,2.66,4.43,4.43,0,0,1,.55,3.57c-.37,2,1.48,2.75,2.52,3.76,2.09,2,3.68,4.16,3.61,7.19a2.93,2.93,0,0,0,.37,1.52c1.22,2.39.43,7.15-1.47,9.07-.76.76-1.93.55-2.75,1.24-.62.51-1.27.82-.75,1.78s-.65.67-.89,1.13a5,5,0,0,1-4.87,2.87c-2.77-.11-2.65-.19-2.47,2.43a64.45,64.45,0,0,1-.74,12.33,6.52,6.52,0,0,1-.73,1.6,2.28,2.28,0,0,0-.19,2c.52,1.33-.07,2.74-.51,3.94-2.59,7-2.29,14.1-.31,21.16.61,2.18,1.66,4.23,2.48,6.35a4.08,4.08,0,0,1,.3,2.66c-.23.86.69,1.53.8,2.52a7.18,7.18,0,0,1-.09,3.45c.48.18,1.65-1.09,1.23.68a3.29,3.29,0,0,0,1.09,3.6c-1.07.32-1.25-.53-1.89-.68a7,7,0,0,0,.79,1.29c.51.56,1.33,1.39-.23,1.77.53,1.18-.4,2.16-.43,3.28a3.75,3.75,0,0,1-2.69,3.55c-.24.08-.13.21-.15.31-.2,1.46-1,1.68-2.44,2.06-1.84.49-3.61,1.39-5.56,1.39-1,0-2.1,1.08-3-.27a2.54,2.54,0,0,1-1.36.67c-1.6.08-2.75-1.09-4.2-1.4-.13,0-.19-.45-.25-.71s.07-.53,0-.6a11.71,11.71,0,0,1-4.36-6.18c-.08-.31,0-.61-.4-.77s-.7-.31-.49-.69.69.22,1.22-.27c-1.78-.75-1.22-2.78-2.37-4.11-.61-.69-.08-2.46.11-3.72.16-1.07.2-1.21-.82-1.19-.43,0-.46-.24-.46-.48a7.41,7.41,0,0,1,.19-1.92c.23-.81.91-1.73-.5-2.41-.47-.23-.18-1.42.4-1.86s1.07.27,1.52.64c.12-1,.12-1-.84-1.38-.81-.3-1.3-3-.59-3.11,1.12-.16.34-.86.34-1-.11-2.24,1.55-4,1.59-6.29a4.08,4.08,0,0,1,2-3.55,1.22,1.22,0,0,0,.6-1.63.79.79,0,0,1,.45-1.07c.12-.07.46.32.9.64-.57-2.53.83-4.37,1.75-6.35.19-.4.47-.7.06-1.16s-.22-.39.23-.82a.42.42,0,0,0,.12-.3c-.06-2.78,1.59-5.25,1.7-7.89.14-3.41,1.45-6.5,1.89-9.8,0-.37.15-.8-.25-1s-.64.19-1,.35a14.35,14.35,0,0,1-3.6,1.06c-2.51.56-4.13-1.09-6.14-1.75a1.41,1.41,0,0,1-1-1,6.35,6.35,0,0,0-1.2-2.41c-.72-.82-.16-1.62.11-2.42s.42-1-.8-1a4.24,4.24,0,0,1-3.85-1.8,26.35,26.35,0,0,1-2-2.87c-1.25-2.6-.71-5,.68-7.31.72-1.18,1-2.64,2.64-3.22.88-.32.21-.85-.22-1.17a11.45,11.45,0,0,1-4.1-6.83c-.14-.6,0-1.13-.55-1.68a2,2,0,0,1-.1-1.71,26.35,26.35,0,0,1,3.57-7.35c.2-.31.53-.64.33-1-1.27-2.31-1.58-4.94-2.51-7.36-.09-.24-.1-.67-.42-.54-1.16.5-1.43-.55-1.83-1.09-1.39-1.91-2.52-2.42-4.83-1.67s-4.68,1.67-6.31,3.75c-.54.7-1.72.59-2.21,1.51-.31.58-1.56.63-.95,1.72-1.41-.28-1.26,1.57-2.41,1.73-.55.08-.68.92-1.52.86a2.28,2.28,0,0,1-1.92-3.45c.78-1.64,1.1-3.47,2-5A11.14,11.14,0,0,1,85,98.39c.68-.46,1.16-.71,1.33-1.69s1.75-.78,2.2-1.67C89,94,90.08,94,90.92,93.51c1.22-.66,2.69-.45,3.81-1.32a1.73,1.73,0,0,1,1.1-.18c3.12.31,6.28.25,9.37,1,1.06.27,1.92,1,3,1.07.27,0,.55.17.75-.08s0-.49-.13-.73a22.35,22.35,0,0,0-7.53-8.39,6,6,0,0,1-.74-.61c-.69-.61-.55-2-1.52-2.17-3.56-.64-7.15-1.8-10.71,0a8.62,8.62,0,0,0-1.73,1.2,1.16,1.16,0,0,1-1.58.18A1.68,1.68,0,0,1,84.2,82c-.11-1.45.08-2.41,1.71-2.6a.78.78,0,0,0,.46-.38c1.74-3,4.9-3.34,7.81-4.09A3.86,3.86,0,0,0,96.3,74a8.44,8.44,0,0,1,5.6-2.36c2.76-.23,5.48-1.12,8.28-.78a21.38,21.38,0,0,1,4.95.84,38.94,38.94,0,0,1,4.63,1.81c3.22,1.62,6.26,3.38,8,6.73.63,1.19,1.44,1.71,2.91.68,1.31-.92,3-.33,4.27.42a12,12,0,0,1,5.85,9c.16,1-.46,1.76-.71,2.6-.75,2.54-1,5.26-2.43,7.57a3.55,3.55,0,0,0-.29,3.32c.33,1,1.05,1.84,1.18,2.9.09.71-.27,1.67.71,1.94a2,2,0,0,0,2.29-.84,4.64,4.64,0,0,1,.75-.63M131.4,97.12c1.21,0,1.37.86,1.68,1.53s.9.77,1.31,1.2c.17-.19.43-.37.5-.59,1-3.38,2.69-6.61,2.43-10.26-.1-1.44-.18-3-1.39-4.13.12,1.14-.71,2.08-.61,3.06.16,1.62-.08,2.4-2,2.57-2.21.2-4-.7-4.6-2.79a15.53,15.53,0,0,0-3.4-6.42c-.85-.91-1.83-1.68-2.7-2.55a14.27,14.27,0,0,0-6.7-4c.33.29.75.49.87.8.75,2,2.5,3.13,3.89,4.6a15.24,15.24,0,0,1,3.23,4.7c.44,1.14.68,2,2,2.24-2,3.61-3.66,3.92-6.8,1.33a1.75,1.75,0,0,0-.39-.28,12.69,12.69,0,0,1-4.69-4,21,21,0,0,0-11.76-7.28A19.18,19.18,0,0,0,99,76.53c-.57,0-1,.34-1,.87s.73.47,1.05.24c.64-.48,1.08,0,1.62.15,1.43.51,2.11,2,3.41,2.57,2.33,1,3.82,2.86,5.57,4.47s2.17,4.36,4.69,5.3c.18.07.28.45.35.71.39,1.51-1.06,4.43-2.53,4.91a13.8,13.8,0,0,1-8.22.14c-3.62-1-7.16-2.08-11.05-.84-2.89.92-4.69,3-6.69,4.93,0,0,0,.19,0,.36a31.19,31.19,0,0,1,5.57-2.51c1-.33,2-1.13,3-1a37.47,37.47,0,0,1,6.83,1c1.19.36,2.29,1.12,3.38,1.45a4.86,4.86,0,0,1,3.35,2.92c.51,1.36,1.08,2.7,1.55,4.08s.69,2.73-.54,4a4.88,4.88,0,0,0-1.42,2.9,9.13,9.13,0,0,1-.65,3.14,16.39,16.39,0,0,0-1.34,6.87,4.73,4.73,0,0,0,3,4.61c2,1,4,2.33,6.59,1.71a4.45,4.45,0,0,1,2.41-.14c1.37.48,2.52.38,3.34-1.17a3.31,3.31,0,0,1,2.31-1.73,8.87,8.87,0,0,0,2.92-.79c1-.69,1.39-.26,2.18.26.46.3,1.43,2,2.14.22,1.07-2.64,3.23-3.83,5.62-4.9,1.23-.54,2.68-.5,3.71-1.53s1.34-3,.15-3.41c-1.8-.55-3.63-1.32-5.6-.91a13.89,13.89,0,0,0-1.92.71c1.18,1.1,1.46,3.75.17,4.45s-2.34,1.92-4,1.77c-1.9-.18-3.89.15-5.67-.81-.65-.36-.76,0-1,.48a38.86,38.86,0,0,0-1.65,4.61c0,.12-.17.21-.24.29-.6-.14-.36-.94-1-1-.28.39.22,1.26-.71,1.19-.41,0-1-.1-1.19-.37-.42-.56.23-1,.5-1.38s.55-.8.8-1.22a6.94,6.94,0,0,0,.61-5.48c-.49-1.64-2-2-3.54-2a.94.94,0,0,1-.3-.12c-.5-.19-.89-.51-.8-1.07s.65-.49,1.06-.49c2.17,0,3.57,1.35,4.88,2.82a4.2,4.2,0,0,0,1.49,1.19,8.06,8.06,0,0,0,8.72-1.44c1-.81,1-1.78,0-2.73-.39-.4-.94-.59-1.3-1-.83-.84-2.38-1.17-2.24-2.74a2,2,0,0,1,1.65-1.79,1.75,1.75,0,0,1,2.25.7,2.25,2.25,0,0,0,2.47,1.17c.8-.18.78-1.14.83-1.79a13.44,13.44,0,0,0-1.95-8.58,10.37,10.37,0,0,1-1.5-3.67M119.34,204.47a18.6,18.6,0,0,0,1.93,8.83c.45,1,.6,2.27,1.69,3a23,23,0,0,0,3.83,1.8c4,1.77,7.74-1.76,8.83-5.49.48-1.66-1.4-3.55.59-5,0,0-.05-.1-.09-.13-1.59-1-.73-2.8-1.45-4.08a18,18,0,0,1-1.42-3.89c-.56-2-.74-4.32-1.91-5.88-3.14-4.19-2.8-9-3.13-13.7-.17-2.31,1-4.51,1.11-6.85.16-4.5,2.31-8.45,3.5-12.67,1.35-4.82,1.57-9.54-.27-14.29-.7-1.83-1.82-3.53-1.9-5.58,0-.5-.28-.75-.86-.7a3,3,0,0,0-2.7,2.53c-.26,1.5.7,3.15-.55,4.52.76,2.41-.19,5,.81,7.37a5.14,5.14,0,0,1,.14,1.91c.18,4.2-1.84,8-2.28,12.07-.35,3.27-2,6.25-2.35,9.5-.28,2.43-1.33,4.67-1,7.33.19,1.65-.52,3.73-.92,5.56a51,51,0,0,0-1.59,13.8m-7.6-72c-.59,0-1.19,0-1.78,0-.81,0-1.9,0-2.08.89-.3,1.44-1.42,2.46-1.71,3.8-.35,1.62-1,3.2.22,5s2.84,1.77,4.45,2c1.43.2,2.14-1.24,3.13-2,0,0-.51-.73-.69-1.16a.8.8,0,0,0-1-.56c-.4,0-.85-.09-.49-.64.5-.76,0-.74-.48-.61s-.71,0-.66-.53.16-.68.69-.7a5.09,5.09,0,0,1,3.59,2.65c.08.31-.05,1,.49.76.7-.31,1,0,1,.5,0,.79.88,1.78-.18,2.36a1.9,1.9,0,0,0-1,1.66,1.89,1.89,0,0,1-1,1.55c-1.39.78-1.2,2.1-1.23,3.29,0,.43.43,1.52,1.15.3.22-.37.5-.28.84-.26,2.58.18,4.51-1.19,6.14-2.9a3.75,3.75,0,0,0,1.23-2c.08-.65-.4-1.13.28-2,.83-1-1.22,0-1.18-.91,0-.09-.13-.2-.12-.29.13-1.55-.91-2.72-1.47-4a4.14,4.14,0,0,1-.05-3.22c.61-1.81-.2-2.77-2.17-3.06s-4,.11-6,.05m33,7.75a4.36,4.36,0,0,0,2.54-3.43c.19-1.59-.4-3.1-.47-4.65a12.36,12.36,0,0,0-3.48-8.12,2.36,2.36,0,0,0-2.91-.61c-.8.36-1.64,1.49-2.45-.07-.22-.41-.72,0-1,.16a10.57,10.57,0,0,0-4.69,4.5c-.41.75,0,1.32.43,1.86.63.86.86-.08,1.18-.33,1.2-.93,2.38-1.77,3.95-.75.07.05.21,0,.31,0,2.49-.15,4,1.32,5.25,3.18a1.45,1.45,0,0,1,.08,1.91c-.71,1-.53,2.4-2.42,2.71s-3.89-.53-3.9-2.4c-1.78.07-3.31.43-3.32,2.71a15.78,15.78,0,0,0,1.17,6.95c1,2.11,3.18,1.78,4.84.06a14.45,14.45,0,0,0,2-3.3c.18-.32.25-.89.66-.86,1.28.09,1.17-.76,1.13-1.55,0-.36-.3-.89.21-.94a1.15,1.15,0,0,1,1.18.62,2.57,2.57,0,0,1-.29,2.37m-14.14-6.87c-.6-.81-.45-2.27-1.5-3-2.3-1.65-2.76-1.58-5,.17-.3.23-.69.32-1,.54a1.87,1.87,0,0,0-.47.6c1.23,1.24-.18,2-.5,3a1.61,1.61,0,0,0,.25,1.69c.48.5.87,0,1.26-.23a.89.89,0,0,1,1.19,0c1.56,1.32,3.1.4,4.55-.15.89-.34,1.27-1.29,1.24-2.53" transform="translate(-0.38 -0.38)"/><path class="cls-4" d="M111.89,109.75c.73-.08,1.4.15,2-.38s1.28,0,1.82.5c1.57,1.39,3.32,2,5.35,1a2.17,2.17,0,0,0,1.26-1.92c.44-2.63-.36-5-.85-7.46-.18-.93-1.79-1.17-1-2.53,2.06.63,3,2.34,3.57,4.22.49,1.69,1.93,3,1.91,4.88,0,.52,1.19-.23,1.31.9a3.83,3.83,0,0,1-.88,2.67,23.64,23.64,0,0,1-2.31,2.71c-1,1.09-4.06,1.45-5.79.61a30.92,30.92,0,0,1-6.08-4.26.94.94,0,0,1-.35-1" transform="translate(-0.38 -0.38)"/><path class="cls-4" d="M168.49,126.4a3.85,3.85,0,0,0-1.44,2.45c-.06.31-.05.62-.32.82a1.81,1.81,0,0,0-.56,2.31c-.54.05-.44-.5-.78-.55-.46.43-.14.93-.1,1.38.09,1,.12,1-.66,1.78a.69.69,0,0,0-.12.29c-.16,1.3-1.08,2.39-1.26,3.57a16.47,16.47,0,0,1-1.13,3.73,41.34,41.34,0,0,0-1.27,5.22,18.19,18.19,0,0,1-.32,2.62c-.47,1.19,0,2.48-.36,3.56a9.91,9.91,0,0,0-.08,3.11,18.12,18.12,0,0,0,.24,3.31c.06.34.28.63-.1.93-.2.16-.13.33.09.5a1.25,1.25,0,0,1,.36,1.69c-.41.76-.58,1.39.44,1.82.45.18.48.69.44,1.1a13.08,13.08,0,0,0,.57,3.52c.1.59.05,1.26.72,1.7a1.09,1.09,0,0,1,.26,1.17c-.18.43-.63-.24-1,.18,1.34.3,1.48,1.65,2.17,2.53.21.27.27.41.64.43.69,0,1.14.4.8,1.16-.14.33-.13.55.16.7a.56.56,0,0,0,.82-.21c.39-1,1.51-1,2.11-1.71.25-.28.75,0,1.09.12.71.21,1.15-.11,1-.71-.41-1.84.89-2.83,1.92-3.84a19.33,19.33,0,0,1,2.94-1.92,4.78,4.78,0,0,0,.83-.85c.2-.23.06-.94.74-.47.1.08.15-.1.11-.27a4.69,4.69,0,0,1,.38-1.66,7.07,7.07,0,0,0,.24-1.9c0-.68.19-.57.67-.31a3.2,3.2,0,0,1,1.25,1.63c.29.65-.67,1-.3,1.67l-.7.28c.3.39.38,1,1.13.38a1.36,1.36,0,0,1,1.48.39,2.8,2.8,0,0,0,2.44.95,1.47,1.47,0,0,1,1.13.42,10.08,10.08,0,0,1,3,2.82c.29.5.28,1.21,1.08,1.42.47.13,0,.69.08,1.1a16.54,16.54,0,0,1,.82,2.87,6.58,6.58,0,0,1-.43,2.81c-.2.59-.82.15-.75.51a1.19,1.19,0,0,1-.52,1.32c-.59.38-1.18.74-1.75,1.15-.77.56-.91,1.49-1.4,2.21s-.52,1.92-1.72,2.15a.46.46,0,0,0-.31.25c-.38,1.14-1.49,1.16-2.35,1.58-1.45.71-3,.2-4.49.49-.58.12-1,0-.68.91.4,1.1.91,2.35-.31,3.33-.7-1-.14-2.31-.61-3.41a.35.35,0,0,1,.14-.44c.34-.26.32-.62-.08-.77-1.19-.46-1.29-1.66-1.81-2.58-.05-.09-.05-.21-.12-.28-1.4-1.25-.4-2.76-.45-4.16,0-.27.28-.35.56-.34s.7.36.61.58c-.53,1.36.66,2.25.86,3.41a3.32,3.32,0,0,0,4.2,2.61,8.56,8.56,0,0,0,2.32-.52,1.6,1.6,0,0,0,.78-1.11c.13-.34-.14-.28-.19-.27s-.11.52-.37.25a.68.68,0,0,1,0-.79,8.74,8.74,0,0,0,1-1.55c.25-.57.59.28,1,0-.55-.36-.48-.88-.46-1.46a8.17,8.17,0,0,0-1-3.2,4.13,4.13,0,0,0-.63-1.07c-.35-.41-.26-.56.23-.67s.82-.24.48-.84-.29-1,.53-1.14c.35-.05.65-.38,1-.6.39,1.06,1.31,1.94.88,3.31-.12.4.45,1,.73,1.52a.3.3,0,0,0,.46.07,6.16,6.16,0,0,1,1.5-.9c.59-.32.63-.82.47-1.45a11.88,11.88,0,0,0-1-3.36,13,13,0,0,0-3-3.75c-.34-.28-.73-.14-1.08-.21-.56-.12-1.21.12-1.74,0-1.66-.5-2.43.57-3.21,1.66-.18.24-.15.7-.55.67s0-.62-.51-.76c-.14.63-.72.86-1.18,1.22-.18.13-.36.29-.18.5s.35,0,.5-.15c.78-.63,1.62-.16,2.43-.1s1.35.7,2.14.75a.26.26,0,0,1,.18.06,2.52,2.52,0,0,1,0,2.18,1.11,1.11,0,0,1-1.13.84c-.42,0-.54-.23-.58-.58s-.11-.74-.16-1.09c-.51.12-.91.37-1.41,0-.29-.23-.12.45-.62.47-1.57,0-2,1.22-2.33,2.84-.09.48,0,.77.61.54a.41.41,0,0,1,.55.17.54.54,0,0,1-.14.58c-.45.54-1,.93-1.72.58s-1.45-.72-1.2-1.8c.34-1.52.13-1.88-1.09-2.49-.3-.15-.49-.22-.71,0-.4.48-1.19.08-1.59.78-.18.32-.2-.41-.48-.44a1.63,1.63,0,0,1-1.34,1.31c-.69.14-.35.82-.25,1.07a1.19,1.19,0,0,1,0,1c-.9,2.25,0,4,2.3,4.81.8.3,1.73.07,2.44.71.32.28.52.57.19.85a4.43,4.43,0,0,0-1.1,2.38c-.21.73-.23,1.88-.68,2.08-.77.34-1.18,1.08-1.92,1.36-.49.19-1,.21-1.14.95-.12.46-1,.58-1.59.81a8.61,8.61,0,0,1-4.26.57,4.43,4.43,0,0,1-3.33-2.07c-.52-.91-1.07-1.8-1.5-2.75-.24-.54,0-1.2,0-1.75.07-1.59-1-2.35-1.88-3.2a8.1,8.1,0,0,1-2.44-5.41,2.81,2.81,0,0,1,.54-2,2.85,2.85,0,0,0,.58-1.8c0-1.23.44-1.66,1.64-1.5a4.82,4.82,0,0,0,3.91-.81c.36-.29.86.08,1.28.17,0-.09.1-.18.07-.21a3.88,3.88,0,0,1-.81-2.58c0-1.61-1.13-2.94-1.31-4.54,0-.41-.26-.68,0-1.18s-.55-1.19-.6-1.89c0-.22-.24-.43-.27-.66-.07-.48-1.13-1,0-1.46-.3-.62,0-1.37-.24-1.92-.74-1.52-.37-3.15-.71-4.7a9.36,9.36,0,0,1,.21-4,10.81,10.81,0,0,0,0-4,5,5,0,0,1,.39-2.85,2.15,2.15,0,0,0,.3-2,.67.67,0,0,1,.21-.77,1.25,1.25,0,0,0,.52-1.63.37.37,0,0,1,0-.29c1.57-.53,1.13-2.1,1.52-3.17.52-1.4,1.15-2.73,1.74-4.09s1-2.46,1.47-3.71a3.61,3.61,0,0,1,.42-.94c.95-1.29,1.3-2.88,2.05-4.26.44-.82,1.22-1.35,1.65-2.2.7-1.35,1.87-2.43,2.44-3.88.39-1,1.44-1.57,1.64-2.67.41.25.51-.38.71-.31s.37,0,.43-.25c.37-1.54,1.5-2.53,2.55-3.58a17.35,17.35,0,0,0,1.37-2c1-1.34,2-2.62,3-4,.42-.62,1.13-1.09,1.26-2,.09-.67,1.07-.74,1.47-1.43a10.65,10.65,0,0,1,.88-1.21,3.75,3.75,0,0,1,2.67-1.48c.42,0,.36-.56.28-.7a.74.74,0,0,1,.32-1c1-.25,1.38-1.53,2.54-1.37a.29.29,0,0,1,.1,0c.11-1.37,1.71-.66,2.22-1.59a2.21,2.21,0,0,1,2-1c.33,0,.14-.22.21-.32.23-.32.27-1,1-.49.14.11.28,0,.35-.11.68-1.34,2.08-1.65,3.26-2.26a1.52,1.52,0,0,0,.45-.26,14.42,14.42,0,0,1,4.15-2.46,5.93,5.93,0,0,1,2.22-1c.35,0,1-.68,1.5-1.06.35-.27.72-.52.94.15a.9.9,0,0,0,1.06.57c.7-.32,1.66.42,2.17-.55a.39.39,0,0,1,.26,0c.38.92,1.15.56,1.8.57a1.1,1.1,0,0,1,.41.07c2.39.92,4.32,2.66,3.09,5.68-.51,1.26-1.24,2.46-1.13,3.91a.7.7,0,0,1-.28.53,5.89,5.89,0,0,0-1.62,3.56c0,.14-.06.36-.14.39-.87.3-.47,1.07-.63,1.64-.08.3-.08.69-.59.32s-.74.18-.79.39a5.39,5.39,0,0,1-1.28,2.21c-1,1.2-1.35,2.76-2.39,3.94a4.8,4.8,0,0,0-1,2.07,2.2,2.2,0,0,1-1,1.55c-.12.07-.33.1-.35.19-.44,1.63-1.32,3.08-1.77,4.69a3.84,3.84,0,0,1-1.2,1.77c-.56.54-.65.19-.83-.26a2.54,2.54,0,0,0-.59,1.86c.11.94.07,1.64-1.18,1.43-.08,0-.19.06-.27.12s-.06.12-.09.19c.13.37.78,0,.72.33a1.69,1.69,0,0,1-.71,1.19c-.49.29-.36.22-.08.58s0,1-.27,1.4a7.68,7.68,0,0,0-1.35,2.84c-.06.66-.71,1.19-.41,1.94.06.14-.16.29-.35.32-1.21.25-1.56,1.34-2.18,2.19a.47.47,0,0,0-.08.5c.27,1.14-.06,1.49-1.27,1.36,0,.34.12.67.14,1s0,.6-.46.41-.26.24-.22.31c.54,1.08.39,1.29-.92,1.29l-.06,0c0,.84.72,1.58,0,2.52a7.72,7.72,0,0,0-1.24,3.8c-.38-.08-.13-.53-.49-.64a14.06,14.06,0,0,0-.39,1.45c-.1.61-.12,1.1-.92,1.39-.32.11-.4,1.16-.85,1.67-.1.1-.2.27-.32.16s0-.31-.06-.53c-.44.23-.29.8-.68,1,.22.39.54-.23.77.27-.59.69-.29,2-1.36,2.57a1.67,1.67,0,0,1,.13.91c-.2.61-.05,1.34-.86,1.62-.08,0-.19.19-.16.25.44,1-.79,1.45-.85,2.3,0,0,0,.09,0,.09-1,.14-.59.92-.69,1.48a4.22,4.22,0,0,1-1.09,2.62c-.35.32.32.72,0,1.12-.62.86-.56,2-1.27,2.92l-1.39-1.79a.79.79,0,0,1-.08-1.06,10.38,10.38,0,0,0,1-2,3.54,3.54,0,0,0,.79-2.45,4,4,0,0,1,1.24-3.47c.36-.37.17-.86.17-1.29.42,0,.18.46.47.49.28-.72.22-1.61,1-2.07-.47-.62-.07-1.24.08-1.82a19.42,19.42,0,0,1,1.06-3.06c.29-.65.47,0,.66.25a1.61,1.61,0,0,0,.25-1.14c0-.53-.16-1.17.75-.57.33.21.94-.82.64-1.33a1,1,0,0,1,0-1c.07-.19.09-.45.34-.46s.3.23.29.45,0,.37.22.36.34-.1.34-.32a2.81,2.81,0,0,1,1.18-2.23c.41-.33.05-.54,0-.8s0-.38-.29-.34-.4.22-.51.46.41.81-.27.94c-.16,0-.43,0-.4-.19.07-.48-.14-1.17.26-1.38s.61-.46.64-1.08.4,0,.62.09c.5-.66.25-1.6.82-2.24a.43.43,0,0,0,0-.3c-.06-.22-.52-.4,0-.64s.68-.37,1,0c.05.06.18.07.28.11a2.35,2.35,0,0,0-.34-2c-.39-.49.68-1.23,1.68-1-.31-.86.71-1.64,0-2.53-.06-.08.1-.44.25-.53.33-.19.28.46.72.32-.06-1-.18-2,.76-2.72.22-.16.38-.53.65-.29s.22.59-.2.8a1.87,1.87,0,0,0-.56.59.61.61,0,0,0,.15.84c.35.35.48-.08.62-.26a2.12,2.12,0,0,0,.34-2.49c-.56-.89.06-1.64.18-2.47.67.5.75,1,0,1.54l1,.31a1.8,1.8,0,0,0-.37-2.31c-.39-.38.09-1.6.69-1.68s.53-.39.58-.75a1.72,1.72,0,0,1,1.07-1.61l.18-.07c-.5-1.15,1-1.2,1.13-2s.82-.88,1.2-1.37.49-1.26.83-1.73a6.61,6.61,0,0,0,.79-1.6c-.52-.18-.52.45-1.1.48a17.8,17.8,0,0,1,3.08-5.73c.19.53-.07,1.1.45,1.47.49-1.06.57-2.27,1.62-3.11a1.69,1.69,0,0,0,.42-2c-.17-.37,0-.82.24-.77.88.16.51-1.16,1.3-1l.1,0c-.53-.5.15-.87.14-1.27,0-.88.14-1.19,1.12-1.46.06,0,.16-.06.16-.08,0-.91,1-1.17,1.14-2.08a9.49,9.49,0,0,1,1-2.62,11.17,11.17,0,0,0,.6-4.89c0-.84-.44-1.14-1.38-1.07a16,16,0,0,0-5.55,1,29.54,29.54,0,0,0-4.86,2.66,25.68,25.68,0,0,1-5.33,3c-.72.29-1,1.07-1.78,1.47a54.43,54.43,0,0,0-4.57,3.07c-.38.26-.9.45-.65,1.12.07.18-.12.29-.28.38-1.06.56-1.64,1.65-2.57,2.35-.23.18-.36.94-.93.36,0,0-.22.08-.22.13,0,1.2-1.25,1.54-1.72,2.47a8.32,8.32,0,0,1-1.73,1.86c-.51.5-.52,0-.56-.24-.63.79-.72,2-1.89,2.55a.69.69,0,0,0-.4.45,4.67,4.67,0,0,1-2,2.82c-.34.25-.51.78-.76,1.17-.39.59-.44,1.35-1.47,1.12-.25-.06-.28.48-.3.79.34.13.3-.37.57-.33a.46.46,0,0,1-.13.73c-1.44.85-1.57,2.68-2.86,3.72a6.15,6.15,0,0,0-1.21,2.32c-.56,1.29-1.85,2.24-1.82,3.79Zm.15,60.89c-.27-.14-.5-.24-.7-.37-1.24-.82-2.69-1.36-3.68-2.49a1.92,1.92,0,0,0-1.84-.7c-.72,0-1.79,0-2.12-1.12-.11-.35-.41-.42-.7-.56-.8-.38-.94-1.32-.18-1.68a4.79,4.79,0,0,1,3.3-.62c.56.14,1,.4,1.64-.2s.78-.91.42-1.54a1.63,1.63,0,0,0-2-.93c-.58.29-1.26.43-1.5-.27-.31-.93-.88-.71-1.47-.56a4,4,0,0,0-2.57,2c-.34.58-.29,1.36-.78,1.79a2.13,2.13,0,0,0-.5,2.42,6.78,6.78,0,0,0,2.22,3.4,1.64,1.64,0,0,1,.48,1.38c.05,1.26-.41,2.5,0,3.78.8,2.29,2.4,3.41,4.36,2.63a8.74,8.74,0,0,0,4.51-3.57c.53-.89.3-2,1.08-2.75" transform="translate(-0.38 -0.38)"/><path class="cls-4" d="M162.67,227.64c.87-.78,1.15-1.46.71-2.42-.29-.62.26-1.28.56-1.73s.56-.78.43-1.36a1.37,1.37,0,0,1,.18-1.2c.33-.42.09-.88.18-1.26.16-.69-.31-1.58.55-2.1.07,0,.07-.25.07-.38s-.14-.42-.07-.5c1-1,0-2.69,1.33-3.57a1.32,1.32,0,0,0,.16-1.23c-.26-.66.19-.56.56-.58-1.28-.88-1.3-1.52-.22-2.72a.81.81,0,0,0,0-1.1c-.61-.73-.45-1.27.31-1.65a3.43,3.43,0,0,1-.42-4.62c.21-.29.19-.88,0-.91-1.16-.21-.53-1.07-.5-1.53.07-.89.43-1.73,0-2.67-.16-.35.6-.49.74-1,0-.15.44.23.59.43a4.16,4.16,0,0,1,.67,2.47c.07,1.95.6,3.84.65,5.77s.48,3.74.36,5.56a19.71,19.71,0,0,0,.53,5.85,1.77,1.77,0,0,1-.28,1.38c-1,1.13-.41,2.3-.23,3.43a9.59,9.59,0,0,1,0,2.62c-.2,1.71-.68,3.39-.39,5.15.06.41.41,1.15-.49,1.32-.34.06,0,.25,0,.38-.08.49.25,1,0,1.5-.15.26.13.67.37.64,1.23-.15.5.6.45,1a10.15,10.15,0,0,0,.34,5.41,1.52,1.52,0,0,0,1.24,1.12c.36.05.45.62.7,1,0-.64.27-.71.81-.76a5.31,5.31,0,0,0,4.46-3.36c.27-.59.52-.91,1.1-.3,0-.64-.62-1.33.53-1.67.5-.14.46-.94.37-1.51a1,1,0,0,0-.21-.35c-.28-.38-.09-.73.06-1.08,0-.06.17-.15.22-.13.49.19,0,.63.26.93-.05-.26.65,0,.27-.55a1.18,1.18,0,0,1-.09-1.27,1.16,1.16,0,0,1,2.06-.09c.18.32.64,1-.39.92-.24,0-.47.06-.43.31.06.45.32.18.52.09.41-.16.72.14,1.21.21-.6.34-.91.52-.31,1.17s-.29,1.22-.59,1.8c-.86,1.65-2.19,3-3.13,4.6-.58,1-.71,2.25-1.64,3-.73.62-1.34,1.43-2.38,1.58-.13,0-.32.07-.36.16-.74,1.65-2.32,1-3.39.94-.92-.06-2-.46-2.94-.54a25,25,0,0,1-2.86-.31c-.27,0-.66.13-.74-.35a.77.77,0,0,1,.6-.85c2,0,.36-1,.58-1.62-.49.13.13.73-.4.65a.77.77,0,0,1-.64-.84,3.66,3.66,0,0,0-.43-2.2c-.05-.09-.05-.24-.12-.28-1.06-.62-.63-1.68-.64-2.52,0-.53-.64-.93-.28-1.42.57-.77-.16-1.89.74-2.55.17-.13.14-.34-.07-.52-.53-.47-.91-.91-.2-1.64a2.89,2.89,0,0,0,.43-1.32c.11-.75.19-1.25-1-.91" transform="translate(-0.38 -0.38)"/><path class="cls-4" d="M168.49,126.4c1.17-.62,1-2.16,2.08-2.88.16-.11.25-.32.47-.39,1.71-.58,2.93.23,4.13,1.53s.44,1.82-.3,2.63a2.38,2.38,0,0,0-.47.8c-.13.35-.12.73.4.74.73,0,1,.28,1,1,0,.5.75.89.6,1.56-.07.29.14.58-.33.85s-.32,1.05,0,1.41a10.51,10.51,0,0,1,1.24,2.07c.59-1.75,0-3.33-.19-4.93-.19-1.42.36-2.82.24-4.15s1.1-1.8,1.29-3c.24-1.38,3.12-1.77,4.27-.85a6.71,6.71,0,0,0,.93.46c1.11.68,1.27,1.71.27,2.5-.75.58-.94,1.58-1.93,2.1-.12,0,.11-.64-.34-.46-.16.07-.34.13-.34.35s.28.43.52.57a5,5,0,0,1,2.42,4.3c0,.91-.78,1-1.42,1.23-.33.12-1.08-.61-.93.47-.54.06-.89.46-1.33.7a3.26,3.26,0,0,0-1.56,3.16c.06.74.21,1,1,.16a19.53,19.53,0,0,0-.65,2.08,2.22,2.22,0,0,0,.65,2.42c.69.64.68,1.57,1.2,2.26.12.17.14.72-.68.72-1.65,0-2.44-1.28-3.59-2-.4-.26-.28-.84-.4-1.29a4.91,4.91,0,0,0-2.14,1.68c-.11.19-.25.07-.37.08a1.56,1.56,0,0,0-1,.44c-.86,1.33-2.23,1.07-3.44,1.13a5.71,5.71,0,0,1-3.44-1,6.11,6.11,0,0,1-1.87-2.78c-.12-.28,0-.62-.25-.89-.45-.53,0-.85.36-1.06,1.34-.75,1.9-.53,2.82,1.16.26.49.6,1,1,.62.22-.19,1.09-.92.16-1.55a.73.73,0,0,1-.18-1c.42-1,.26-2.06.62-3a6.39,6.39,0,0,1,1-1.39,1.12,1.12,0,0,0,.12-1.51c-.52-.64-.43-1.6-1.19-2.1a.7.7,0,0,1-.2-.47,27.79,27.79,0,0,1-.18-4.56Zm4.88,12.11a3.57,3.57,0,0,1-.06,1.88,1.26,1.26,0,0,0,.14,1.19c.38.51.57-.25.94-.17s.44-.42.59-.6c.47-.6,1.17-1.52,1-2a1.93,1.93,0,0,1,0-1.75c.41-.75.05-1.33-.19-2-.31-.79-.74-1.19-1.57-.6a.29.29,0,0,1-.28-.06c-.42-.8-.64-.14-.88.13a9.2,9.2,0,0,1-.94.82c-1.07,1-.72,2.69-1.86,3.65.29,1.12.08,2.31.46,3.43a1.37,1.37,0,0,0,1.17-1.25,3.14,3.14,0,0,1,1.45-2.72" transform="translate(-0.38 -0.38)"/><path class="cls-4" d="M176.32,201.4l.42-.62c.43.29.4.66.26,1.08-.35,1-.76,2,.46,2.93.68.51.3,1.49.31,2.19,0,1,.75,1.5.84,2.37.06.61.53,1.18.11,1.83a.33.33,0,0,0,0,.29c1.09,1.3.43,3.05,1.2,4.48a2.42,2.42,0,0,1,.09,2.64.41.41,0,0,0,.12.38c1.1.38.8,1.52,1.18,2.28a4.73,4.73,0,0,1,0,2.06c0,.66-.29,1.29.19,2,.27.39,0,1.06.3,1.57.12.19-.08.39-.33.43s-.7-.07-.76-.4c-.11-.66,0-1.31-1.11-1.06-.28.07-.34-.93-.13-1.48,0-.05.4.08.17-.13-1-.89-.64-2.15-1-3.21a8.85,8.85,0,0,1-.42-3.32c0-.72-.74-1.15-.87-1.84.28-.41.7.46.68,0a3.34,3.34,0,0,0-.09-1.5c-.51-1.06-1.36-2-1.18-3.34,0-.24-.39-.3-.57-.58-1-1.55-1.12-3.31-1.42-5-.06-.36-.31-.74-.35-1a5.58,5.58,0,0,1,.33-1.89c.07-.27.45-.5.11-.82.42-.3,1,0,1.38-.29" transform="translate(-0.38 -0.38)"/><path class="cls-4" d="M176.32,201.4c-.41.32-1,0-1.38.29-1.22-.44-1.34-.69-.95-2.08.17-.59.4-1.16.61-1.74.08-.23.21-.53.48-.19s-.1.73,0,1.11c.22.54.56-.49.74.06.28.83.9,1.6.45,2.55" transform="translate(-0.38 -0.38)"/></g></g></g></svg>