<?xml version="1.0" encoding="utf-8"?>
<!-- Generator: Adobe Illustrator 25.0.0, SVG Export Plug-In . SVG Version: 6.00 Build 0)  -->
<svg version="1.1" id="레이어_1" xmlns="http://www.w3.org/2000/svg" xmlns:xlink="http://www.w3.org/1999/xlink" x="0px"
	 y="0px" viewBox="0 0 1874.6 932.7" style="enable-background:new 0 0 1874.6 932.7;" xml:space="preserve">
<style type="text/css">
	.st0{fill:#EEE1CA;}
</style>
<g id="레이어_2_1_">
	<g id="레이어_1-2">
		<path class="st0" d="M122.2,633.4c-13.5,13.7-32,21.3-51.2,21c-19.6,0.1-38.4-8.2-51.6-22.7C0.4,610.8,0,585.2,0,558.8v-34.8h29.6
			c5.5,20.5,16.1,30.6,33.4,30.6c12.7,0,21.1-5.4,21.1-15.1c0-10.1-6.8-15.5-23.7-22.7c-34.2-14.7-56.7-32.3-56.7-74.6
			c0-44,27.9-75.8,68-75.8c20.3,0,38.9,8,50.7,21c13.5,14.7,17.8,28.9,17.8,65.8v35.6h-30.9c-3.8-15.9-12.3-23-26.2-23
			c-11.4,0-17.8,4.6-17.8,13.8c0,12.6,15.7,16.3,33.4,23.5c31.3,13,44.8,38.5,44.8,71.6C143.7,599,135.6,619.6,122.2,633.4"/>
		<path class="st0" d="M229,502.3c-23.7,0-40.6,18-40.6,39.4c0,23.5,17.8,40.6,38.9,40.6s41-17.2,41-39
			C268.3,521.2,250.9,502.3,229,502.3 M261.5,650.2V623H259c-7.2,22.7-21.6,32.7-44.4,32.7c-32.1,0-47.8-21.8-47.8-59.9V483.5
			c0-36.9,17.3-56.6,48.2-56.6c21.6,0,36.8,12.1,44,33.5h2.5v-28.1h26.6v217.9L261.5,650.2z"/>
		<rect x="316.7" y="370.8" class="st0" width="26.6" height="279.4"/>
		<path class="st0" d="M430.4,502.3c-23.7,0-40.6,18-40.6,39.4c0,23.5,17.8,40.6,38.9,40.6s41-17.2,41-39
			C469.7,521.2,452.4,502.3,430.4,502.3 M463,650.2V623h-2.5c-7.2,22.7-21.6,32.7-44.4,32.7c-32.1,0-47.8-21.8-47.8-59.9V483.5
			c0-36.9,17.3-56.6,48.2-56.6c21.6,0,36.8,12.1,44,33.5h2.5v-28.1h26.6v217.9L463,650.2z"/>
		<path class="st0" d="M574.2,502.3c-22,0-39.3,18.8-39.3,41c0,21.8,19.9,39,41,39s38.9-17.2,38.9-40.6
			C614.8,520.3,597.9,502.3,574.2,502.3 M609.7,650.2V623h-2.1c-6.8,22.2-22,32.7-44.8,32.7c-31.3,0-47.8-20.5-47.8-61.2V483.9
			c0-36,16.9-57,47.8-57c21.6,0,38.1,11.7,44.8,33.5h2.1v-89.6h26.6v279.4L609.7,650.2z"/>
		<path class="st0" d="M1277.3,633.4c-13.5,13.7-32,21.3-51.2,21c-19.6,0.1-38.4-8.2-51.6-22.7c-19-21-19.4-46.5-19.4-72.9v-34.8
			h29.6c5.5,20.5,16.1,30.6,33.4,30.6c12.7,0,21.1-5.4,21.1-15.1c0-10.1-6.8-15.5-23.7-22.7c-34.2-14.7-56.7-32.3-56.7-74.6
			c0-44,27.9-75.8,68-75.8c20.3,0,38.9,8,50.7,21c13.5,14.7,17.8,28.9,17.8,65.8v35.6h-30.9c-3.8-15.9-12.3-23-26.2-23
			c-11.3,0-17.8,4.6-17.8,13.8c0,12.6,15.6,16.3,33.4,23.5c31.3,13,44.8,38.5,44.8,71.6C1298.8,599,1290.7,619.6,1277.3,633.4"/>
		<path class="st0" d="M1379.2,501.5c-18.6,0-32.1,11.3-38.1,28.5h75.7C1411.8,511.1,1397.8,501.5,1379.2,501.5 M1420.2,639.7
			c-12.7,12.6-28.8,15.9-41,15.9c-14.7,0.2-28.9-5.2-39.8-15.1c-16.1-13.8-19.4-37.2-19.4-57.8v-85c0-40.6,20.7-70.8,57.5-70.8
			c37.6,0,61.3,23.9,61.3,70.8v52.9h-97.7c3.8,18,18.2,30.2,39.3,30.2c14,0,25-4.2,37.2-14.7h21.1v19.3
			C1438.9,603.8,1436.8,623.4,1420.2,639.7"/>
		<rect x="1464.6" y="370.8" class="st0" width="26.6" height="279.4"/>
		<rect x="1524.4" y="370.8" class="st0" width="26.6" height="279.4"/>
		<path class="st0" d="M1635.2,501.5c-18.6,0-32.1,11.3-38.1,28.5h75.7C1667.8,511.1,1653.8,501.5,1635.2,501.5 M1676.2,639.7
			c-12.7,12.6-28.8,15.9-41,15.9c-14.7,0.2-28.9-5.2-39.8-15.1c-16.1-13.8-19.4-37.2-19.4-57.8v-85c0-40.6,20.7-70.8,57.5-70.8
			c37.6,0,61.3,23.9,61.3,70.8v52.9h-97.7c3.8,18,18.2,30.2,39.3,30.2c14,0,25-4.2,37.2-14.7h21.1v19.3
			C1694.9,603.8,1692.8,623.4,1676.2,639.7"/>
		<path class="st0" d="M1814.5,566.4v-17.6c0-21.8-2.5-29.7-8.9-36.9c-6.2-6.4-14.7-10.1-23.7-10.1c-22.8,0-34.7,15.5-34.7,47.3v101
			h-26.7V432.3h26.7v27.2h2.1c9.3-22.7,23.3-32.7,44.4-32.7c14,0,25,4.6,32.1,11.7c11.3,11.3,15.6,21.8,15.6,48.6v79.2L1814.5,566.4
			z"/>
		<path class="st0" d="M940,272.3c4.4,1.1,5.7-0.8,5.6-4.6c0-2.2,0.3-4.5,0.7-6.7c0.7-4.2-0.9-6.3-5.2-7.2
			c-8.6-1.7-11.7-5.7-12.3-14.6c0-1.2,0.5-2.8-1.6-3.2c-3.9-0.7-7.6,1.9-8.3,5.8c-0.1,0.4-0.1,0.9-0.1,1.3c-0.2,8.1,1.6,16,1,24.2
			c-0.6,8.2,1.1,8.8,9.1,6.8C932.6,273.2,936.5,272.9,940,272.3 M944.6,222.8c0.1-4-2-6.8-4.1-9.7c-4-5.6-5.3-6.1-11.5-3.6
			c-1.8,1-3.9,1.5-6,1.5c-7-0.7-14,1.1-19.9,5c-6.8,4.4-6.3,13.2,0.6,17.5c2.1,1.3,5.5,2.4,6.8,1.2c3.2-3.1,7.3-2.9,10.8-4.3
			c6.7-2.7,13-7.6,21.1-4.1c2.8,1.2,1.7-2,2.1-3.2 M926.4,156.5c3.6-0.5,6.8-2.7,10.6-1.4c3,1,4.6-0.9,4.2-3.7
			c-0.5-2.8,0.3-5.9-0.1-8.6c-2.9-18.1-4.2-36.5-3.9-54.9c0-3.6-1.6-4.4-4.5-3c-4.4,2.2-8.2,4.1-10,9.9c-1.7,5.8-4.4,10.5-3.5,16.7
			c1.5,10.4,3.7,20.7,3.1,31.3c-0.3,5,2.3,6.5,6.7,6.5c2,0,4.3-0.5,5.7,2.4C931.4,152.4,926.7,150.7,926.4,156.5 M920.6,159.6
			c-1.2,1-2.7,0.2-4.3,0c-2.1-0.3-3,0.4-2.9,2.9c0.4,12.3,0.9,24.6,2.4,36.8c0.6,5,3.4,6.8,8.1,5.3c4.3-1.4,8.7-1.5,13-2.2
			c3.8-0.9,7.4-2.5,10.6-4.9c0.8-0.9,1.2-2.2,1-3.4c-0.7-8-1-16.1-0.9-24.1c0.1-2.5-1.3-4.8-3.6-5.8
			C936.8,160.1,928.6,161.1,920.6,159.6 M881.7,292.4c-6.9-1.1-13.8,2.7-21.1,4.3c-12.3,2.6-23.7,8.3-33.1,16.6
			c-1.7,1.5-2.3,3.4-0.2,4.7c2.8,1.7,5.8,3.1,8.9,4.2c10.7,3.6,21.9,3,33,3.8c1.1,0.1,2.2,0.1,2.7-1.1c0.3-1,0.1-2.1-0.6-2.9
			c-0.8-1.5-2.4-1.2-3.6-1.7c-1.2-0.5-3.1-1.5-2.3-3.4c0.7-1.6,2.3-1.6,4-1.2c5.4,1.3,14.6,10.1,14.9,15.5
			c0.5,10.3,9.2,13.5,17.6,13.1c8.1-0.5,15.4-4.9,23.8-3.7c2.5,0.3,3.5-1.7,2.8-4.3c-2.1-7.8-2.9-16-6.7-23.2
			c-4.2-7.9-8.5-16.2-18.4-18C896.4,293.7,889.5,292.1,881.7,292.4 M989,346.2c-2.2,4.7-6.5,7.5-10.2,10.8c-1.8,1.6-2.8,3.2-2.3,5.4
			c0.9,4,1.2,8.1,0.8,12.2c-0.6,9,7.6,12.2,11.7,18.2c2.3,3.3,7.1,5.2,6.5,10.4c-0.3,2.1-0.5,4.3-3.2,4.6c-2.4,0.3-3.2-1.2-3.8-3.4
			c-1.8-8-8.8-12.3-13.8-18c-1.6-1.9-6-1.3-8.9-3.2c-5.6-3.6-12.5-4.3-18.7-5.6c-14.1-3.1-30.4-9.7-41.7-19.6
			c-2.7-2.3-6.2-2.8-9.1-4.4c-5.4-2.9-11.6-2.1-17-5c-4.9-2.6-11-1.5-16.4-0.5c-7.2,1.3-14.3,3.1-21.4,4.7c-4.2,1-7.6,3.6-10.9,6
			c-9.4,6.7-19.5,12.7-26.2,22.5c-4.9,7.1-12.7,14-11.5,22.5c1.8,12.4-7.4,15.7-13.7,21.8c-3.5,3.4-6.7,7.1-9.7,10.3
			c7,1.3,13.6,2.3,20,3.9c2.4,0.6,4.2,1.6,5.8-0.9c0.6-1.3,2.2-1.8,3.4-1.1c0.1,0,0.1,0.1,0.2,0.1c1.3,0.6,2.6,1.3,1.8,3.1
			c-1.4,3.5,1.4,4.6,3.6,5c5,1,3.5,4.9,2.7,7.1c-1.1,3.2-4.1,0.9-6.3,0.5c-0.6,0-1.1-0.8-1.6-1.2c-0.6-0.4-1.7-0.8-2.3,0.1
			c-0.7,1.3,0.6,1.2,1.3,1.6c2.3,1.5,5.2,3,2.4,6.2c-1.3,1.6-3.4,1.4-5.3,0.4c-0.7-0.4-1.5-1-2.3-0.3c-0.4,1,0.1,1.3,0.8,1.7
			c1.4,0.9,3.6,1.3,2.9,3.6c-0.6,2.1-2.3,2.3-4.2,1.9c-2.3-0.5-2.5,1.1-2.8,2.8c-0.3,2.2-0.7,4.4-1.2,6.6c-0.3,1.5-1.7,2.5-3.3,2.2
			c-0.1,0-0.2-0.1-0.3-0.1c-1.3-0.2-2.2-1.3-2-2.6c0-0.2,0.1-0.5,0.2-0.7c1.1-2.3-0.5-4.4,0-6.6c0.3-1.4,0.1-2.4-1.4-2.8
			c-1.5-0.5-2.4,0.6-3,1.6c-1.7,2.8-2.6,6.1-2.7,9.4c0,1.4-0.1,2.9-1.6,3.6c-1,0.3-2.1,0-2.9-0.7c-1.7-1.2-0.9-2.7-0.4-4.2
			c0.7-1.9,1.3-3.9,1.9-5.9c1.2-3.9,0.3-6.6-4.2-7c-1.7-0.1-2.7-0.5-2.7-2.3c0-1.7,1.5-1.5,2.6-2c1.1-0.5,2.4-0.1,3.6,0
			c2,0,4.4,0,4.7-2.2s-1.8-3.1-3.9-3.2c-1.9-0.2-3.8-0.8-5.4-1.8c-1.3-0.5-2-2-1.5-3.3c0.1-0.2,0.2-0.4,0.3-0.6
			c1.3-1.6,2.6-0.2,3.2,0.9c2.4,3.3,5.8-0.7,8.3,1.2c-0.3-1.9,3.1-1.9,2.1-4.5c-2-4.7-7.3-3.1-10.3-5.8c-1.8-1.6-3.7,0.8-4.5,2.3
			c-7.3,13.2-11.8,33.8-0.7,49.1c4.2,5.9,10.4,8.8,17.7,9.9c2.3,0.4,2.4-1.5,3.6-2.2s2.2-1.6,3.4-0.8s0.2,2.2-0.2,3.2
			c-1.1,2.5-2.3,5-3.5,7.4l-0.9-0.6c-0.8-2.8-2.3-4.1-5.6-3.6c-5.3,0.7-9.1-1.4-13.2-5.2c-12.2-11.2-13.5-24.6-11.2-39.6
			c2.2-14.3,9.9-25.3,19.9-35.1c1.8-2.2,3.9-4.2,6.2-5.9c4.6-2.9,7.3-7.1,6.1-13c-0.8-4,1.3-7.3,2.8-10.8c3-7.1,8.2-12.7,13.1-18.5
			c6.4-7.6,14.1-14,22.7-18.9c4.1-2.4,7.4-6.5,12.2-8.1c11.2-3.8,22.3-8.2,34.5-8.6c2,0,5.5,1,5.9-1.7c0.4-2.2-1.3-4.9-2.3-7.2
			c-0.6-1-1.8-1.3-2.8-0.8c0,0,0,0,0,0c-7.1,3.8-14.2,0.2-20.9-0.8c-10.2-1.6-20.6-3.8-29.1-10.4c-1.6-1.3-3.4-2.4-4.9-3.9
			c-2-1.9-2.1-3.7,0.5-5.5c11.4-8.3,24.1-14.5,37.6-18.3c10.7-2.8,21.9-6.3,33.4-4.3c2.9,0.7,5.9-0.2,8-2.3
			c4.1-4.5,11.1-3.7,14.9-8.6c0.8-0.9,1.3-2,1.3-3.2c-0.3-9.3-1.2-18.7-2.6-27.9c-7.6,9.9-17.8,10.4-28.2,10.5c-2.3,0-4.6,0-5.9-2.4
			l0.8-0.9c0.5-1.2,1.3-1.6,2.8-1.7c6.7-0.5,11.7-4.3,15.7-9.1c2.7-3.2,1.6-6.7-1.7-9.5c-6-4.9-7-10.8-3.4-17.5
			c2.2-4.1,2.8-9.6,9.3-9.5c0.2,0,0.7-0.9,0.6-1.3c-0.2-0.4-0.6-0.7-1.1-0.7c-10,0.2-9.9-8-12.1-14.2c-3.8-10.6-5.2-22.1-13-31.2
			c-4.6-5.5-9.6-10.1-17.4-10c-7.8,0-13.7,7.7-13.2,16.2c0.1,2.2,0,4.4,0,6.6c0,1.9-1.3,2.2-2.9,2.2c-1.5,0-3.1-0.9-2.6-1.9
			c2.8-6,0-12.8,2.7-18.8c2.1-4.5,6.2-7.7,10.9-8.9c5.4-1.4,12.1-4.9,16.5,2.5c10.1,1.4,12.5,10.9,18,17c3.4,3.8,3,9.6,5.1,14.3
			c2.1,4.7,3.1,10.1,5.4,15c2.1,4.6,7,4.5,10.5,6.7c1.2,0.8,1.6-1.5,1.4-2.6c-2.3-9.9,0.5-19.9-0.9-29.8c-0.3-1.9-0.5-3.7-0.6-5.6
			c0-3.4,0.4-7.2,5.5-7.2c3.1,0,5.2-0.6,2.5-4c-1.4-1.7-1.8-2.6,1-3.5c2.2-0.8,1.5-3.8,0.7-5c-2.4-3.5-1.6-7.3-1.6-11
			c-0.1-4.8-1-9.6-2.6-14.2c-0.7-2.2-1.5-3.2-4.5-2.7c-8.6,1.6-16.1-3.8-20-12c-3-6.5-1.2-12.7-1.6-19.1c-0.1-0.8,0.5-1.5,1.3-1.6
			c0.1,0,0.2,0,0.3,0c0.6,0.3,1,0.8,1.1,1.5c0.2,2.6,0.1,5.2-0.2,7.7c-0.4,4-1.1,8.1,4.9,9.4c3.6,0.8,5.9,4.9,10.4,5
			c7.8,0.2,8.5-6.5,11.4-10.8c3.8-5.5,5.4-12.6,11.9-15.7c11.9-5.7,17.7-17.2,23.4-27.2c5.8-10.2,9.4-23.6,1.5-35.6
			c-3.9-5.9-9.4-9.9-17-9.1c-5.9,0.6-9.2,5.1-12.5,9.3c-4.7,6-8.7,12.5-11.9,19.4c-2.1-1.4-3-3.1-2.3-5c1.6-3.9,3.4-7.8,5.3-11.5
			C919,12.1,924.7,7,930,1.6c1-1,2.5-1.4,3.8-0.8c1.6,0.8,3.5,0.7,5-0.3c0.3-0.2,0.7-0.6,0.9-0.5c4.9,2.4,9.6,5.1,14.2,8.1
			c2.1,1.6,1.6,6,5.9,5.9c0.3,0,0.8,0.8,0.8,1.2c0.7,8.3,5.6,16.1,2.3,24.8c-0.7,2.5-1.1,5.1-1.2,7.6c-1,7.7-4.8,14.8-10.7,19.8
			c-5.9,5.2-9.7,11.2-8.4,20c1.2,7.9,0.3,16.1,0.5,24.2c0.1,5,2.1,9.6,2.9,14.6c1.4,8.8,2.2,17.7,2.3,26.6c0,3-0.7,5.4,3.8,6.9
			c4.5,1.6,3.4,7.9,2.7,11.1c-1.6,6.8,1.4,13,0.5,19.5c-0.2,1.6,0.6,3.8,0,5.1c-2.2,4.2-0.3,4.9,3.4,5.3
			c16.7,2.2,28.9,16.1,30.8,33.1c1.1,10,0.1,19.7,0.1,29.6c0,6.9,1.9,13.8,9.8,17.8c7.2,3.6,11,10.9,12.6,18.9
			c2.6,12.3,1.1,23.6-7.7,33.6c-2.7,3.1-5.3,6.3-8.3,9.2c-1.8,1.9-4.3,3-6.9,2.8c1.9-2.3,4.5-4.5,1.5-7.8c-0.8-0.9,0.5-1.9,1.2-1.5
			c3.4,1.6,3.5-1.6,4.5-3c6.6-9.1,12.2-18.7,10-30.6c-0.5-3-0.3-6.8-2.1-8.8c-5.8-6.8-13.2-11.2-22.7-10.9c-1.6,0-2.9-0.8-2.8-2.3
			c0.1-1.6,0.2-4.2,2.4-4c4.1,0.3,3.2-2.4,3.2-4.4c0.2-20-3.4-39.9-10.6-58.6c-1-2.5-2.6-5.1-5.2-5.4c-6-0.8-12.1-1.1-18.2-1
			c-2.2,0-4.9,1.8-1.6,4.4c2,1.6,2.1,3.6,2.5,5.8c1.9,8.9-1,17.3-2.1,25.9c-0.2,1.5-3,3.8,0.3,4.7c2.3,0.4,4.6-0.7,5.6-2.9
			c1.5-2.6,3-5.1,4.5-7.6c1.1-2,2.6-3.2,4.6-1.5s6.9,1,5.5,6c-1.3,4.6-4.6,8.3-8.9,10.3c-5,2.5-5.6,6-5.1,10.5
			c0.1,1.7,0.1,3.4,0,5.2c-0.2,6.2-3.5,9.9-9.7,10.7c0.3,1.6,2.6,2.9,1.2,4.6c-1.2,1.5-2.4-0.5-3.7-0.8c-12.3-2.7-23.7-0.4-34.6,5.3
			c-1.1,0.6-3.2,0.7-2.9,2.5c0.2,1.4,1.8,1.8,3.1,2.4c4.4,2.3,9.7,4,12.3,8.1c3.1,4.7,6.6,9.1,8.7,14.7c3.5,9.4,7.3,18.9,9.3,28.6
			c1.8,8.6,5.9,16.1,8.5,24.3c1.2,3.7,3.7,4.9,7.5,5.1c3,0.2,6,0.9,8.9,1.8c3.1,0.9,6.2,4.7,8.7,3.3c3.1-1.6-0.7-6,0.7-9.2
			c0.2-0.8,0.1-1.7-0.2-2.5c-0.8-3.6-3.3-8.1-2.1-10.7c1.5-3,6.1-4.7,9.7-6.6c2.6-1.4,4-5.2,8-4.1"/>
		<path class="st0" d="M959.3,531.6c-0.2-12.4-1.4-11.3-6.1-17.1c-5-6.2-6.8-3-9.5,0.8s-8.1,6.2-8.8,11.1
			c-1.9,11.6-0.2,23.4,5.1,33.9c2.9,5.7,5.3,5.7,9.3,0.7C955.8,552.6,959.4,542.2,959.3,531.6 M895.9,643.7c-0.6,2.2,0.9,5-1.6,5.9
			c-2.6,0.9-3.5-1.6-5-3c-1.4-1.4-12-1.4-13.1,0c-2.3,3-3.2,6.2-1.4,10.1c1.8,3.8,4.4,5.1,8.4,4c1.2-0.3,2.4-0.3,3.6,0.1
			c1.1,0.4,2.6,0.3,2.9,1.8c0.2,1.5-1,2.1-2.1,2.6c-1.4,0.7-2.9,1.2-4.2,2.1c-2.1,1.2-2.9,3.7-1.9,5.9c0.5,1.4,1,3.2,2.9,3.4
			c2.6,0.2,3.7-2.1,4.2-3.9c0.8-2.8,3.1-4.5,4.5-6.8c1.8-2.8,3.9-1.3,6-0.6c2.8,1,0.9,2.7,0.6,4.2c-0.3,1.5-0.6,3-0.9,4.5
			c-0.3,1.8,0.4,3.4,2.2,3.4s4-0.4,4.1-2.8c0.2-1.7,0.6-3.4,1.3-5c1-2.7-1.5-7.2,2.5-8.1c4.6-1,5,3.8,6.7,6.6c2.2,3.6,4,3.4,6.7,0.2
			c3.9-4.9,1.4-9.6,0.1-14.3c-0.5-3.1-3.4-5.1-6.5-4.7c-3.8,0.2-6.7-1.8-6.8-5.9c-0.2-5.2,0-10.3-2.4-15.1c-1-2,1.6-5.8-2.5-6.2
			c-2.6-0.3-5.3,0-7.7,1c-2.2,0.9-2.9,1.9-2.2,4.3C896,632.8,894.4,638.6,895.9,643.7 M1085.2,365.4c0.5-1.8,0.5-3.6,0.1-5.4
			c-0.5-2.8-1.5-5.4-4.6-6.1c-1.4-0.4-3.5-1-4.4,0.6c-1.7,2.5-1.7,5.7,0,8.2c1.1,1.4,1.3,3.2,0.7,4.9c-0.4,1-0.3,2.8-1.7,2.9
			c-1-0.1-1.9-0.7-2.5-1.6c-1.3-2.6-4-3.5-5.9-5.4c-3.2-3.2-6.6-2-7.8,2.4c-1.5,5.4,3.1,10.8,9.4,11.2c1.8,0.1,4.1-0.6,4.5,2.2
			c0.3,2.4-1.5,3.1-3.4,3.9c-7.8,3.4-15.3,7.4-22.4,12.1c-2.5,1.6-5.5,3.9-2.6,6.7c2.5,2.4,3.2,8.3,9.6,5.5
			c8.7-3.8,17.5-7.4,25.9-12c2.3-1.2,5.1-1.3,7.5-0.3c3,1,5.1,3.5,8.2,4.2c2.5,0.5,4.6,1.1,6.7-1.1c2.5-2.5,1-4.7,0-7.1
			s-1.5-4.6-5.2-2.9c-2.1,0.5-4.3-0.4-5.4-2.3c-0.8-1.7,1.3-2.6,2.2-3.8c2.1-2.7,3.7-5.9,4.6-9.2c0.7-2.7,2.9-6.2-1.3-7.4
			c-3.6-1.1-3.8,3.5-5.8,5.2c-0.9,0.7,1.5,3.1-1.4,2.9c-2.2,0.1-4.2-1.3-4.9-3.4C1085.2,368.6,1085,367,1085.2,365.4 M1048.4,429.5
			c0-3.6-2.7-5.8-2.2-9c1.4-9.3-4.6-15.9-8.9-23c-0.6-0.9-2.4-2.2-2.8-1c-1.9,5.6-7.3,4.7-11.2,6.7c-10.4,5.4-22.3,7.3-32.4,13.4
			c-5.4,3.2-11.5,4.8-16.8,8.1c-0.9,0.6-2.5,0.8-1.9,2.6c0.5,1.4,1.6,1.6,2.9,1.8c1.3,0.2,3.5-1.2,4.4,0.3c2.4,3.7,7,4.4,9.8,7.7
			c3.2,3.8,6.5,7.4,6.7,12.6c0.1,2.2,1,3.4,3.2,2.4c9.4-4,19.9-5,28.8-10.3c4.3-2.5,8.8-4.5,13.6-6
			C1044.4,434.8,1048.8,433.8,1048.4,429.5 M785.7,508.8c0.7,3,1.5,5.9,2.5,8.9c2,7.6,12.8,10.7,20,7.6c1.7-0.7,2.6-2.5,2.1-4.2
			c-0.4-2.5-1.9-4.4-2.8-6.5c-3.4-8.3-4.1-17-3.8-25.9c0-2.2,0.4-4.5-2.4-5c-2.8-0.5-3.5,1.2-3.9,3.7c-0.3,1.8-1.1,3.9-3.8,3.4
			c-1.1-0.2-1.8,0-1.8,1.1c0.2,4.6-3.6,4.3-7.8,5.8c3-4.3,2.8-9.4,8.8-9.4c1.2,0,1.2-0.7,1.6-1.6c1.4-3.4,2.8-6.6,7.6-6.5
			c1.6,0,3-2.6,3.7-4.5c2.5-8.2,6.1-16,10.8-23.2c3.6-5.2,7-11.1,13.2-13.9c2.7-1.2,3.7-4.6,7.2-4.7c0.9,0,1-1.9,0.8-3.2
			c-1.6-9.2,0.6-18.2,1.6-27.3c0.1-1.1,0.4-2.2,1.5-2.5c1.3-0.3,2.6,0.4,3,1.6c1.8,3.1,3.4,6.4,4.7,9.7c1.3,3,2.8,5.9,4.6,8.6
			c1.4,2.5,3.8,3.5,6.1,1.5c6.3-5.5,14.8-4.8,21.5-7.8c5.7-2.4,12-3.5,18.2-3c5.9,0.2,11.8-2.7,17.7-0.5c5.9,2.2,12.6,2.2,18.8,4
			c3.5,1,6.9,2.4,10.5,3.1c3.8,0.7,5.6,2.5,7.8,5.5c1.1,1.6,5.5,2.9,9.2,1.2c5.7-2.5,9.9-7.5,16-9c4.4-1,8.7-2.6,12.7-4.6
			c6.7-3.6,14.6-3.9,20.8-8.9c3.2-2.6,7.9-3.4,11.9-4.9c3.1-1.1,7-0.9,8.5-4.9c0.2-0.5,1.6-0.7,2.4-0.7c9.7,0.3,16.6-6.6,25-9.6
			c2.1-0.8,1.1-2.2,0.2-3.2c-1.3-1.6-2.8-3.1-4-4.7c-3.7-4.7-4.1-11.6-0.4-15.9c2.8-3.4,7.4-2.3,10.7-1.9c3.8,0.4,3.8-1.5,4.1-3.4
			c0.5-3.4,1.3-4.7,5.5-5.3c8-1.1,11.9,3,14.9,8.5c1.4,2.5,2.6,3.2,5.1,3.1c5.1-0.2,10,5.2,9.4,10.5c-0.3,1.7-0.6,3.3-1.1,5
			c-0.9,3.8-1.7,7.5,2,11.3c4.9,4.9,2.6,16.2-3.1,18.3c-4.9,1.7-10.3,1-14.7-1.8c-3-1.8-5.8-5.5-8.5,0.2c-0.2,0.3-0.5,0.5-0.9,0.5
			c-9.3-1-15.3,6.3-23.1,9c-2.2,0.5-3.6,2.6-3.1,4.8c0.1,0.5,0.3,0.9,0.5,1.3c1.8,4,1,8.4,1.2,12.6c0.2,5.4-5,6.8-8.7,8
			c-12.8,3.9-23.9,11.8-37,15c-1.8,0.5-4,1.1-5.7,1.3c-4.6,0.7-7.1,1.6-5.2,6.8c0.2,0.6-0.7,1.8-1,1.5c-3.8-3.2-2.9,1.2-4,2.3
			c2.4,0.2,3,3.2,5.5,3.3c7.3,0.3,14.1,3.1,21.2,4.6c3.8,0.8,2.8,3.2,1.1,5.4c-4.4,5.9-10.8,9.2-16.7,13c-7.6,4.9-15.3,9.5-23.1,14
			c-2.3,1.2-4.8,2.1-7.3,2.7c-7.7,2-10.3,5.8-9.3,13.7c1.6,12.6,1.6,25.2-5.2,36.5c-3.1,5-5.9,10.2-12.7,12.7
			c-5.3,1.9-7.2-1.5-8.7-3.5c-4.5-6.5-6.5-14.1-8.7-21.7c-2-6.7,1.4-13.2-0.9-20c-5.2,3.1-11,4.7-15.6,8.9c-2.5,2.2-6,2.9-9.2,3.5
			c-8.3,1.6-16.6,3.1-24.9,4.3c-4.4,0.6-5.3,1.9-4.3,6.5c1.5,6.9,1.6,14.1,2.5,21.2c0.8,7.1,0.4,14.6,1.2,21.8
			c0.7,6.1,0.8,12.2,0.4,18.3c-0.3,4,1.5,5.1,5,5.8c10.7,2.3,20.5-1.2,30.6-3.7c1.6-0.4,3.9-1.1,3-3.4c-2.3-5.7-1.3-11.7-1.8-17.4
			c-0.8-9.5-3.6-18.7-3.4-28.4c0.1-6-2.4-12-2.9-18.2c-0.2-2.3-1.9-5.1,2.7-5.7c4.1-0.5,3.2,2.2,4,4.4c3.5,11.3,1.8,23.4,4.4,35
			c2,9.2,2.4,19,4.6,28.4c0.9,3.9-3.4,11.3-7.5,12.1c-3.6,0.6-3.1,2.3-2.7,4.6c0.7,3.6,1.1,7.1,1.4,10.8c0,7,4.2,11,9.9,13.9
			c2.8,1.5,5.2,2.7,3.9,6.6c-0.3,1.3,0.3,2.5,1.5,3.1c3.4,1.7,2.1,4.3,2.1,7.1c-0.1,3.2-1.7,4-4,5.8c-4.9,4-9.2,4.7-14.7,2.7
			c-1.5-0.6-3.2,0.1-3.7,1.6c0,0.1-0.1,0.1-0.1,0.2c-3.5,7.3-7.8,6.9-15.1,3.9c-1.3-0.5-2.4-1.9-3.7-0.5c-4.3,4.9-8.5,0.5-12.4-0.6
			c-3-0.6-5.4-2.9-5.9-6c-0.1-0.8-1.2-1.6-0.5-2.4c5.1-4.6,1.1-7.2-1.9-10.6c-3.3-3.6-4.1-8.8-1.9-13.1c2.5-5.5,8.4-4.9,13.1-5.4
			c6.7-0.9,7.5-1.5,6.2-8c0-0.2-0.2-0.3-0.2-0.5c0.6-7.5-2.3-11.7-10.5-11.1c-1.9,0.1-3.1-1.6-3.4-3.4c-1.9-8.7-2.9-17.6-2.9-26.6
			c-0.1-1.6-0.5-3.3-0.9-4.9c-1.8-10.4-2.8-20.9-2.9-31.4c0-4.2,2-9.8-4.9-11.8c-1.6-0.5-0.6-3.2,0.5-3c4.9,1.4,7.8-2,11.6-3.4
			c4-1.4,8.1-2.2,12.2-2.4c10-0.7,18.4-5.6,27.5-8.7s18.2-7.8,24.4-14.6c5.2-5.6,13.4-9.6,14.9-18.6c0.4-2.4,4.9-2.9,5-6.3
			c1,0.3,2,0.5,2.9,0.9c0.7,0.2,1.2,0.9,1.1,1.6c0,0.2-0.1,0.3-0.2,0.4c-2.8,3.2,0.1,4.4,1.9,6c1,1,2.1,1.8,3,2.9
			c3.2,3.4,6.8,3.9,10.7,0.9c1-0.8,2.2-0.9,3.2-1.6c4.5-3,9.7-4.9,14.4-7.5c4.3-2.4,8.4-5.5,13.3-6.8c1.9-0.5,3.8-2,3.9-3.8
			c0.1-2.1-2.5-2-4-2.4c-5.8-1.8-11.8-2.1-17.8-2.8c-1.2-0.1-2.4,0.4-3.2,1.3c-0.8,0.7-1.3,2.6-2.8,1.8c-1.2-0.9-1.6-2.4-1.1-3.7
			c1-2.6,1.4-6,4.3-7.4c4.9-2.2,5.2-6.3,4.3-10.3c-1.1-4.8-2.8-9.6-5-14c-2.4-5-8.6-5.1-11.3-9.3c-1.4,2.2-4.6,0.7-6.1,2.9
			c-1,1.4-2.5,2.5-3.4,3.9c-1,1.9-3.4,2.8-5.4,1.9c-2-0.7-2.5-1.9-2.3-4.4c0.2-1.8-1.7-4.3-3.4-5.7c-5.1-4.5-10.4-8.9-17.2-10.8
			c-6-1.6-12-3.4-18-4.7c-11.3-2.6-22.7-0.7-33.6,1.4c-4.8,0.8-9.3,2.9-13,6c-1.8,1.6-4,2.8-6.3,3.5c-1.2,0.3-2.2,1-2.9,2.1
			c-0.6,1.3,2.3,4.2-2.2,3.8c-4.5-0.4-8.5,0-10.8-4.6c-1.6-3.2-3.4-6.5-5.3-9.5c-0.7-1.1-1.4-2.8-3.1-2.1c-1.5,0.6-0.7,2.1-0.8,3.2
			c-1,9.1,1,17.8,3.3,26.5c0.4,1.3,1,2.6,0,3.9c-1.4-0.4-2.4-1.4-2.9-2.8c-1.8-5.4-4.9-3.9-7.7-1.2c-5.8,5.4-11.6,10.9-13.9,18.8
			c-0.7,1.8-1.8,3.4-3.1,4.7c-5.7,7.9-5.6,17.1-5.6,26.1c0,2.8,0.3,2.8-1.5,5.5c-2.1-1.2-0.1-4.1-2.1-5.3c-1,0-1.7,0.8-1.8,1.7
			c0,0.2,0,0.5,0.1,0.7c2.2,7.9,2.1,16.4,7.8,23.2c2.5,3,3.3,7.5,8.2,8.4c0.9,0.2,1.6,2,2.2,3.2c0.1,0.6-0.1,1.3-0.5,1.8
			c-0.6,0.3-1.3,0.2-1.9-0.2c-3.8-5.5-9-5.7-14.6-3.7c-6.8,2.5-11.5-1.7-16.7-4.6c-11.3-6.1-8.1-9.5-7.3-18.7L785.7,508.8"/>
		<path class="st0" d="M836.9,506.8c1.4-4.7,5.5-7.2,6.3-11.9c1.2-6.7-1.2-12.2-4.6-17.4c-2.9-4.4-8.1-4.9-13.9-2.1
			c-1.5,0.7-3.1,1.7-4.1,0.2c-0.6-0.9,0.6-2.4,1.3-3.6c3-5.2,8.1-3.1,12.1-3c4.6-0.1,8.6,3,9.7,7.4c1.8,6.5,12,9.6,19.2,6.5
			c2.9-1.2,1.6-3.5,0.6-5.7c-3-6.6,0.5-21.4,6.2-26.9c0.6,3.3,0.2,6.7-1.2,9.7c-2.1,4.9-0.7,10.4,0.4,15.5c0.6,2.2,2.9,3.5,5.2,2.9
			c0.5-0.1,0.9-0.4,1.3-0.6c2.3-1.4,6.9-0.9,5.5-5.9c-0.7-3.4-0.8-6.9-0.5-10.3c-0.1-1.6,1.2-3,2.8-3c0.1,0,0.1,0,0.2,0
			c2.3,0,0.9,2.1,1.3,3.2c0.4,1.1-0.4,2.6,0.2,4c0.8,1.8,1.1,4,3,4.6c2.2,0.6,3.2-1.5,4.3-3.1c1.3-2.1,3.2-3.6,5.6-2
			c2.6,1.9-0.2,3.4-1.2,4.6c-5.2,6.6-12,11.8-19.8,15c-3.7,1.5-7.8,2.3-11.3,4.9c-3,2.1-7.4,1.4-11.1,1c-3-0.3-4.3,0.7-4.6,3.4
			c-0.6,4.9-4.5,8-6.9,11.8C841.5,508.1,838.8,504.9,836.9,506.8"/>
		<path class="st0" d="M877.4,254.2c-5.8,0-10.5-4-14.1-6.9c-7.9-6.5-13.6-15.1-13.6-26.3c0-2.8-1.1-5.4-3.2-7.3
			c-3.5-3-1.6-8.1-2.8-12.2c-1.7-5.7-2.6-11.6-2.9-17.6c-0.3-2.6-0.1-5.1,0.5-7.6c0.3-0.9,0.4-1.6,1.6-1.6c0.8,0,1.5,0.7,1.5,1.5
			c0,0.1,0,0.2,0,0.2c-1.1,6,1.2,11.7,2.5,17.2c1.4,6.2,0.2,12.7,4,18.8c2.6,4.3,3.9,10.2,4.9,15.5c0.9,4.2,2.9,8,5.8,11.1
			c4,5,9.1,8.9,14.9,11.6c0.9,0.5,1.5,1.5,1.6,2.5L877.4,254.2"/>
		<path class="st0" d="M956.6,483.9c5.5-7.7,17.1-12.8,23.8-10.6c2.1,0.7,3.8,3.7,2.8,5.3c-1.1,1.9-4.1,5.1-6.1,3.5
			c-2.6-2-4.1-0.9-5.7,0.1C967,485.1,962,481.3,956.6,483.9"/>
		<path class="st0" d="M882.2,444.9c9.9-0.6,16.8,3.6,20.5,12.8c0.4,0.9,0.6,2,0.4,3c-0.4,2.1-0.3,5.5-2.8,5.3c-2.1-0.2-4-2.8-3.1-6
			c0.9-3.3-3.6-9.2-7.5-10.3c-5-1.4-10.1-3.7-14.7,1.2c-0.7,0.8-2,1.9-3,0.4c-0.7-1.1,0.3-2.1,1.1-2.5
			C876,447.1,878.1,443.5,882.2,444.9"/>
		<path class="st0" d="M892.8,82.9c-3.2-5.7-2.7-11.5,1.9-15c2.7-2.1,2.3-6,5.6-7.3c0.9-0.3,0.5-1.3-0.1-1.7
			c-1.6-1.1-2.3-2.4-0.4-3.6c1.7-1.2,3.7-2.2,5.8-2.7c0.9-0.2,1.8,1.7,0.9,2.8c-4.1,5.1-4.9,11.8-8.4,17.2
			C896.2,75.6,893.5,78.3,892.8,82.9"/>
		<path class="st0" d="M877.7,885.1c-2.2-0.1-4.1,4.6-3.2,6.4c3.3,6.6,8.3,12.2,14.6,16.2c1.4,0.9,2.7,2.8,4.4,0.4
			c2.4-3.2,2.6-6,0.3-7.5c-5.7-3.7-11.2-7.6-14.8-13.6c-0.4-0.6-0.9-1.2-1.3-1.8 M1012.8,868.5c4.3-0.1,8.5-0.7,12.6-1.8
			c2-0.4,2.9-1.2,1.4-3.4c-3.8-5.8-11.6-7.6-17.5-4c-3.2,2.1-5.7,0.9-8.1-0.9c-2.4-1.4-3.3-4.4-2.1-6.9c0.7-1.8,1.4-3.5,1.9-5.4
			c0.4-1.3,0.7-2.8-1.5-2.7c-3.4,0.2-7.9,4.3-8.6,7.9c-0.5,2.6-5.8,6.2-8.2,5.6c-3.6-1-6.8-5.9-6.5-9.7c0.3-4.1,2.7-7.5,4-11.3
			c0.4-1.2,1.4-2.7,0.2-3.5c-1.1-0.7-2.3,0.6-3.3,1.5c-5.7,5.2-9.5,11.7-13.1,18.4c-1.8,3.4-1,5.5,1.9,7.5c4.2,2.9,7.6,6.9,9.9,11.5
			c0.5,1.2,1.8,1.9,3.1,1.6c3.5-0.1,6.9,0.7,10,2.4c3.4,1.5,6.4,3.7,8.7,6.6c2,2.5,4.6,1.9,8.2-0.7c2.6-1.9,0.8-3.2-0.1-4.7
			c-3.1-5.1-1.6-7.9,4.4-8h2.7 M982.2,849l1,0.4c2.1-1.4,2.6-3.7,3.4-5.9c0.9-3,3.3-5.4,6.3-6.2c1.4-0.4,2.5-1.4,3-2.7
			c1.6-2.9,2-6.1,3-9.1c0.7-2,0.4-3.5-2.3-4.1c-4.2-0.9-5-2.8-3.2-6.6c0.6-1.3,1.1-2.6,1.6-4c0.7-2.2,1.6-4.5-0.2-6.4
			c-1.9-2.2-4.9-3.2-7.8-2.6c-4.8,1.1-9.1,3.8-12,7.8c-1,1.3-2.1,2.9-4.1,2.3c-1.9-0.6-3.2-2.4-3.2-4.4c0-0.5,0-1,0-1.4
			c0-1.8-0.9-2.6-2.7-2.6c-1.9-0.2-3.9,0.4-5.4,1.6c-4.5,4.1-7.6,9.5-8.8,15.5c-0.2,1.1,0.1,2.4-1.4,3c-1.5,0.6-2.5-0.4-3.4-1.3
			c-0.9-0.9-2.1-1.9-3.8-1.5c-4,1.1-7,10.3-4.2,13.2c5.4,5.5,11.9,9.9,16.9,15.8c0.9,1,1.6,1.1,2.5-0.3c4.1-6.9,8.1-13.8,13.9-19.5
			c3.1-3.5,8.4-4.2,12.3-1.6c2.9,1.8,3.7,6.7,1.9,10.8c-1.3,3.1-2.2,6.4-3.2,9.5 M927.1,904.1c8.4,1,16.2-2.7,24.1-5.7
			c9.1-3.4,15.3-10.4,20.5-18.3c0.8-1.2,2-2.8,1.2-4.3c-2-3.9-3.5-8.1-7.3-10.9c-3.4-2.6-6.6-5.4-9.7-8.3
			c-8.4-7.7-16.8-15.5-25.9-22.4c-9.1-6.9-17.6-14.6-25.9-22.2c-2.3-2.1-3.6-2.5-5.3-0.4c-4,4.9-7.7,10.1-11.7,15.1
			c-5.2,6.5-6.8,14.5-9.7,21.9c-4.1,10.9-2.8,21.6,2.5,31.9c4.1,8.4,11,15,19.5,18.7C908.2,902.8,917.7,904.4,927.1,904.1
			 M931.7,829.6c2.3-3.6,3.2-7.7,6.7-10.3c1.3-1.2,3.2-1.8,4.9-1.4c2.5,0.6,3.6-0.2,4.5-2.5c1.6-4,4-7.6,7-10.7
			c4.9-5.2,10.1-5.9,16-1.9c1.8,1.2,3.2,1.4,4.8-0.1c7.5-7,16.2-4.8,22.7,0.2c3.6,2.8,5,5.6,3,10.1c-1.2,2.8-2.1,5.7,2,8.1
			c3,1.6,2.7,5.6,2.4,8.8c-0.1,0.7-0.3,1.4-0.6,2.1c-1.2,4-3.2,7.9,1.5,11.3c1.7,1.3,2.2,3.6,1.3,5.5c-0.7,1.5,0.3,2.2,1.8,2.1
			c11.1-0.5,18.4,5.3,23.6,14.4c2.7,4.8,1.2,7.4-4.2,7.7c-2.6,0.3-5.2,0.7-7.7,1.4c-2.2,0.6-4.5,0.7-6.7,0.2
			c-1.3-0.4-4.2-0.5-2.7,2.7c1.5,3.2,3.4,6.4-1,9.2c-3.6,2.4-9.3,3.2-12.8,0.8c-2.6-1.5-4.8-3.5-6.7-5.8c-3-4.2-11.5-3.4-14.3,0.9
			c-6.5,9.9-16.2,17.3-27.4,21.1c-11.7,4-23.2,6.1-35.5,3.2c-3.1-0.7-6.5-0.7-9.6-1.3c-1.2-0.2-1.5,0.4-1.8,1.1
			c-0.7,1.3-1.4,2.7-2.1,4c-2.9,5.6-6.4,6.6-11.6,3c-8.7-5.9-16.7-12.4-21.2-22.3c-0.7-1.5-1.2-2.5,0.5-4c2.1-1.7,2.4-5,5.6-6
			c0.9-0.3,0.1-2.2-0.3-3.2c-5.4-11.9-4.8-23.6-0.2-35.6c2.6-6.7,4.9-13.6,9-19.5c4.1-5.7,8.6-11,13.5-16c1.6-1.7,2.9-3.6,5.8-2.8
			c0.8,0.2,1.7,0.4,2.2,1.1c3,4.9,8,7.7,12.1,11.5c5.1,4.6,10.5,8.9,15.8,13.4"/>
		<path class="st0" d="M903.3,786.7c-4.7-4.1-10.3-6.5-15.8-9c-1.3-0.7-2.8-0.8-4.2-0.4c-1,0.4-2.2,0.5-2.4,1.8
			c-0.3,1.3,0.7,1.8,1.5,2.5C888.5,786.7,896,786.5,903.3,786.7 M890,800c3.6-0.3,6.9-0.4,10.1-0.9c2.5-0.3,4.4-1.6,4.3-4.4
			c0-2.4-2-2.4-4-2.8c-5.2-1.1-10.8-1.6-15.4-4.7c-2.9-2-4.9-3.8-8.6-0.8c-2.8,2.3-3.8,4.7-1.5,7.5C878.9,799,884.6,799.4,890,800
			 M899.3,779.6c0.6-1.9,0-3.8,0.9-5.2c6.6-10.1,10-21.7,16-32.2c1.2-2.1,2.2-2.7,4.3-1.9c2.3,0.9,2.1,2.7,1.4,4.4
			c-4.4,10.6-9,21.2-13.9,31.6c-1.1,2.2-2,4.5-3,6.7c3.8-2.4,5.4-6.5,8.2-9.3c7.6-7.8,13.3-17,18.7-26.4c1.4-2.4,0.5-3.5-1.6-4.3
			c-6.2-2.4-12-5.8-18.2-8.1c-4.2-1.5-8.6-3-12.2-5.9c-3.6-2.9-7.7-1.1-9.1,3.4c-3.9,12.2-6,24.8-8.9,37.2c-0.4,1.8,0.2,3.4,1.9,3.6
			c1.7,0.2,3.9,2.1,5-0.7c2.4-5.8,4.1-11.8,5.1-18c0.9-6,4-11.3,4.1-17.5c0-1,0.8-1.9,1.9-1.9c0.1,0,0.2,0,0.3,0
			c1.3,0.1,2.3,1.1,2.3,2.4c0,0.7-0.1,1.4,0,2.1c0.6,5.1-2.2,9.4-2.9,14.2c-1.1,6.7-3,13.2-3.8,20
			C895.2,777.8,895.8,778.7,899.3,779.6 M876.6,781.3c-1.5-4.2-2.3-8.4,0-12.6c1.1-2,0.6-4.2,0.9-6.3c1.6-10.1,4.2-19.9,7.7-29.5
			c0.7-1.8,1.1-3.6,1.1-5.5c-0.2-3.1,1.7-4.1,4.1-4.4c4.7-0.7,9.4-0.1,13.7,1.9c9.2,4.4,17.8,9.7,26.9,14.3c2.5,1.3,4.7,3.2,6.3,5.6
			c1.3,1.7,1.6,3.4,0.5,4.9c-4.3,5.5-6.9,12-11.3,17.5c-5.4,6.9-11.6,13.1-16.7,20.3c-1.1,1.2-1.3,3-0.6,4.4
			c1.9,3.6,1.1,8.1-1.8,10.8c-2.2,2.2-5.1,1.4-7.5,1.6c-6.9,0.5-14,1.4-20.5-2.3c-3.5-1.8-6.6-4.4-9-7.5
			C866,788,869,781.9,876.6,781.3"/>
		<path class="st0" d="M816.5,915.2c-0.4-0.1-0.8-0.5-1.2-0.4c-11.3,2-22.3,0.1-33.3-2.5c-5.7-1.4-9.7,0.7-13.3,4.9
			c-2,2.3-1.4,3.2,1.2,3.7c7.4,1.6,15,1.9,22.4,0.8C800.6,920.4,808.2,917,816.5,915.2 M855.1,910.7c1.1,1,2.4,1.8,3.9,2
			c3.2,0.3,6,2.1,8.9,3.4c6.3,2.8,11.2,8,18.7,9c8.1,1.2,16,2.4,23.6-1.7c1.3-0.6,2.4-1.6,3.1-2.7c1.4-2.2,1.2-3.2-1.6-3.2
			c-2.7,0-5.4-0.1-8.1-0.4c-9-1.3-18.3-1.5-26.9-4.2C869.8,910.8,863,910.5,855.1,910.7 M778.3,907.1c8,0.3,15.4,2.8,23.1,3.2
			c3.3,0.4,6.6,0.3,9.8-0.4c2.5-0.8,5.2-1,7.8-0.6c3.6,0.6,6.5-1.9,10.1-1.9c10.9,0,21.6-2.4,32.5-2c6.8,0.5,13.5,1.8,20,3.8
			c4.1,1.1,8.4,1.6,12.5,2.4c6.9,1.2,13.8,0.5,20.7,1.6c2.1,0.2,3.9,1.5,4.9,3.4c0.3,0.7,0.7,1.2,1.3,1.6c3,1.8,2.9,3,0,4.9
			c-0.8,0.5-1.9,0.7-2.4,1.4c-4.2,5.1-10.5,6.1-16.2,7.3c-6,1.4-12.3,0.8-17.8-1.9c-3.7-1.9-7.7-3.2-11.5-5
			c-0.9-0.3-1.7-0.9-2.3-1.6c-4.2-5.9-11-6.8-17.3-8c-4.2-0.8-8.6,0.1-13,0.1c-10.5,0-19.7,4.6-29.5,7.2c-13,3.4-25.7,5.1-38.9,2.6
			c-3.3-0.4-6.2-2.2-8.1-4.9c-2.7-3.9,0.8-6.5,2.8-8.4c3.1-3.2,6.9-5.8,11.7-5.1"/>
		<path class="st0" d="M1014.5,767.5c0-4.9-1-5.9-6-6.2c-3.1-0.1-6.2-0.4-9.2-0.9c-1.5-0.4-3.1,0.3-4,1.6c-3.1,4.3-2.7,14,0.8,18.1
			c1.9,2.5,5.1,3.4,8,2.4C1010.9,780.5,1014.4,775.5,1014.5,767.5 M1008.5,751.8c2.4,0,4-1.9,6.3-1.8c1.3,0,2.4,0,3.2,1
			c1,1.4-0.2,2.4-1,3.1c-2.3,2-2.3,3.2,0.3,5.1c3.2,2.5,4,6.3,3.2,10.3c-0.4,3.1-1.4,6.2-2.8,9c-3.9,6.9-17,9.2-22.1,6.7
			c-8.6-4.3-10-13.5-5.7-21.6c1-1.9,2.3-3.6,4-5c2.3-1.9,1.8-3.5,0.2-5.4c-0.8-0.9-2.2-1.7-1.1-3.2c0.9-1.2,2.6-1.5,3.9-0.8
			c0.3,0.1,0.7,0.2,1,0.3c3.2,1.8,4,0.5,3.6-2.6c-0.3-2.3,0-4.5,3-4.6c3-0.1,4.1,1.8,3.9,4.7c-0.1,1.5,0,3,0,4.9"/>
		<path class="st0" d="M917.3,687.8c-7.2-5.4-14.6-6-22-4.7c-2.5,0.4-6.2,1.4-5.6,5.8c0.1,1.2-0.5,2.4-1.4,3.1
			c-2.5,1.2-2.2,3.5-3,5.6c-1.4,3.9-1.3,8.5-5.1,11.6c-2.3,1.8-4.3,3.7-7.5,3.7c-1.1,0-3,0.7-2,1.9c1,1.1,1.6,3,4.1,2.6
			c3.7-0.6,7.5-1.4,11.3-0.4c3.8,1,8.1,1.7,12,3.1c5.3,1.9,13.3-0.2,16.6-4.7c4.6-6.3,9.5-12.2,17-15.4c1.2-0.4,1.9-1.6,1.6-2.9
			c-0.1-1.1-1-2-2.2-2C925.3,694.2,920,692.2,917.3,687.8 M920.7,682.6c0.6,0.5,1.1,1,1.6,1.5c2.8,4.2,7.7,6.7,12.8,6.6
			c3.5,0,3.9,2.6,5,4.6s-0.9,3.1-2.1,4.4c-1.7,1.6-3.7,2.8-5.8,3.7c-3.2,1.8-5.9,4.4-7.8,7.6c-6.5,9.8-16,13.7-27.5,14.2
			c-3,0.1-5.3-1.9-8.1-2.7c-5.9-1.9-12.2-2.5-18.4-1.8c-3.8,0.5-4.1-3-5.6-5c-1.5-2,0.4-3.2,1.9-4.2c1.1-1.1,2.5-1.8,4.1-2.2
			c4.1-0.4,5.3-3.4,6.4-6.7c1.5-4.5,2.3-9.1,4.5-13.4c3.5-6.8,12.2-11.7,20.1-11.4c5.4-0.1,10.8,0.9,15.9,2.9
			C918.7,681.3,919.7,681.9,920.7,682.6"/>
		<path class="st0" d="M895.3,700.2c1.1,1.4,3.2,2.8,1.3,5.2c-1.4,1.7-3.6,2.7-5.2,0.9c-1.3-1.4-4.5-2.4-2.6-5.4
			C890.4,699,893.3,698.7,895.3,700.2"/>
		<path class="st0" d="M909.8,704.7c1.1,1.4,3.2,2.8,1.3,5.2c-1.4,1.7-3.6,2.7-5.2,0.9c-1.3-1.4-4.5-2.4-2.6-5.4
			C904.8,703.5,907.7,703.2,909.8,704.7"/>
		<path class="st0" d="M87,99.2c2.6,0,3.8,1.4,3.8,4.5c0,8.7-9.4,18.7-23.8,20C70.9,111.7,79.4,99.2,87,99.2 M96.1,105.5
			c0-5.4-4.3-7.4-8.1-7.4c-13.7,0-28,25.6-28,40.6c0,8.8,5,12.3,10.6,12.3c8.5,0,12.8-8.3,16.1-15.6l-0.7-0.2
			c-3.8,6.7-8.2,10.7-13.1,10.7c-3.9,0-7.8-2.5-7.8-10.4c0.1-3.5,0.6-7.1,1.6-10.5C84.6,124.2,96,114.4,96.1,105.5 M56.9,77.6
			l-0.3,1.1c5,0,7.3,1,7.3,3.6c-0.3,2.4-1.1,4.7-2.3,6.9L36.8,143l-1-54.8c-0.1-7.3,0.6-9.5,8.6-9.5l0.3-1.1H25.5l-0.3,1.1
			c4.5,0,5,0.7,5.1,9.5l0.2,14.9L9.8,143.4l-1-55.9c-0.1-7.6,0.6-8.9,7.8-8.9l0.3-1.1H0.3L0,78.6c2.8,0,3.1,1,3.2,10.5l1.1,61H8
			l22.5-43.7l0.7,43.7H35l28.8-62.2c3.6-7.8,4.9-9.2,8.4-9.2l0.3-1.1L56.9,77.6z"/>
		<path class="st0" d="M270.4,21.6c-3.4,0-8.5,3.2-19.5,22.3l-2.3-12.3c-1.2-6.5-2.5-10-6.6-10c-5.1,0-8.6,7.7-11.1,14.3l1,0.3
			c3-6.5,5.2-10.4,7.6-10.4s3.2,1.9,4.4,8.3l2.9,15.4c-9.9,16.4-14.3,20.6-15.6,20.8c-0.4-2.6,0.7-5.6,0.7-8.3
			c0-1.1-0.6-1.6-2.2-1.6c-2.9,0-6.3,4.6-6.3,9.1c-0.1,2.2,1.5,4.1,3.7,4.2c0.2,0,0.4,0,0.7,0c3.2,0,8.4-3.2,19.4-22.1l2.3,12.4
			c1.2,6.5,2.4,10,6.6,10c5.1,0,8.6-7.7,11.1-14.3l-1-0.3c-3,6.6-5.2,10.5-7.6,10.5c-2.3,0-3.2-1.9-4.4-8.3l-3-15.5
			c10-16.5,14.5-20.8,15.8-21.1c0.4,2.6-0.7,5.6-0.7,8.4c0,1.1,0.6,1.6,2.2,1.6c2.9,0,6.3-4.5,6.3-9.1c0.1-2.2-1.5-4.1-3.7-4.2
			C270.9,21.6,270.7,21.6,270.4,21.6 M205.1,73.9c5.5,0,9.2-6.5,12.6-14.5l-1.1-0.3c-3.4,7.4-6.3,10.2-9.3,10.2c-3,0-1.9-4-0.3-7.6
			l11-25.1c1.2-2.8,2.8-6.5,2.8-9.5c0-4-2.6-5.4-5-5.4c-5.6,0-9.2,6.5-12.6,14.5l1.1,0.3c3.4-7.4,6.3-10.2,9.3-10.2s1.8,4,0.2,7.6
			l-11,25.1c-1.5,3-2.4,6.2-2.7,9.5C200.1,72.5,202.6,73.9,205.1,73.9 M223,10.1c2.7,0,5-2.3,4.9-5c0-2.7-2.3-5-5-4.9
			c-2.7,0-4.9,2.2-4.9,5c-0.1,2.7,2.1,4.9,4.7,5C222.8,10.1,222.9,10.1,223,10.1 M184.6,1.1l-33.7,65.6l-0.1-65.6h-13l-0.3,1.1
			c6.7,0,7.4,1.9,5.2,7.8l-19,51.1c-3.5,9.6-6.3,10.8-11,10.8l-0.3,1.1h20l0.3-1.1c-9,0-10.8-2.2-7.6-10.8l19.4-52.7l0.6,64.8h3.7
			l34.5-66.7l-8.4,57.7c-1,6.5-4.1,7.7-11,7.7l-0.3,1.1h22.3l0.3-1.1c-6.5,0-6.5-2.1-5.8-7.2l7.7-55.3c0.9-6.5,2.6-7.3,7.9-7.3
			l0.3-1.1L184.6,1.1z"/>
		<path class="st0" d="M300.1,851.9c11.5,0,24.3-26.9,24.3-40.6c0-8.3-3.6-12.3-9.8-12.3c-8.7,0-15.5,11.1-26.4,35.3h-0.9
			c6.6-16,10.4-25.7,12.3-31.3l9.4-27.7h-0.2l-14.6,3.1l-0.2,0.5l3.7-0.2c3.4-0.2,4.3,1.5,2.6,6.5L278,850.3h5.1
			c9.4-25.7,20.7-46.7,29.6-46.7c3.8,0,5.9,3.9,5.9,9.7c0,13.5-10.1,34.8-17.2,37.5c-1.3-3.5,1.8-10.5-3.5-10.5
			c-3,0-4.6,2.5-4.6,5.4C293.3,849.3,295.5,851.8,300.1,851.9 M255.5,851.8c6.3,0,13.9-5.1,13.9-13c0-3.2-1.1-7-3.7-13.7l-2.1-4.9
			c-2.3-5.7-3.4-9.5-3.4-12c0-4.8,3.1-7.8,7.9-8.1c1.7,2.3,2.1,4.8,3.2,6.9c0.7,1.6,1.5,3.1,4,3.1s4.1-2,4.1-4.6c0-4.2-4-6.5-10-6.5
			s-13.9,5.1-13.9,13c0,3.2,1.1,7,3.7,13.7l2.1,4.9c2.3,5.7,3.4,9.5,3.4,12c0.2,4.3-3.1,7.9-7.4,8.1c-0.2,0-0.3,0-0.5,0
			c-1.6-2.3-2.1-4.7-3.2-6.9c-0.8-1.6-1.5-3.1-4.1-3.1c-2.6,0-4,2-4,4.6C245.4,849.6,249.4,851.8,255.5,851.8 M236.9,800.2
			c2.6,0,3.8,1.4,3.8,4.5c0,8.7-9.4,18.7-23.8,20C220.7,812.7,229.3,800.2,236.9,800.2 M245.9,806.5c0-5.4-4.3-7.4-8.1-7.4
			c-13.7,0-28,25.6-28,40.6c0,8.8,5,12.3,10.6,12.3c8.5,0,12.8-8.4,16.1-15.6l-0.7-0.2c-3.8,6.7-8.2,10.7-13.1,10.7
			c-4,0-7.8-2.5-7.8-10.4c0.1-3.5,0.7-7.1,1.7-10.5C234.5,825.2,245.9,815.3,245.9,806.5 M174.5,850.4h5.1
			c8.7-25.4,18.6-44.2,23.3-47.5c1.3,2.4,1.2,4.4,1.8,6c0.6,1.1,1.8,1.7,3,1.6c2.8-0.1,4.9-2.4,4.9-5.1c0,0,0-0.1,0-0.1
			c0-4.6-2.8-6.1-5.7-6.1c-3,0-5.2,1.9-8.1,5.9c-2.6,3.7-8,13.8-14.3,29.4h-0.9c5.9-16.2,9.1-26.4,9.1-30.2c0.2-2.5-1.6-4.8-4.2-5.1
			c-0.2,0-0.5,0-0.7,0c-5.7,0-8.9,6.5-12.1,14.5l1.1,0.2c3.1-7.3,5.9-10,8.2-10c1.7,0,2.6,0.7,2.6,2.5c-0.2,2.2-0.7,4.4-1.5,6.5
			L174.5,850.4z M133.2,778.6l-0.3,1.1c4.2,0,6.8,0.2,6.8,3.5c-0.2,2.2-0.7,4.4-1.4,6.5l-15.2,52.8c-1.7,6-4.1,7-10.3,7l-0.3,1.1
			h27.4l0.3-1.1c-8.2,0-11.2-1.1-11.2-5.1c0.1-1.8,0.5-3.6,1.1-5.4l7-24.7h9.6c6.5,0,10.7,0.6,10.7,6.6c-0.1,2-0.4,3.9-1,5.8h1.1
			l7.1-25.6h-0.8c-2.9,9.5-7.1,12.1-15.8,12.1h-10.6l9.5-33.5h13c11,0,14.7,2.6,14.7,9.8c-0.1,2.5-0.4,4.9-0.9,7.3h0.9l5.3-18.2
			L133.2,778.6z"/>
		<path class="st0" d="M525.2,874.9c2.6,0,3.8,1.4,3.8,4.5c0,8.7-9.4,18.7-23.8,20C509.1,887.4,517.6,874.9,525.2,874.9
			 M534.3,881.2c0-5.4-4.3-7.4-8.1-7.4c-13.7,0-28,25.6-28,40.6c0,8.8,5,12.2,10.6,12.2c8.5,0,12.8-8.3,16.2-15.6l-0.7-0.2
			c-3.8,6.7-8.2,10.7-13.1,10.7c-4,0-7.8-2.5-7.8-10.4c0.1-3.5,0.7-7.1,1.7-10.5C523,899.9,534.4,890,534.3,881.2 M478,926.1
			c5.9,0,9.3-7,12.5-14.8l-1.1-0.3c-4,8.3-6.1,10.5-8.7,10.5c-1.8,0-2.6-1.1-2.6-2.8c0.1-2,0.7-4,1.6-5.8l11-23.1
			c1.3-2.6,3.1-6.8,3.1-10c0.2-3-2-5.7-5.1-5.9c-0.2,0-0.4,0-0.7,0c-7.9,0-15.3,12.5-25.6,35.3h-0.9c6.2-16,9.7-26.2,9.7-30.1
			c0.2-2.7-1.8-5-4.5-5.2c-0.3,0-0.6,0-0.8,0c-7.5,0-12.3,10.3-22.8,35.3h-0.9c6.5-17.8,9.1-26.8,9.1-30.2c0-3.8-2.3-5.1-4.9-5.1
			c-5.7,0-8.9,6.5-12,14.5l1.1,0.2c3.1-7.3,5.7-10,8.5-10c1.7,0,2.3,1.1,2.3,2.5c-0.1,1.8-0.5,3.6-1.2,5.4l-11.8,38.9h5.1
			c9.1-25.8,19.4-46.7,25.7-46.7c1.2-0.2,2.3,0.7,2.4,1.9c0,0.2,0,0.4,0,0.6c-0.3,2.2-0.8,4.4-1.6,6.5l-12.6,37.7h5.1
			c9.5-26.7,21.9-46.7,28.4-46.7c1.3-0.1,2.4,0.8,2.6,2.1c0,0.2,0,0.4,0,0.6c-0.3,2.3-1,4.6-2.1,6.7L476,909.4
			c-1.3,2.8-3.6,8.5-3.6,11.3c-0.2,2.7,1.8,5.2,4.5,5.4c0.3,0,0.6,0,0.9,0 M410.3,926.1c5.6,0,9.2-6.5,12.6-14.5l-1.1-0.3
			c-3.4,7.4-6.3,10.2-9.3,10.2s-1.9-4-0.3-7.6l11-25.1c1.2-2.8,2.8-6.5,2.8-9.5c0-4-2.6-5.4-5-5.4c-5.6,0-9.2,6.5-12.6,14.5l1.1,0.3
			c3.4-7.4,6.3-10.2,9.3-10.2s1.8,4,0.2,7.6l-11,25.1c-1.5,3-2.4,6.2-2.7,9.5C405.3,924.7,407.8,926.1,410.3,926.1 M428.2,862.3
			c2.7,0,4.9-2.3,4.9-5c0-2.7-2.3-4.9-5-4.9c-2.7,0-4.9,2.2-4.9,5c-0.1,2.7,2.1,4.9,4.7,5C428,862.3,428.1,862.3,428.2,862.3
			 M412.2,851.2c-0.6,1.8-1.6,2.1-3.6,2.1h-41.7c-2,0-2.8-0.3-2.3-2.1h-0.6l-7.1,21.3h0.9c6.5-14,10.3-18.2,19-18.2h7.4l-17.2,61.2
			c-2,7.2-4.6,8.6-12.7,8.6l-0.3,1.1H381l0.3-1.1c-6.1,0-9.1-1.4-9.1-5.5c0.1-1.4,0.3-2.9,0.7-4.2l16.6-60h8.2
			c7.4,0,9.7,3.4,9.7,10.2c-0.1,2.7-0.3,5.4-0.7,8.1h0.9l5.2-21.3L412.2,851.2z"/>
		<path class="st0" d="M1242.1,99.2c2.6,0,3.8,1.4,3.8,4.5c0,8.7-9.4,18.7-23.8,20C1226,111.7,1234.6,99.2,1242.1,99.2
			 M1251.2,105.5c0-5.4-4.3-7.4-8.1-7.4c-13.7,0-28,25.6-28,40.6c0,8.8,5,12.3,10.6,12.3c8.5,0,12.8-8.3,16.2-15.6l-0.8-0.2
			c-3.8,6.7-8.2,10.7-13.1,10.7c-3.9,0-7.8-2.5-7.8-10.4c0.1-3.5,0.6-7.1,1.6-10.5C1239.8,124.2,1251.2,114.4,1251.2,105.5
			 M1212.1,77.6l-0.3,1.1c5,0,7.3,1,7.3,3.6c-0.3,2.4-1.1,4.7-2.2,6.9l-24.9,53.9l-1-54.8c-0.1-7.3,0.6-9.5,8.6-9.5l0.3-1.1h-19.3
			l-0.3,1.1c4.5,0,5,0.7,5.1,9.5l0.2,14.9l-20.7,40.4l-1-55.9c-0.1-7.6,0.6-8.9,7.8-8.9l0.3-1.1h-16.6l-0.3,1.1
			c2.8,0,3.1,1,3.2,10.5l1.1,61h3.7l22.5-43.7l0.7,43.7h3.7l28.9-62.2c3.6-7.8,4.9-9.2,8.4-9.2l0.3-1.1L1212.1,77.6z"/>
		<path class="st0" d="M1587.8,27.8c4,0,6.7,3.5,6.7,10.6c0,15.2-9.7,36.2-22.9,36.2c-1.2,0-2.5-0.4-3.4-1.1l14.1-44.3
			C1584,28.4,1585.8,27.9,1587.8,27.8 M1567.6,75.1c1.3,0.3,2.7,0.5,4.1,0.5c14.3,0,28.9-20.7,28.9-38.6c0-8.5-4-13.3-9.5-13.3
			c-3.5,0.3-6.6,2-8.6,4.9l4.2-13.1l-5.4,0.5l-4.9,15.2l-10.7,2.3l-1.6,4.2l12.1-5.9l-17.7,54.9c-2.3,7.4-4.3,9-9.6,9l-0.3,1.1h23.1
			l0.4-1.1c-8.5,0-10.6-1.6-8.2-8.9L1567.6,75.1z M1519.3,76.6c8.1,0,14.7-10.3,25.2-34h1c-7.6,20.9-8.8,25.1-8.8,28.4
			c0,4.1,2.4,5.1,4.9,5.1c5.2,0,9.3-7.2,12.6-14.9l-1-0.3c-3.8,7.7-6.5,10.6-8.9,10.6c-1.4,0-2.1-0.7-2.1-2.4c0.2-2.1,0.6-4.1,1.3-6
			l11.3-37.9h-5c-8.7,24.7-19.2,47-28.9,47c-2.9,0-3.8-1.9-3.8-4.2c0.1-2.6,0.8-5,2-7.3l10.1-22.1c1.6-2.9,2.6-6.1,2.9-9.4
			c0-4.4-3.2-5.2-5.4-5.2c-5.7,0-9.3,7-12.5,14.5l1.2,0.3c4-8.1,6-10.2,8.5-10.2c1.3-0.1,2.4,0.8,2.5,2.1c0,0.2,0,0.4,0,0.5
			c-0.2,2.2-0.9,4.4-1.9,6.3l-10.1,22.1c-1.6,2.9-2.6,6.2-2.9,9.5c0,5.3,3.6,7.6,7.9,7.6 M1472.8,27.3c3.1-0.2,5.8,2.2,6,5.4
			c0,0.3,0,0.5,0,0.8c0,7.7-9.8,14.8-25.1,15.4C1460.5,35.3,1467.1,27.3,1472.8,27.3 M1476.9,64c-1.7-0.1-3.2,1-3.7,2.7
			c-1,2.2-1,4.9-2.6,8.5c-3.4-1.4-9.5-13-11.7-26c14.1-1.2,25.2-7.2,25.2-16.8c0-6.1-4.6-8.6-9.1-8.6c-9.6,0-16.4,11.2-27.4,35.3
			h-0.7c6.6-16,10.3-25.7,13-33.6l8.5-25.3h-0.3l-14.5,3.1l-0.2,0.5l3.7-0.2c3.8-0.2,4.2,2,2.6,6.6l-22,65h5.2
			c3-8.7,6.6-17.3,10.6-25.7c4,16.4,9.9,26.4,18.1,26.4c4.6,0,9.2-3,9.2-7.8c0-2.2-1-4.1-3.6-4.1 M1413.6,76.6
			c8.5,0,12.8-8.3,16.2-15.6l-0.8-0.2c-3.8,6.7-8.2,10.7-13.1,10.7c-3.9,0-7.8-2.5-7.8-10c0-12.5,11.2-36.1,21.4-36.4
			c1.1,3,0.7,5.5,1.4,7.8c0.6,2.3,1.9,3.7,4.2,3.7c2.5,0.1,4.6-1.9,4.7-4.4c0-0.2,0-0.4,0-0.6c0-4.5-3.6-7.7-9-7.7
			c-13,0-27.7,25.6-27.7,40.3C1403.1,73.1,1408.1,76.6,1413.6,76.6 M1363.2,70.8c-2,0-4.2-0.9-4.2-4.8c0-15.7,18.8-39.1,24.7-39.4
			c3.8,0.6,7,3,8.6,6.5C1377.8,61.2,1369.7,70.9,1363.2,70.8 M1385.9,71.5c-2,0-2.7-1.7-1-6.7l14.4-41.8h-5.6l-1.4,3.7
			c-1.5-1.1-3.3-1.7-5.2-1.6c-12.7,0-33.9,28.2-33.9,42.4c0,6.3,3.2,9.2,7.9,9.2c8.6,0,16.5-13.7,27.3-34h1.1
			c-7.7,16.3-11.3,24.3-11.3,28c0,4.2,2.2,5.5,4.9,5.5c5.4,0,9.5-7.2,12.7-14.5l-1-0.3c-3.7,7.3-6.3,10.2-8.7,10.2 M1344.5,28h11.6
			l0.3-1.1H1345l4.9-10.9l-6.4,0.6l-3.4,10.3h-9.8l-0.3,1.1h9.9l-14.3,35.2c-1,2.1-1.5,4.4-1.6,6.8c0,4.3,2.7,6.1,5.9,6.1
			c6.5,0,10.7-7.3,15-15.6l-1.1-0.3c-5.1,8.3-7.7,11.3-10.9,11.3c-2,0-3-1-3-2.8c0.2-1.8,0.7-3.7,1.4-5.4L1344.5,28z M1293.7,76.6
			c13,0,19.8-7.7,19.8-17.4c0-7.8-3-12.8-8.1-18.5l-6.3-7.1c-4.9-5.4-8.1-9.7-8.1-16.5s4.3-14.3,14.6-14.3c9.7,0,17.2,5.2,13.9,22.8
			h0.9l6.7-22.9h-0.6c-1.1,2-2.4,3.4-3.8,3.4c-2.2,0-6.5-4.3-17-4.3c-13,0-19.8,7.7-19.8,17.4c0,7.8,3.2,12.6,8.3,18.3l6.3,7.1
			c4.9,5.4,7.9,9.9,7.9,16.7c0,6.8-4.3,14.3-14.6,14.3c-11.2,0-17-7.3-13.6-25.6h-1.2l-7.5,25.7h0.6c1.4-2.4,2.4-3.4,3.8-3.4
			c2.3,0,6.6,4.3,17.4,4.3"/>
		<path class="st0" d="M1797.7,221.6c-2,0-4.1-0.8-4.1-4.7c0-15.7,18.8-39.1,24.7-39.4c3.8,0.6,7,3,8.6,6.5
			C1812.4,212,1804.3,221.6,1797.7,221.6 M1820.4,222.3c-2,0-2.7-1.7-1-6.7l22.1-64.7h-0.2l-16.4,2.9l-0.2,0.5l4.1-0.2
			c4.4-0.2,5.8,1.1,4,6.5l-5.7,16.9c-1.6-1.2-3.5-1.8-5.4-1.8c-12.7,0-33.9,28.2-33.9,42.4c0,6.3,3.2,9.2,7.9,9.2
			c8.6,0,16.5-13.7,27.3-34h1.1c-7.7,16.3-11.4,24.3-11.4,28c0,4.2,2.3,5.5,4.9,5.5c5.4,0,9.5-7.2,12.8-14.5l-1-0.3
			c-3.8,7.3-6.4,10.2-8.9,10.2 M1768.5,226.8c5.8,0,9.3-7,12.5-14.8l-1.1-0.3c-4,8.3-6.1,10.5-8.6,10.5c-1.2,0.1-2.3-0.7-2.5-2
			c0-0.2,0-0.4,0-0.6c0.1-1.8,0.6-3.6,1.4-5.3l10-22.8c1.5-3,2.3-6.3,2.6-9.6c0-5-3.1-7.4-7.8-7.4c-7.7,0-15.1,10.6-25.6,35.3h-0.8
			c5.9-16.1,9.1-26.3,9.1-30.2c0.2-2.6-1.7-4.8-4.2-5.1c-0.2,0-0.4,0-0.6,0c-5.6,0-8.7,6.5-12,14.5l1.1,0.2c3.1-7.3,5.8-10,8.2-10
			c1.2-0.2,2.4,0.7,2.6,1.9c0,0.2,0,0.4,0,0.6c-0.1,1.8-0.5,3.6-1.2,5.3l-11.8,38.9h5.1c8.7-24.8,18.8-46.7,28.8-46.7
			c2.9,0,3.8,1.8,3.8,4.1c-0.2,2.6-0.8,5.1-1.9,7.4l-9.1,20.4c-1.4,3.1-3.2,7.4-3.2,10.5c-0.2,2.8,1.8,5.2,4.6,5.4
			c0.3,0,0.6,0,0.8,0 M1716.8,226.9c5.5,0,9.2-6.5,12.6-14.5l-1.1-0.3c-3.4,7.4-6.3,10.2-9.3,10.2s-1.9-4-0.3-7.6l11-25.1
			c1.2-2.8,2.8-6.5,2.8-9.5c0-4-2.6-5.4-5-5.4c-5.5,0-9.2,6.5-12.6,14.5l1.1,0.3c3.4-7.4,6.3-10.1,9.3-10.1c3,0,1.8,4,0.2,7.6
			l-11,25.1c-1.5,3-2.4,6.2-2.7,9.5C1711.7,225.5,1714.3,226.9,1716.8,226.9 M1734.7,163.1c2.7,0,5-2.3,4.9-5c0-2.7-2.3-5-5-4.9
			c-2.7,0-4.9,2.2-4.9,5c-0.1,2.7,2.1,4.9,4.7,5C1734.5,163.1,1734.6,163.1,1734.7,163.1 M1696.3,154.1l-33.7,65.6l-0.1-65.6h-13
			l-0.3,1.1c6.7,0,7.4,1.9,5.2,7.8l-19.2,51.1c-3.5,9.6-6.3,10.8-11,10.8l-0.3,1.1h20.1l0.3-1.1c-9,0-10.8-2.2-7.6-10.8l19.4-52.7
			l0.6,64.8h3.7l34.5-66.7l-8.4,57.7c-1,6.6-4,7.7-11,7.7l-0.3,1.1h22.3l0.3-1.1c-6.5,0-6.5-2.1-5.7-7.2l7.7-55.3
			c0.9-6.5,2.6-7.3,7.9-7.3l0.3-1.1L1696.3,154.1z"/>
		<path class="st0" d="M1569.7,221.6c-2,0-4.2-0.8-4.2-4.7c0-15.7,18.8-39.1,24.7-39.4c3.8,0.6,7,3,8.6,6.5
			C1584.4,212,1576.3,221.6,1569.7,221.6 M1592.5,222.3c-2,0-2.7-1.7-1-6.7l22.1-64.7h-0.2l-16.5,2.9l-0.2,0.5l4.2-0.2
			c4.4-0.2,5.8,1.1,4,6.5l-5.7,16.9c-1.6-1.2-3.5-1.8-5.4-1.8c-12.7,0-33.9,28.2-33.9,42.4c0,6.3,3.2,9.2,7.9,9.2
			c8.6,0,16.5-13.7,27.3-34h1.1c-7.7,16.3-11.3,24.3-11.3,28c0,4.2,2.3,5.5,4.9,5.5c5.4,0,9.5-7.2,12.8-14.5l-1-0.3
			c-3.8,7.3-6.5,10.2-8.9,10.2 M1529,226.2c-3.2,0-6.1-2.4-6.1-8.7s2.9-16.7,6.9-26c3.7-8.7,8.3-16.1,14-16.1c3.2,0,6.1,2.4,6.1,8.7
			c0,6.2-2.9,16.7-6.9,26C1539.3,218.8,1534.7,226.2,1529,226.2 M1529.2,227.3c6.5,0,12.2-3.6,17.3-11.3c5.1-7.8,8.9-18.2,8.9-27.2
			c0-9.5-4.2-14.4-11.7-14.4c-6.5,0-12.2,3.6-17.3,11.3s-8.8,18.2-8.8,27.2C1517.5,222.4,1521.7,227.3,1529.2,227.3 M1484.8,226.2
			c-3.2,0-6.1-2.4-6.1-8.7s2.9-16.7,6.9-26c3.7-8.7,8.3-16.1,14-16.1c3.2,0,6.1,2.4,6.1,8.7c0,6.2-2.9,16.7-6.9,26
			C1495,218.8,1490.4,226.2,1484.8,226.2 M1485,227.3c6.5,0,12.2-3.6,17.3-11.3c5.1-7.8,8.9-18.2,8.9-27.2c0-9.5-4.2-14.4-11.7-14.4
			c-6.5,0-12.2,3.6-17.3,11.3c-5.1,7.7-8.8,18.2-8.8,27.2C1473.3,222.4,1477.4,227.3,1485,227.3 M1437.2,227.3
			c6.4,0.1,12.6-1.8,17.8-5.5l5.1-18.2c2.4-8.6,3.7-11,8.3-11l0.3-1.1h-25.4l-0.3,1.1c8.5,0,12.4,0.6,12.4,5.5
			c-0.1,1.9-0.5,3.8-1.1,5.6l-2.3,8.5c-2.2,9.8-6.5,14.1-15.4,14.1c-8.1,0-16.4-6.7-16.4-25.7c0-21.7,9.3-47,29.4-47
			c10.6,0,14.8,5.6,14.8,15.9c0,2.3-0.2,4.7-0.5,7h0.8l6.6-22.9h-0.6c-1,2-2.1,3.4-3.7,3.4c-2.5,0-7.4-4.3-17.4-4.3
			c-21.7,0-36.7,22.7-36.7,48C1413,218.3,1424.7,227.4,1437.2,227.3"/>
		<path class="st0" d="M1867,894.5l-0.7,0.6c1.9,2,3.3,4.4,4.2,6.9c0.9,2.9,1.3,5.8,1.3,8.8c0,2.9-0.4,5.8-1.3,8.6
			c-0.9,2.5-2.3,4.8-4.1,6.8l0.7,0.7c2.3-2.4,4.2-5.1,5.7-8.1c1.2-2.6,1.8-5.4,1.8-8.3C1874.6,904.9,1872,899.6,1867,894.5
			 M1858.3,903.9v1.2c1.4,0,2.1,0.5,2.1,1.6c0,0.6-0.2,1.1-0.4,1.6l-3.8,10.4l-4-10.9c-0.2-0.4-0.3-0.9-0.3-1.3c0-1,0.7-1.5,2-1.6
			v-1.1h-7.2v1.3c0.9,0,1.3,0.7,2.3,3.5l5.6,14.6c-1.5,4.1-2.5,6.2-3.7,7.1c-1.3-1.1-1.2-2.8-2.9-2.8c-1.1-0.1-2,0.8-2,1.8
			c0,0.1,0,0.2,0,0.3c0,1.8,1.2,2.9,3.4,2.9c2.8,0,4.7-2.8,6.5-7.7l5.8-16.2c1.1-2.9,1.4-3.4,2.2-3.6V904L1858.3,903.9z
			 M1836.3,921.6c-1.2,0.1-2.2-0.8-2.3-2c0-0.1,0-0.2,0-0.3c0-1.7,1.1-2.9,3.6-3.8l2.2-0.8v4.2
			C1838.8,920.8,1837.7,921.6,1836.3,921.6 M1845.5,919c-0.4,1.9-0.8,2.6-1.5,2.6c-0.7,0-1.2-0.6-1.2-1.9v-10.5
			c0-3.8-1.9-5.8-5.3-5.8c-4.1,0-7.9,3-7.9,6.1c-0.2,1.3,0.8,2.5,2.1,2.7c0.1,0,0.2,0,0.3,0c1.2,0.1,2.2-0.8,2.2-2c0,0,0-0.1,0-0.1
			c0-1.5-1.6-2-1.9-3.6c1.1-0.7,2.5-1.1,3.8-1.1c2.4,0,3.6,1.3,3.6,4v3.7l-3.4,1.1c-3.9,1.3-5.6,3-5.6,5.7c-0.1,2.2,1.7,4.1,3.9,4.2
			c0.2,0,0.3,0,0.5,0c2.1,0,4-1.4,4.6-3.5c0.3,2.3,1.3,3.2,3.2,3.2c1.9,0,3-1.4,3.6-4.6L1845.5,919z M1818,921.3
			c-2.5,0-4.2-2.8-4.2-7.6c0-5.6,1.8-8.7,4.7-8.7c2.3,0,3.5,1.6,3.5,5v9C1821.1,920.4,1819.6,921.2,1818,921.3 M1825,919.1v-24.9
			h-1.1l-4.9,1.2v1c2.5,0,2.9,0.4,2.9,2.2v6.1c-1.1-0.8-2.4-1.3-3.7-1.2c-4.9,0-7.9,4.1-7.9,11.1c0,5.9,2.7,9.6,6.8,9.6
			c2.2-0.1,4.1-1.5,4.9-3.6l0.1,2.6l0.5,0.4h4.6v-1.1c-1.6-0.2-2-0.8-2-3.2 M1800,923.7h7.5v-1.1c-1.8-0.2-2.3-0.5-2.3-2.6v-16.2h-1
			l-4.3,1.2v1c1.9,0,2.3,0.4,2.3,2.3v11.6c0,2.1-0.4,2.4-2.3,2.6V923.7z M1803.7,899.8c1.3-0.1,2.3-1.2,2.1-2.5
			c-0.1-1.1-1-2.1-2.1-2.1c-1.3-0.1-2.4,0.9-2.5,2.1c-0.1,1.3,0.9,2.4,2.1,2.5C1803.5,899.9,1803.6,899.9,1803.7,899.8 M1795.2,920
			v-25.7h-1l-4.1,1.2v1c1.7,0,2.1,0.4,2.1,2.2v21.3c0,2.2-0.6,2.4-2.2,2.6v1.1h7.5v-1.1C1795.6,922.4,1795.2,922.1,1795.2,920
			 M1779.4,922.6c-3.2,0-4.5-4.6-4.5-9.3c0-6.5,2.1-8.2,3.9-8.2c3.2,0,4.4,4.6,4.4,9.3C1783.3,920.9,1781.2,922.6,1779.4,922.6
			 M1779.1,924.3c4.9,0,8-4,8-10.3s-3-10.4-8-10.4s-8,4.1-8,10.4S1774.2,924.3,1779.1,924.3 M1768,896.7v-1.3h-9.2v1.3
			c2.5,0.1,2.9,0.5,2.9,3.4v8.1h-10.3v-8.1c0-2.9,0.4-3.2,2.8-3.4v-1.3h-9.2v1.3c2.5,0.1,2.9,0.5,2.9,3.4V919c0,2.9-0.4,3.2-2.9,3.4
			v1.3h9.2v-1.3c-2.5-0.1-2.8-0.5-2.8-3.4v-9h10.2v9c0,2.9-0.4,3.2-2.9,3.4v1.3h9.2v-1.3c-2.5-0.1-2.9-0.5-2.9-3.4v-18.9
			C1765,897.2,1765.4,896.9,1768,896.7 M1732.5,919.9v-25.7h-1.1l-4.1,1.2v1c1.8,0,2.1,0.4,2.1,2.2v21.3c0,2.2-0.6,2.4-2.2,2.6v1.1
			h7.5v-1.1C1732.9,922.4,1732.5,922.1,1732.5,919.9 M1715.2,921.7c-1.2,0.1-2.2-0.8-2.3-2c0-0.1,0-0.2,0-0.3c0-1.7,1.1-2.9,3.6-3.8
			l2.2-0.8v4.2C1717.8,920.8,1716.7,921.7,1715.2,921.7 M1724.4,919.1c-0.4,1.9-0.8,2.6-1.5,2.6c-0.7,0-1.2-0.6-1.2-1.9v-10.5
			c0-3.8-1.9-5.8-5.3-5.8c-4.1,0-7.9,3-7.9,6.1c-0.2,1.3,0.8,2.5,2.1,2.7c0.1,0,0.2,0,0.3,0c1.2,0.1,2.2-0.8,2.2-2c0,0,0-0.1,0-0.1
			c0-1.5-1.6-2-1.9-3.6c1.1-0.7,2.5-1.1,3.8-1.1c2.4,0,3.6,1.3,3.6,4v3.7l-3.4,1.1c-3.9,1.3-5.6,3-5.6,5.7c-0.1,2.2,1.7,4.1,3.9,4.2
			c0.2,0,0.3,0,0.5,0c2.1,0,4-1.4,4.6-3.5c0.3,2.3,1.3,3.2,3.2,3.2s3-1.4,3.6-4.6L1724.4,919.1z M1704,920v-10.5
			c0-3.9-1.9-5.9-5.1-5.9c-2.3,0-4.3,1.4-5.2,3.6v-3.2h-1.1l-4.1,1.2v1c1.8,0,2.1,0.4,2.1,2.2V920c0,1.9-0.3,2.4-2.1,2.6v1.1h7.2
			v-1.1c-1.8-0.2-2-0.6-2-2.6v-11.3c0.9-1.4,2.4-2.3,4.1-2.3c2.1,0,3.1,1.2,3.1,3.9v9.8c0,2.1-0.3,2.4-2.1,2.6v1.1h7.2v-1.1
			C1704.3,922.4,1704,922,1704,920 M1678,922.7c-3.2,0-4.5-4.6-4.5-9.3c0-6.5,2.1-8.2,3.9-8.2c3.2,0,4.4,4.6,4.4,9.3
			C1681.9,920.9,1679.8,922.7,1678,922.7 M1677.8,924.3c4.9,0,7.9-4,7.9-10.3c0-6.3-3-10.4-7.9-10.4s-8,4.1-8,10.4
			C1669.8,920.3,1672.8,924.3,1677.8,924.3 M1659.4,923.7h7.5v-1.1c-1.8-0.2-2.3-0.5-2.3-2.6v-16.2h-1l-4.3,1.2v1
			c1.9,0,2.3,0.4,2.3,2.3V920c0,2.1-0.4,2.4-2.3,2.6V923.7z M1663.1,899.9c1.3-0.1,2.3-1.2,2.1-2.5c-0.1-1.1-1-2.1-2.1-2.1
			c-1.3-0.1-2.4,0.9-2.5,2.1c-0.1,1.3,0.9,2.4,2.1,2.5C1662.8,899.9,1662.9,899.9,1663.1,899.9 M1656.6,920.1c-0.7,1-1.8,1.6-3,1.6
			c-1.3,0-2-1-2-2.8v-12.1h4.4v-2.7h-4.4v-3.5h-1.6c-0.3,2.3-2,4.2-4.3,4.8v1.5h2.8V919c0,3.2,1.6,5.1,4.2,5.1c2,0,3.5-1.1,4.7-3.4
			L1656.6,920.1z M1634.3,921.8c-1.2,0.1-2.2-0.8-2.3-2c0-0.1,0-0.2,0-0.3c0-1.7,1.1-2.9,3.6-3.8l2.2-0.8v4.2
			C1636.8,920.9,1635.7,921.8,1634.3,921.8 M1643.5,919.2c-0.4,1.9-0.8,2.6-1.5,2.6s-1.2-0.6-1.2-1.9v-10.5c0-3.8-1.9-5.8-5.3-5.8
			c-4.1,0-7.9,3-7.9,6.1c-0.2,1.3,0.8,2.5,2.1,2.7c0.1,0,0.2,0,0.3,0c1.2,0.1,2.2-0.8,2.2-2c0,0,0-0.1,0-0.1c0-1.5-1.6-2-1.9-3.6
			c1.1-0.7,2.5-1.1,3.8-1.1c2.4,0,3.5,1.3,3.5,4v3.6l-3.3,1.1c-3.9,1.3-5.7,3-5.7,5.7c-0.1,2.3,1.7,4.1,4,4.2c0.2,0,0.3,0,0.5,0
			c2.1,0,4-1.4,4.6-3.5c0.3,2.3,1.3,3.2,3.2,3.2c1.9,0,3-1.4,3.6-4.6L1643.5,919.2z M1617.4,895.5v1.3c2.8,0.1,3.7,0.5,3.7,3.6V918
			l-12.5-22.5h-4.9v1.3c1,0.2,1.8,0.8,2.8,2.5v19.3c0,3.2-0.4,3.7-2.8,3.8v1.3h8.2v-1.3c-2.9-0.1-3.5-0.6-3.5-3.8v-16.1l12,21.4h2.6
			v-23.8c0-2.6,0.5-3.2,2-3.3v-1.3H1617.4z M1586.7,929.1c3.2-0.1,5.2-2.4,5.2-5.8c0-2.5-1-4.2-3-4.2c-1.4-0.1-2.6,0.9-2.7,2.3
			c0,0.1,0,0.1,0,0.2c-0.1,1.3,0.9,2.3,2.2,2.4c0.1,0,0.2,0,0.3,0c0.7,0,1.3-0.2,1.8-0.6c0.4,2.1-1.1,4.2-3.2,4.5
			c-0.2,0-0.4,0-0.5,0.1V929.1z M1573.5,921.4c-2.5,0-4.2-2.8-4.2-7.6c0-5.6,1.8-8.7,4.7-8.7c2.3,0,3.5,1.6,3.5,5v9
			C1576.6,920.4,1575.1,921.3,1573.5,921.4 M1580.6,919.2v-25h-1l-4.9,1.2v1c2.5,0,2.9,0.4,2.9,2.2v6.1c-1.1-0.8-2.4-1.3-3.7-1.2
			c-4.9,0-7.9,4.1-7.9,11.1c0,5.9,2.7,9.6,6.8,9.6c2.2-0.1,4.1-1.5,4.9-3.6v2.6l0.5,0.4h4.6v-1.1
			C1581,922.4,1580.6,921.7,1580.6,919.2 M1561.1,920v-10.5c0-3.9-1.9-5.9-5.1-5.9c-2.3,0-4.3,1.4-5.2,3.6v-3.2h-1.1l-4.1,1.2v1
			c1.7,0,2.1,0.4,2.1,2.2v11.8c0,1.9-0.3,2.4-2.1,2.6v1.1h7.2v-1.1c-1.8-0.2-2-0.6-2-2.6v-11.3c0.9-1.4,2.4-2.3,4.1-2.3
			c2,0,3.1,1.2,3.1,3.9v9.8c0,2.1-0.2,2.4-2,2.6v1.1h7.2v-1.1C1561.4,922.4,1561.1,922.1,1561.1,920 M1536.2,905.1
			c2.4,0,3.1,2.3,3.1,5.2h-7.2C1532.7,906.8,1534.2,905.1,1536.2,905.1 M1541.8,917.3c-0.5,2.1-2.3,3.5-4.4,3.6
			c-3.2,0-5.3-2.7-5.3-7.8c0-0.5,0-0.9,0-1.3h10.9c0-5-2.1-8.2-6.3-8.2c-4.7,0-7.4,4.4-7.4,10.9c0,6.2,2.9,9.8,7.4,9.8
			c3.6,0,5.5-2.4,6.3-6.7L1541.8,917.3z M1527.7,905.2v-1.1h-7.6v1.1c1.3,0,2,0.4,2,1.1c-0.1,0.8-0.5,1.5-1.1,2l-5.4,5.7v-19.7h-1.1
			l-4,1.2v1c1.8,0,2.1,0.4,2.1,2.2v21.2c0,2.1-0.4,2.5-2.2,2.7v1.1h7.2v-1.1c-1.7-0.2-2-0.6-2-2.7v-3.6l2-2.2l3.4,5.6
			c0.7,1.2,1,1.6,1,2.1c0,0.5-0.3,0.7-1.6,0.7v1.1h7.2v-1.1c-1-0.2-1.6-0.7-2.9-2.6l-5-8.1l3-3.2c2.1-2.2,3.2-3.2,4.9-3.5
			 M1500.9,904.9c2.4,0,3.1,2.3,3.1,5.2h-7.2C1497.3,906.6,1498.8,904.9,1500.9,904.9 M1506.4,917.1c-0.5,2.1-2.3,3.6-4.4,3.6
			c-3.2,0-5.3-2.7-5.3-7.8c0-0.5,0-0.9,0-1.3h10.8c0-5-2.1-8.2-6.3-8.2c-4.7,0-7.4,4.4-7.4,10.9c0,6.2,2.9,9.8,7.4,9.8
			c3.6,0,5.5-2.4,6.3-6.7L1506.4,917.1z M1483.9,904.9c2.4,0,3.1,2.3,3.1,5.2h-7.2C1480.4,906.6,1481.9,904.9,1483.9,904.9
			 M1489.4,917.1c-0.5,2.1-2.3,3.6-4.4,3.6c-3.2,0-5.3-2.7-5.3-7.8c0-0.4,0-0.9,0-1.3h10.7c0-5-2-8.2-6.3-8.2
			c-4.7,0-7.4,4.4-7.4,10.9c0,6.2,2.9,9.8,7.4,9.8c3.6,0,5.5-2.4,6.3-6.7L1489.4,917.1z M1469.6,895.5v1.3c2.2,0,2.9,0.5,2.9,1.7
			c0,0.8-0.2,1.5-0.4,2.2l-5,18.1l-4.6-17.8c-0.3-0.9-0.5-1.9-0.6-2.9c0-1,0.6-1.4,2.8-1.5v-1.2h-9.1v1.3c1.8,0.1,2.1,0.5,3,3.5
			l0.9,3.2l-4.7,15.7l-4.9-18.3c-0.2-0.8-0.4-1.6-0.4-2.4c0-1.2,0.6-1.6,2.1-1.7v-1.2h-7.9v1.3c1.2,0,1.5,0.5,2.3,3.5l6.7,23.5h2.6
			l5.1-16.9l4.6,16.9h2.6l6.3-22.7c1-3.5,1.5-4.3,2.9-4.4v-1.3H1469.6z M1432.3,919.9v-10.5c0-3.9-1.9-5.9-5.1-5.9
			c-2.3,0-4.3,1.4-5.2,3.6v-3.2h-1.1l-4.1,1.2v1c1.7,0,2.1,0.4,2.1,2.2V920c0,1.9-0.3,2.4-2.1,2.6v1.1h7.2v-1.1
			c-1.8-0.2-2-0.6-2-2.6v-11.3c0.9-1.4,2.4-2.3,4.1-2.3c2,0,3.1,1.2,3.1,3.9v9.8c0,2.1-0.2,2.4-2,2.6v1.1h7.2v-1.1
			C1432.6,922.4,1432.3,922,1432.3,919.9 M1406.3,922.7c-3.2,0-4.5-4.6-4.5-9.3c0-6.5,2.1-8.2,3.9-8.2c3.2,0,4.4,4.6,4.4,9.3
			C1410.2,920.9,1408.1,922.7,1406.3,922.7 M1406.1,924.3c4.9,0,8-4,8-10.3c0-6.3-3-10.4-8-10.4s-8,4.1-8,10.4
			C1398.1,920.2,1401.1,924.3,1406.1,924.3 M1381,905c2.4,0,3.1,2.3,3.1,5.2h-7.2C1377.4,906.7,1378.9,905,1381,905 M1386.5,917.2
			c-0.5,2.1-2.3,3.6-4.4,3.6c-3.2,0-5.3-2.7-5.3-7.8c0-0.4,0-0.9,0-1.3h10.7c0-5-2-8.2-6.3-8.2c-4.7,0-7.4,4.4-7.4,10.9
			c0,6.2,2.9,9.8,7.4,9.8c3.6,0,5.5-2.4,6.3-6.7L1386.5,917.2z M1369.2,919.8v-10.1c0-4.2-1.6-6.3-4.8-6.3c-2.4-0.1-4.6,1.5-5.3,3.8
			c-0.3-2.3-2.3-3.9-4.5-3.8c-2.2,0-4.2,1.4-5,3.6v-3.2h-1.1l-4.1,1.2v1c1.8,0,2.1,0.4,2.1,2.2V920c0,1.9-0.3,2.4-2.1,2.6v1.1h7.2
			v-1.1c-1.7-0.2-2-0.6-2-2.6v-11.3c0.8-1.4,2.2-2.3,3.8-2.4c1.9,0,2.9,1.2,2.9,3.8v9.7c0,2.1-0.2,2.5-1.9,2.7v1.1h6.8v-1.1
			c-1.6-0.2-1.9-0.6-1.9-2.7v-10.1c0-0.3,0-0.7,0-1c0.8-1.4,2.3-2.3,3.9-2.4c1.9,0,2.9,1.1,2.9,3.7v9.8c0,2.1-0.3,2.5-1.9,2.7v1.1h7
			v-1.1C1369.5,922.3,1369.2,921.9,1369.2,919.8 M1334.5,923.6h7.5v-1.1c-1.8-0.2-2.3-0.5-2.3-2.6v-16.2h-1l-4.3,1.2v1
			c1.9,0,2.3,0.4,2.3,2.3v11.6c0,2.1-0.4,2.4-2.3,2.6V923.6z M1338.2,899.7c1.3,0,2.3-1.1,2.3-2.4c0-1.3-1.1-2.3-2.4-2.3
			c-1.3,0-2.3,1.1-2.3,2.4c0,1.2,0.9,2.3,2.2,2.3C1338,899.7,1338.1,899.7,1338.2,899.7 M1332,894.6h-1.6c-0.2,0.7-0.4,0.8-1.6,0.8
			h-14.2c-1.2,0-1.4,0-1.6-0.8h-1.6l-0.3,8.4h1.8c0.7-5.1,1.5-6,5-6h2.2V918c0,3.5-0.5,4.1-3.7,4.2v1.3h10.9v-1.3
			c-3.2-0.1-3.7-0.7-3.7-4.2v-20.9h2.4c3.4,0,4.1,0.9,4.9,6h1.7L1332,894.6z M1301.8,905.2v-1.1h-7.6v1.1c1.3,0,2,0.4,2,1.1
			c-0.1,0.8-0.4,1.5-1,2l-5.4,5.7v-19.7h-1.1l-4,1.2v1c1.7,0,2.1,0.4,2.1,2.2v21.2c0,2.1-0.4,2.5-2.2,2.7v1.1h7.2v-1.1
			c-1.7-0.2-2-0.6-2-2.7v-3.6l2-2.2l3.4,5.6c0.7,1.2,1,1.6,1,2.1s-0.3,0.7-1.6,0.7v1.1h7.2v-1.1c-1-0.2-1.6-0.7-2.9-2.6l-5-8.1
			l3-3.2c2.1-2.2,3.2-3.2,4.9-3.5 M1272.5,921.7c-1.2,0.1-2.2-0.8-2.3-2c0-0.1,0-0.2,0-0.3c0-1.7,1.1-2.9,3.6-3.8l2.2-0.8v4.2
			C1275.1,920.8,1273.9,921.7,1272.5,921.7 M1281.7,919.1c-0.4,1.9-0.8,2.6-1.5,2.6s-1.2-0.6-1.2-1.9v-10.5c0-3.8-1.9-5.8-5.3-5.8
			c-4.1,0-7.9,3-7.9,6.1c-0.2,1.3,0.8,2.5,2.1,2.7c0.1,0,0.2,0,0.3,0c1.2,0.1,2.2-0.8,2.2-2c0,0,0-0.1,0-0.1c0-1.5-1.6-2-1.9-3.6
			c1.1-0.7,2.5-1.1,3.8-1.1c2.4,0,3.5,1.3,3.5,4v3.7l-3.3,1.1c-3.9,1.3-5.7,3-5.7,5.7c-0.1,2.3,1.7,4.1,4,4.2c0.2,0,0.3,0,0.5,0
			c2.1,0,4-1.4,4.6-3.5c0.3,2.3,1.3,3.2,3.2,3.2c1.9,0,3-1.4,3.6-4.6L1281.7,919.1z M1256.3,905c2.4,0,3.1,2.3,3.1,5.2h-7.2
			C1252.7,906.7,1254.2,905,1256.3,905 M1261.8,917.2c-0.5,2.1-2.3,3.6-4.4,3.6c-3.2,0-5.3-2.7-5.3-7.8c0-0.4,0-0.9,0-1.3h10.7
			c0-5-2-8.2-6.3-8.2c-4.7,0-7.4,4.4-7.4,10.9c0,6.2,2.9,9.8,7.4,9.8c3.6,0,5.5-2.4,6.3-6.7L1261.8,917.2z M1245.2,903.6
			c-2.4,0-3.7,3.1-4.9,6.8v-6.6h-1l-4.1,1.2v1c1.7,0,2.1,0.4,2.1,2.2V920c0,1.9-0.3,2.4-2.1,2.6v1.1h8.1v-1.1
			c-2.5-0.2-2.8-0.6-2.8-2.6v-6.7c0.5-2.4,1.5-4.7,2.8-6.8c0.9,0.7,0.7,2.1,2.4,2.1c1.2,0,2.1-1,2.1-2.6c0.1-1.3-0.9-2.4-2.2-2.5
			C1245.5,903.5,1245.4,903.5,1245.2,903.6 M1223.3,922.3c-2.5,0-3.5-1.1-3.5-4.2v-8.2c6.6,0.1,8.4,1.6,8.4,6.3
			C1228.3,920.1,1226.5,922.3,1223.3,922.3 M1222.4,896.9c3.4,0,5.2,1.9,5.2,5.5c0,3.9-2.2,5.7-6.9,5.7h-0.9v-11.2L1222.4,896.9z
			 M1223.7,909v-0.2c5-0.2,7.9-2.7,7.9-6.7c0-4.4-2.9-6.7-8.5-6.7h-9.6v1.3c2.5,0.1,2.9,0.5,2.9,3.4V919c0,2.9-0.4,3.2-2.9,3.4v1.3
			h10.3c5.3,0,8.4-2.8,8.4-7.5S1229.2,909.1,1223.7,909 M1195.3,922.6c-3.2,0-4.5-4.6-4.5-9.3c0-6.5,2.1-8.2,3.9-8.2
			c3.2,0,4.4,4.6,4.4,9.3C1199.2,920.9,1197.1,922.6,1195.3,922.6 M1195.1,924.2c4.9,0,8-4,8-10.3c0-6.3-3-10.4-8-10.4
			s-8,4.1-8,10.4C1187.1,920.2,1190.2,924.2,1195.1,924.2 M1176.5,895.5v1.3c2.8,0.1,3.7,0.5,3.7,3.6V918l-12.5-22.5h-4.9v1.3
			c1,0.2,1.8,0.8,2.8,2.5v19.3c0,3.2-0.4,3.7-2.8,3.8v1.3h8.2v-1.3c-2.9-0.1-3.6-0.6-3.6-3.8v-16.1l12,21.4h2.6v-23.8
			c0-2.6,0.5-3.2,2-3.3v-1.3H1176.5z M1153.6,919.4c-0.9-2.8-1.3-5.8-1.3-8.8c-0.2-5.7,1.7-11.2,5.5-15.4l-0.7-0.6
			c-2.3,2.4-4.2,5.1-5.7,8.1c-1.2,2.6-1.9,5.4-1.8,8.3c0,5.8,2.5,11.2,7.5,16.2l0.8-0.7C1155.9,924.4,1154.5,922.1,1153.6,919.4"/>
		<path class="st0" d="M1649.3,857.4c4.1,0,6.3,3.8,6.3,10.8s-2.2,10.8-6.3,10.8c-4.1,0-6.3-3.8-6.3-10.8S1645.2,857.4,1649.3,857.4
			 M1649.3,853.5c-5.4,0-8.2,5-8.2,14.7s2.8,14.6,8.2,14.6c5.4,0,8.2-5,8.2-14.6S1654.7,853.5,1649.3,853.5 M1630.1,866.1h-0.8
			l7.2-8.7V854h-14.2v8.5h1.6c0.2-4.6,0.6-5.2,3.8-5.2h6.3l-7.8,9.6v2.5c0.8,0,1.5-0.2,2.2-0.2c4.1,0,6.2,1.9,6.2,5.9
			s-2.1,5.9-5.5,5.9c-1.1,0-2.1-0.3-3-0.8c-0.3-1.7,0-3-0.2-4c-0.1-1-1-1.7-2-1.6c-1.3-0.1-2.4,1-2.4,2.2c0,0.1,0,0.3,0,0.4
			c0,3.1,3.1,5.4,7.4,5.4c5.6,0,9-3.2,9-8.3S1634.8,866.1,1630.1,866.1 M1590.9,870.2l8.1-12.7v12.7H1590.9z M1605.9,870.2h-3.7V854
			h-3.2l-10.2,16.2v2.8h10.2v9.2h3.2V873h3.7V870.2z M1581.8,870h-8.8v2.6h8.8V870z M1559.2,866.1h-0.8l7.2-8.7v-3.4h-14.2v8.5h1.6
			c0.2-4.6,0.5-5.2,3.8-5.2h6.3l-7.8,9.6v2.5c0.8,0,1.5-0.2,2.2-0.2c4.1,0,6.2,1.9,6.2,5.9s-2.1,5.9-5.5,5.9c-1.1,0-2.1-0.3-3-0.8
			c-0.1-1.3-0.2-2.7-0.2-4c-0.1-1-1-1.7-2-1.6c-1.3-0.1-2.4,1-2.4,2.2c0,0.1,0,0.3,0,0.4c0,3.1,3.1,5.4,7.4,5.4c5.6,0,9-3.2,9-8.3
			S1563.9,866.1,1559.2,866.1 M1533.3,863.6c2.4,0,3.1,2.3,3.1,5.2h-7.2C1529.7,865.2,1531.2,863.6,1533.3,863.6 M1538.8,875.8
			c-0.5,2.1-2.3,3.5-4.4,3.6c-3.2,0-5.3-2.7-5.3-7.8c0-0.4,0-0.9,0-1.3h10.7c0-5-2-8.2-6.3-8.2c-4.7,0-7.4,4.4-7.4,10.9
			s2.9,9.8,7.4,9.8c3.6,0,5.5-2.4,6.3-6.7L1538.8,875.8z M1521.5,878.4v-10.1c0-4.2-1.6-6.3-4.8-6.3c-2.4-0.1-4.6,1.5-5.3,3.8
			c-0.3-2.3-2.2-3.9-4.5-3.8c-2.2,0-4.2,1.4-5,3.6v-3.3h-1.1l-4.1,1.2v1c1.8,0,2.1,0.4,2.1,2.2v11.8c0,1.9-0.3,2.3-2.1,2.6v1.1h7.3
			v-1.1c-1.7-0.2-2-0.6-2-2.6v-11.3c0.8-1.4,2.2-2.3,3.8-2.4c1.9,0,2.9,1.2,2.9,3.8v9.7c0,2.1-0.2,2.5-1.9,2.7v1.1h6.9V881
			c-1.6-0.2-1.9-0.6-1.9-2.7v-10.1c0-0.3,0-0.7,0-1c0.8-1.4,2.3-2.3,3.9-2.4c1.9,0,2.9,1.2,2.9,3.7v9.8c0,2.1-0.3,2.5-1.9,2.7v1.1h7
			V881c-1.7-0.2-2-0.6-2-2.7 M1487,882.1h7.5V881c-1.8-0.2-2.3-0.5-2.3-2.6v-16.2h-1l-4.3,1.2v1c1.9,0,2.3,0.4,2.3,2.3v11.6
			c0,2.1-0.4,2.4-2.3,2.6V882.1z M1490.6,858.2c1.3,0,2.3-1.1,2.3-2.4c0-1.3-1.1-2.3-2.4-2.3c-1.3,0-2.3,1.1-2.3,2.4
			c0,1.2,0.9,2.3,2.2,2.3C1490.5,858.2,1490.6,858.2,1490.6,858.2 M1484.5,853.1h-1.6c-0.2,0.7-0.4,0.8-1.6,0.8h-14.1
			c-1.2,0-1.4,0-1.6-0.8h-1.6l-0.3,8.4h1.6c0.7-5.1,1.5-6,5-6h2.2v21.1c0,3.5-0.5,4.1-3.7,4.2v1.3h10.9v-1.1
			c-3.2-0.1-3.7-0.7-3.7-4.2v-21.1h2.3c3.4,0,4.1,0.9,4.9,6h1.7L1484.5,853.1z M1454.3,863.6v-1.1h-7.6v1.1c1.3,0,2,0.4,2,1.1
			c-0.1,0.8-0.5,1.5-1,2l-5.4,5.7v-19.6h-1.1l-4,1.2v0.9c1.7,0,2.1,0.4,2.1,2.2v21.2c0,2.1-0.4,2.5-2.2,2.7v1.1h7.1v-1.1
			c-1.7-0.2-2-0.6-2-2.7v-3.6l2-2.2l3.4,5.6c0.7,1.2,1,1.6,1,2.1c0,0.5-0.3,0.7-1.6,0.7v1.1h7.2v-1.1c-1-0.2-1.6-0.7-2.9-2.7l-5-8.1
			l3-3.2c2.1-2.2,3.2-3.2,4.9-3.5 M1424.9,880.2c-1.2,0.1-2.2-0.8-2.3-2c0-0.1,0-0.2,0-0.3c0-1.7,1.1-2.9,3.6-3.8l2.2-0.8v4.2
			C1427.5,879.3,1426.3,880.2,1424.9,880.2 M1434.1,877.5c-0.4,1.9-0.8,2.6-1.5,2.6c-0.7,0-1.2-0.6-1.2-1.9v-10.4
			c0-3.8-1.9-5.8-5.3-5.8c-4.1,0-7.9,3-7.9,6.1c-0.2,1.3,0.8,2.5,2.1,2.7c0.1,0,0.2,0,0.3,0c1.2,0.1,2.2-0.8,2.2-2c0,0,0-0.1,0-0.1
			c0-1.5-1.6-2-1.9-3.6c1.1-0.7,2.5-1.1,3.8-1.1c2.4,0,3.5,1.3,3.5,4v3.6l-3.3,1.1c-3.9,1.3-5.7,3-5.7,5.7c-0.1,2.3,1.7,4.1,4,4.2
			c0.2,0,0.3,0,0.5,0c2.1,0,4-1.4,4.6-3.5c0.3,2.2,1.3,3.3,3.2,3.3s3-1.4,3.6-4.6L1434.1,877.5z M1408.7,863.4
			c2.4,0,3.1,2.3,3.1,5.2h-7.2C1405.1,865.1,1406.6,863.4,1408.7,863.4 M1414.2,875.7c-0.5,2.1-2.3,3.5-4.4,3.6
			c-3.2,0-5.3-2.7-5.3-7.8c0-0.4,0-0.9,0-1.3h10.7c0-5-2-8.2-6.3-8.2c-4.7,0-7.4,4.4-7.4,10.9s2.9,9.8,7.4,9.8
			c3.6,0,5.5-2.4,6.3-6.7L1414.2,875.7z M1397.6,862c-2.4,0-3.7,3.1-4.9,6.8v-6.6h-1l-4.1,1.2v1c1.7,0,2.1,0.4,2.1,2.2v11.8
			c0,1.9-0.3,2.3-2.1,2.6v1.1h8V881c-2.5-0.2-2.8-0.6-2.8-2.6v-6.7c0.5-2.4,1.5-4.7,2.8-6.8c0.9,0.7,0.7,2.1,2.4,2.1
			c1.2,0,2.1-1,2.1-2.6c0.1-1.3-0.9-2.4-2.2-2.5C1397.8,862,1397.7,862,1397.6,862 M1375.7,880.9c-2.5,0-3.5-1.1-3.5-4.2v-8.2
			c6.6,0,8.4,1.6,8.4,6.3C1380.7,878.7,1378.9,880.9,1375.7,880.9 M1374.9,855.5c3.4,0,5.2,1.9,5.2,5.5c0,3.9-2.2,5.7-6.9,5.7h-0.9
			v-11.2L1374.9,855.5z M1376.1,867.6v-0.2c5-0.2,7.9-2.7,7.9-6.7c0-4.4-2.9-6.7-8.5-6.7h-9.6v1.3c2.5,0,2.9,0.5,2.9,3.4v19
			c0,2.9-0.4,3.2-2.9,3.4v1.3h10.2c5.3,0,8.4-2.8,8.4-7.5S1381.6,867.7,1376.1,867.6"/>
		<path class="st0" d="M1845.2,811.7l-0.7,0.7c1.9,2,3.3,4.3,4.2,6.9c0.9,2.9,1.3,5.8,1.3,8.8c0,2.9-0.4,5.8-1.3,8.6
			c-0.9,2.5-2.3,4.8-4.1,6.8l0.7,0.7c2.3-2.4,4.2-5.1,5.7-8.1c1.2-2.6,1.9-5.4,1.8-8.3C1852.8,822.1,1850.3,816.7,1845.2,811.7
			 M1832.8,815.9c4.1,0,6.3,3.8,6.3,10.8c0,7-2.2,10.8-6.3,10.8c-4.1,0-6.3-3.8-6.3-10.8C1826.5,819.6,1828.7,815.9,1832.8,815.9
			 M1832.8,812c-5.4,0-8.2,5-8.2,14.6c0,9.6,2.8,14.7,8.2,14.7c5.4,0,8.2-5,8.2-14.7C1841,816.9,1838.2,812,1832.8,812
			 M1813.6,824.6h-0.8l7.2-8.6v-3.4h-14.2v8.5h1.6c0.2-4.6,0.6-5.2,3.8-5.2h6.3l-7.8,9.6v2.5c0.8,0,1.5-0.2,2.2-0.2
			c4.1,0,6.2,1.9,6.2,5.9c0,3.9-2,5.9-5.5,5.9c-1.1,0-2.1-0.3-3-0.8c-0.3-1.6-0.1-3-0.2-4c-0.1-1-1-1.7-2-1.6
			c-1.3-0.1-2.4,0.9-2.4,2.2c0,0.1,0,0.3,0,0.4c0,3.1,3.1,5.4,7.4,5.4c5.6,0,9-3.2,9-8.3C1821.4,827.9,1818.3,824.6,1813.6,824.6
			 M1782.6,839.7c-3.2,0-5.2-2.8-5.2-7.2c0-4.4,1.8-7.1,4.9-7.1c3,0,4.6,2.7,4.6,7.3S1785.4,839.7,1782.6,839.7 M1782.3,841.4
			c5,0,8.1-3.8,8.1-9.4c0-5.3-2.8-8.7-7.2-8.7c-2.7-0.1-5.1,1.6-5.9,4.2c-0.4-8.4,3.9-13.6,9.7-13.6c0.5,0,1,0,1.3,0v-1.8
			c-0.6-0.1-1.3-0.1-2-0.1c-7.4,0-12.7,6.1-12.7,17.1C1773.6,836.9,1776.6,841.3,1782.3,841.4 M1761.2,820.6c-2.4,0-3.7,3.1-4.9,6.8
			V821h-1l-4.1,1.2v1c1.7,0,2.1,0.4,2.1,2.2v11.8c0,2-0.3,2.4-2.1,2.6v1.1h8v-1.1c-2.5-0.2-2.8-0.6-2.8-2.6v-6.7
			c0.5-2.4,1.5-4.7,2.8-6.8c0.9,0.7,0.7,2.1,2.4,2.1c1.2,0,2.1-1,2.1-2.6c0.1-1.3-0.9-2.4-2.2-2.5c-0.1,0-0.2,0-0.3,0 M1741.7,822.2
			c2.4,0,3.1,2.3,3.1,5.2h-7.2C1738.2,823.9,1739.7,822.2,1741.7,822.2 M1747.2,834.4c-0.5,2.1-2.3,3.5-4.4,3.6
			c-3.2,0-5.3-2.7-5.3-7.8c0-0.4,0-0.9,0-1.3h11.1c0-5-2.1-8.2-6.3-8.2c-4.7,0-7.4,4.4-7.4,10.9c0,6.2,2.9,9.8,7.4,9.8
			c3.6,0,5.5-2.4,6.3-6.7L1747.2,834.4z M1722.7,838.6c-2.5,0-4.2-2.8-4.2-7.6c0-5.6,1.8-8.7,4.7-8.7c2.3,0,3.5,1.6,3.5,5v8.9
			C1725.9,837.6,1724.4,838.5,1722.7,838.6 M1729.8,836.4v-25h-1l-4.9,1.2v0.9c2.5,0,2.9,0.4,2.9,2.2v6.1c-1.1-0.8-2.4-1.3-3.7-1.2
			c-4.9,0-7.9,4.1-7.9,11.1c0,5.9,2.7,9.6,6.8,9.6c2.2-0.1,4.1-1.5,4.9-3.6v2.6l0.5,0.4h4.6v-1.1
			C1730.1,839.5,1729.7,838.9,1729.8,836.4 M1711.3,820.7c-2.4,0-3.7,3.1-4.9,6.8V821h-1l-4.1,1.2v1c1.7,0,2.1,0.4,2.1,2.2v11.8
			c0,2-0.3,2.4-2.1,2.6v1.1h8v-1.1c-2.5-0.2-2.9-0.6-2.9-2.6v-6.7c0.5-2.4,1.5-4.7,2.8-6.8c0.9,0.7,0.7,2.1,2.4,2.1
			c1.2,0,2.1-1,2.1-2.6c0.1-1.3-0.9-2.4-2.2-2.5C1711.5,820.7,1711.4,820.7,1711.3,820.7 M1687.4,839.7c-4.3,0-6.7-4.7-6.7-13
			c0-8.2,2.4-13,6.7-13c4.3,0,6.7,4.7,6.7,13C1694.1,835,1691.7,839.7,1687.4,839.7 M1687.4,841.4c6.5,0,10.9-5.9,10.9-14.7
			s-4.4-14.6-10.9-14.6c-6.6,0-10.9,5.9-10.9,14.6C1676.5,835.4,1680.8,841.4,1687.4,841.4 M1666.1,837.2c-0.7,1-1.8,1.6-3,1.6
			c-1.3,0-2-1-2-2.9v-12h4.4v-2.7h-4.4v-3.4h-1.6c-0.3,2.3-2,4.2-4.3,4.8v1.4h2.8v12.3c0,3.2,1.6,5.1,4.2,5.1c2,0,3.5-1.1,4.7-3.4
			L1666.1,837.2z M1646.1,841.4c3.8,0,6.1-2.1,6.1-5.6c0-2.7-1.3-4.2-3.6-5.7l-2.6-1.6c-1.8-1.1-2.7-1.9-2.7-3.6s1.2-2.7,3.1-2.7
			c2.2,0,3.7,1.5,4,4.7h1.6l-0.1-4.9c-1.6-0.9-3.3-1.4-5.1-1.4c-3.8,0-6.1,2.1-6.1,5.5c0,2.5,1.5,4.7,3.7,5.8l2.5,1.5
			c1.7,1.1,2.6,2,2.6,3.6c0.1,1.5-1.1,2.7-2.6,2.8c-0.2,0-0.3,0-0.5,0c-2.3,0-3.8-1.5-4.2-5.4h-1.6l0.2,5.5
			C1642.3,840.8,1644.2,841.3,1646.1,841.4 M1627.8,838.8c-1.2,0.1-2.2-0.8-2.3-2c0-0.1,0-0.2,0-0.3c0-1.7,1.1-2.9,3.6-3.8l2.2-0.8
			v4.2C1630.4,837.9,1629.3,838.8,1627.8,838.8 M1637,836.2c-0.4,1.9-0.8,2.6-1.5,2.6s-1.2-0.6-1.2-1.9v-10.5c0-3.8-1.9-5.8-5.3-5.8
			c-4.1,0-7.9,3-7.9,6.1c-0.2,1.3,0.8,2.5,2.1,2.7c0.1,0,0.2,0,0.3,0c1.2,0.1,2.2-0.8,2.2-2c0,0,0-0.1,0-0.1c0-1.6-1.6-2-1.9-3.6
			c1.1-0.7,2.5-1.1,3.8-1.1c2.4,0,3.5,1.3,3.5,4v3.6l-3.3,1.1c-3.9,1.3-5.7,3-5.7,5.7c-0.1,2.3,1.7,4.1,4,4.2c0.2,0,0.3,0,0.5,0
			c2.1,0,4-1.4,4.6-3.5c0.3,2.2,1.3,3.2,3.2,3.2s3-1.4,3.6-4.6L1637,836.2z M1599.2,840.7h18.5l1.1-9.9h-1.7
			c-1.6,7.3-2.4,8.4-5.5,8.4h-3c-2.5,0-3-0.8-3-3.6v-17.9c0-3,0.4-3.7,3.1-3.8v-1.3h-9.4v1.3c2.5,0.1,2.9,0.5,2.9,3.4v18.9
			c0,2.9-0.4,3.2-2.9,3.4L1599.2,840.7z M1590,836.5c-0.9-2.8-1.4-5.8-1.3-8.8c-0.2-5.7,1.7-11.2,5.5-15.4l-0.7-0.7
			c-2.3,2.4-4.2,5.1-5.7,8.1c-1.2,2.6-1.9,5.4-1.8,8.3c0,5.8,2.5,11.2,7.5,16.2l0.8-0.6C1592.3,841.6,1590.9,839.2,1590,836.5
			 M1560.4,812.6v8.5h1.6c0.2-4.9,0.9-5.2,4.2-5.2h6.5l-9.7,24.8h2.2l9.7-24.8v-3.4H1560.4z M1556.2,828.6h-8.8v2.6h8.8V828.6z
			 M1541.2,836.4v-23.8h-3.2l-3.4,3.2v2.9l3.4-3.2v20.8c0,2.7-0.7,3-3.9,3.1v1.2h10.4v-1.2C1541.9,839.3,1541.3,839.1,1541.2,836.4
			 M1525.9,836.3v-23.7h-3.2l-3.4,3.2v2.9l3.4-3.2v20.8c0,2.7-0.7,3-3.9,3.1v1.2h10.4v-1.2C1526.5,839.3,1525.9,839.1,1525.9,836.3
			 M1502.7,821.1v1.1c1.4,0,2.1,0.6,2.1,1.7c0,0.6-0.2,1.1-0.4,1.6l-3.8,10.4l-4-10.9c-0.2-0.4-0.3-0.9-0.3-1.3c0-1,0.8-1.5,2.1-1.6
			V821h-7.4v1.1c0.9,0.1,1.3,0.7,2.3,3.5l5.6,14.6c-1.5,4.1-2.5,6.2-3.7,7.1c-1.3-1.1-1.2-2.8-2.9-2.8c-1.1-0.1-2,0.8-2,1.8
			c0,0.1,0,0.2,0,0.3c0,1.8,1.2,2.9,3.4,2.9c2.8,0,4.7-2.8,6.5-7.7l5.8-16.2c1-2.9,1.4-3.4,2.2-3.6v-1.1L1502.7,821.1z
			 M1480.5,838.8c-1.2,0.1-2.3-0.8-2.3-2c0-0.1,0-0.2,0-0.3c0-1.7,1.1-2.9,3.6-3.8l2.2-0.8v4.2
			C1483,837.9,1481.9,838.8,1480.5,838.8 M1489.7,836.2c-0.4,1.9-0.8,2.6-1.5,2.6c-0.7,0-1.2-0.6-1.2-1.9v-10.5
			c0-3.8-1.9-5.8-5.3-5.8c-4.1,0-7.9,3-7.9,6.1c-0.2,1.3,0.8,2.5,2.1,2.7c0.1,0,0.2,0,0.3,0c1.2,0.1,2.2-0.8,2.2-2c0,0,0-0.1,0-0.1
			c0-1.6-1.6-2-1.9-3.6c1.1-0.7,2.5-1.1,3.8-1.1c2.4,0,3.6,1.3,3.6,4v3.6l-3.4,1.1c-3.9,1.3-5.7,3-5.7,5.7c-0.1,2.3,1.7,4.1,4,4.2
			c0.2,0,0.3,0,0.5,0c2.1,0,4-1.4,4.6-3.5c0.2,2.2,1.3,3.2,3.2,3.2c1.9,0,3-1.4,3.6-4.6L1489.7,836.2z M1462.2,838.4
			c-2.5,0-4.2-2.8-4.2-7.6c0-5.6,1.8-8.7,4.7-8.7c2.3,0,3.5,1.6,3.5,5v8.9C1465.3,837.5,1463.8,838.4,1462.2,838.4 M1469.2,836.3
			v-24.9h-1l-4.9,1.2v0.9c2.5,0,2.9,0.4,2.9,2.2v6.1c-1.1-0.8-2.4-1.3-3.7-1.2c-4.9,0-7.9,4.1-7.9,11.1c0,5.9,2.7,9.6,6.8,9.6
			c2.2-0.1,4.1-1.5,4.9-3.6v2.6l0.5,0.4h4.6v-1.1c-1.6-0.2-2.1-0.8-2.1-3.2 M1444.1,840.8h7.5v-1.1c-1.8-0.2-2.3-0.5-2.3-2.6V821h-1
			l-4.3,1.2v1c1.9,0,2.3,0.4,2.3,2.3v11.6c0,2.1-0.4,2.4-2.3,2.6V840.8z M1447.8,816.9c1.3,0,2.3-1.1,2.3-2.4c0-1.3-1.1-2.3-2.4-2.3
			c-1.3,0-2.3,1.1-2.3,2.4c0,1.2,0.9,2.3,2.2,2.3C1447.7,816.9,1447.7,816.9,1447.8,816.9 M1439.3,837.1v-25.7h-1l-4.1,1.2v0.9
			c1.8,0,2.1,0.4,2.1,2.2v21.3c0,2.2-0.6,2.4-2.2,2.6v1.1h7.5v-1.1C1439.7,839.5,1439.3,839.3,1439.3,837.1 M1423.5,839.8
			c-3.2,0-4.5-4.6-4.5-9.3c0-6.5,2.1-8.2,3.9-8.2c3.2,0,4.4,4.6,4.4,9.3C1427.4,838,1425.3,839.8,1423.5,839.8 M1423.2,841.4
			c4.9,0,8-4.1,8-10.4c0-6.3-3-10.3-8-10.3s-8,4.1-8,10.3S1418.3,841.4,1423.2,841.4 M1412.1,813.9v-1.3h-9.2v1.3
			c2.5,0.1,2.9,0.5,2.9,3.4v8.1h-10.3v-8.1c0-2.9,0.4-3.2,2.8-3.4v-1.3h-9.1v1.3c2.5,0.1,2.9,0.5,2.9,3.4v18.9
			c0,2.9-0.4,3.2-2.9,3.4v1.3h9.2v-1.3c-2.5-0.1-2.8-0.5-2.8-3.4v-9h10.3v9c0,2.9-0.4,3.2-2.9,3.4v1.3h9.2v-1.3
			c-2.5-0.1-2.9-0.5-2.9-3.4v-18.9C1409.2,814.4,1409.6,814,1412.1,813.9 M1376.7,837.1v-25.7h-1.1l-4.1,1.2v0.9
			c1.7,0,2.1,0.4,2.1,2.2v21.3c0,2.2-0.6,2.4-2.2,2.6v1.1h7.5v-1.1C1377.1,839.5,1376.7,839.3,1376.7,837.1 M1359.5,838.8
			c-1.2,0.1-2.3-0.8-2.3-2c0-0.1,0-0.2,0-0.3c0-1.7,1.1-2.9,3.6-3.8l2.2-0.8v4.2C1362,838,1360.9,838.8,1359.5,838.8 M1368.7,836.2
			c-0.4,1.9-0.8,2.6-1.5,2.6c-0.7,0-1.2-0.6-1.2-1.9v-10.5c0-3.8-1.9-5.8-5.3-5.8c-4.1,0-7.9,3-7.9,6.1c-0.2,1.3,0.8,2.5,2.1,2.7
			c0.1,0,0.2,0,0.3,0c1.2,0.1,2.2-0.8,2.2-2c0,0,0-0.1,0-0.1c0-1.6-1.6-2-1.9-3.6c1.1-0.7,2.5-1.1,3.8-1.1c2.4,0,3.6,1.3,3.6,4v3.6
			l-3.4,1.1c-3.9,1.3-5.7,3-5.7,5.7c-0.1,2.3,1.7,4.1,4,4.2c0.2,0,0.3,0,0.5,0c2.1,0,4-1.4,4.6-3.5c0.2,2.2,1.3,3.2,3.2,3.2
			c1.9,0,3-1.4,3.6-4.6L1368.7,836.2z M1348.3,837.1v-10.5c0-3.9-1.9-5.9-5.1-5.9c-2.3,0-4.3,1.4-5.2,3.6V821h-1.1l-4.1,1.2v1
			c1.7,0,2.1,0.4,2.1,2.2v11.8c0,2-0.3,2.4-2.1,2.6v1.1h7.2v-1.1c-1.8-0.2-2-0.6-2-2.6v-11.3c0.9-1.4,2.4-2.3,4.1-2.4
			c2,0,3.1,1.2,3.1,3.9v9.8c0,2.1-0.2,2.4-2,2.6v1.1h7.2v-1.1C1348.6,839.5,1348.3,839.2,1348.3,837.1 M1322.3,839.9
			c-3.2,0-4.5-4.6-4.5-9.3c0-6.5,2.1-8.2,3.9-8.2c3.2,0,4.4,4.6,4.4,9.3C1326.1,838.1,1324.1,839.9,1322.3,839.9 M1322,841.5
			c4.9,0,8-4.1,8-10.4c0-6.3-3-10.3-8-10.3s-8,4.1-8,10.3S1317.1,841.5,1322,841.5 M1303.6,840.9h7.5v-1.1c-1.8-0.2-2.3-0.5-2.3-2.6
			V821h-1l-4.3,1.2v1c1.9,0,2.3,0.4,2.3,2.3v11.6c0,2.1-0.4,2.4-2.3,2.6V840.9z M1307.3,817c1.3,0,2.3-1.1,2.3-2.4
			c0-1.3-1.1-2.3-2.4-2.3c-1.3,0-2.3,1.1-2.3,2.4c0,1.2,0.9,2.3,2.2,2.3C1307.1,817.1,1307.2,817.1,1307.3,817 M1300.8,837.3
			c-0.7,1-1.8,1.6-3,1.6c-1.3,0-2-1-2-2.9v-12.1h4.4v-2.7h-4.4v-3.4h-1.6c-0.3,2.3-2,4.2-4.3,4.8v1.4h2.8v12.3
			c0,3.2,1.6,5.1,4.2,5.1c2,0,3.5-1.1,4.7-3.4L1300.8,837.3z M1278.5,838.9c-1.2,0.1-2.2-0.8-2.3-2c0-0.1,0-0.2,0-0.3
			c0-1.7,1.1-2.9,3.6-3.8l2.2-0.8v4.2C1281.1,838,1279.9,838.9,1278.5,838.9 M1287.7,836.3c-0.4,1.9-0.8,2.6-1.5,2.6
			c-0.7,0-1.2-0.6-1.2-1.9v-10.5c0-3.8-1.9-5.8-5.3-5.8c-4.1,0-7.9,3-7.9,6.1c-0.2,1.3,0.8,2.5,2.1,2.7c0.1,0,0.2,0,0.3,0
			c1.2,0.1,2.2-0.8,2.2-2c0,0,0-0.1,0-0.1c0-1.6-1.6-2-1.9-3.6c1.1-0.7,2.5-1.1,3.8-1.1c2.4,0,3.6,1.3,3.6,4v3.6l-3.4,1.1
			c-3.9,1.3-5.6,3-5.6,5.7c-0.1,2.2,1.7,4.1,3.9,4.2c0.2,0,0.3,0,0.5,0c2.1,0,4-1.4,4.6-3.5c0.2,2.2,1.3,3.2,3.2,3.2
			c1.9,0,3-1.4,3.6-4.6L1287.7,836.3z M1261.5,812.7v1.3c2.8,0.1,3.7,0.5,3.7,3.6v17.7l-12.5-22.5h-4.9v1.3c1,0.2,1.8,0.8,2.8,2.5
			v19.4c0,3.2-0.4,3.7-2.8,3.8v1.3h8.2v-1.3c-2.9-0.1-3.5-0.6-3.5-3.8v-16.2l12,21.4h2.6v-23.8c0-2.6,0.5-3.2,2-3.3v-1.3
			L1261.5,812.7z M1230.9,846.3c3.2-0.1,5.2-2.4,5.2-5.8c0-2.5-1.1-4.2-3.1-4.2c-1.4-0.1-2.6,1-2.6,2.4c0,0,0,0.1,0,0.1
			c-0.1,1.2,0.9,2.3,2.1,2.4c0.1,0,0.2,0,0.3,0c0.7,0,1.3-0.2,1.8-0.6c0.4,2.1-1.1,4.1-3.2,4.5c-0.2,0-0.4,0-0.6,0.1L1230.9,846.3z
			 M1224.8,837.1v-10.5c0-3.9-1.9-5.9-5.1-5.9c-2.3,0-4.3,1.4-5.2,3.6V821h-1l-4.1,1.2v1c1.7,0,2.1,0.4,2.1,2.2v11.8
			c0,2-0.3,2.4-2.1,2.6v1.1h7.1v-1.1c-1.7-0.2-2-0.6-2-2.6v-11.3c0.9-1.4,2.4-2.3,4.1-2.4c2.1,0,3.1,1.2,3.1,3.9v9.8
			c0,2.1-0.2,2.4-2,2.6v1.1h7.2v-1.1C1225.1,839.5,1224.8,839.2,1224.8,837.1 M1205.2,836.3v-15h-5.2v1.1c1.6,0.2,2.1,0.5,2.1,2.8
			v11.2c-0.9,1.4-2.4,2.3-4,2.4c-1.9,0-3-1.2-3-4.4v-13h-4.7v1c1.2,0.2,1.6,0.7,1.6,2.4v10.4c0,4.3,1.9,6.3,5.1,6.3
			c2.2,0,4.2-1.5,5-3.6v2.8l0.6,0.5l4.5-0.7v-1.1C1205.6,839.4,1205.2,838.9,1205.2,836.3 M1179.3,841.5c4.9,0,7.8-2.6,7.8-7.1
			c0-3.3-1.7-6.3-4.6-7.9l-4.7-3.1c-2.8-1.9-3.6-3.2-3.6-5.4c0-2.2,1.7-4,3.9-4.1c0.2,0,0.4,0,0.6,0c3.7,0,5.6,2.3,6.3,7.7h1.7v-9
			h-1.6c-0.1,0.9-0.3,1.3-0.6,1.3c-1.8-1-3.7-1.6-5.8-1.6c-4.8,0-7.7,2.5-7.7,6.7c0,3.2,1.5,5.8,4.7,8l4.9,3.4
			c2,1.1,3.3,3.2,3.2,5.6c0.1,2.2-1.7,4-3.8,4c-0.2,0-0.4,0-0.6,0c-3.8,0-6.1-2.8-6.8-8.7h-1.7v10.1h1.6c0.2-0.8,0.4-1.3,0.7-1.3
			C1175.1,840.9,1177.1,841.5,1179.3,841.5"/>
		<path class="st0" d="M1740.7,770.2l-0.7,0.6c1.9,2,3.3,4.4,4.2,6.9c0.9,2.9,1.3,5.8,1.3,8.8c0,2.9-0.4,5.8-1.3,8.6
			c-0.9,2.5-2.3,4.9-4.1,6.8l0.7,0.7c2.3-2.4,4.2-5.1,5.7-8.1c1.2-2.6,1.8-5.4,1.8-8.3C1748.2,780.6,1745.7,775.2,1740.7,770.2
			 M1727.4,774.4c4.1,0,6.3,3.8,6.3,10.8s-2.2,10.8-6.3,10.8c-4.1,0-6.3-3.8-6.3-10.8S1723.3,774.4,1727.4,774.4 M1727.4,770.6
			c-5.4,0-8.2,5-8.2,14.7c0,9.7,2.8,14.7,8.2,14.7c5.4,0,8.2-5,8.2-14.7C1735.6,775.6,1732.8,770.6,1727.4,770.6 M1708.2,783.1h-0.8
			l7.2-8.6v-3.4h-14.2v8.5h1.6c0.2-4.6,0.6-5.2,3.8-5.2h6.3l-7.8,9.6v2.5c0.8-0.1,1.5-0.2,2.2-0.2c4.1,0,6.1,1.9,6.1,5.9
			s-2,5.9-5.5,5.9c-1.1,0-2.1-0.3-3-0.8c-0.3-1.6,0-3-0.2-4c-0.1-1-1-1.7-2-1.6c-1.3-0.1-2.4,0.9-2.4,2.2c0,0.1,0,0.3,0,0.4
			c0,3.1,3.1,5.4,7.4,5.4c5.6,0,9-3.2,9-8.3S1713,783.1,1708.2,783.1 M1677.1,798.3c-2.9,0-4.7-1.9-4.7-5.5c-0.2-2.5,1.2-5,3.4-6.2
			l2.2,1.5c2.1,1.1,3.4,3.2,3.5,5.6c0.2,2.3-1.4,4.3-3.7,4.6C1677.6,798.3,1677.3,798.3,1677.1,798.3 M1672.6,776.8
			c-0.2-2.3,1.4-4.3,3.7-4.6c0.2,0,0.5,0,0.7,0c2.9,0,4.7,2,4.7,5.5c0.2,2.6-1.2,5-3.4,6.2l-2.2-1.6
			C1674,781.2,1672.7,779,1672.6,776.8 M1680.2,785.1l-0.7-0.5c3.4-1.6,5.1-3.9,5.1-7.2c0-4.4-2.9-6.9-7.4-6.9s-7.7,2.7-7.7,7.2
			c0,3.1,1.6,6,4.4,7.5l0.7,0.5c-3.5,1.6-5.1,3.9-5.1,7.2c0,4.4,3,7,7.4,7c4.8,0,7.6-2.7,7.6-7.2
			C1684.6,789.5,1682.9,786.6,1680.2,785.1 M1656.9,779.1c-2.4,0-3.7,3.1-4.9,6.8v-6.6h-1.1l-4.1,1.2v1c1.8,0,2.1,0.4,2.1,2.2v11.8
			c0,2-0.3,2.4-2.1,2.6v1.1h8v-1c-2.5-0.2-2.8-0.6-2.8-2.6V789c0.5-2.4,1.5-4.7,2.8-6.8c0.9,0.7,0.8,2.1,2.4,2.1
			c1.2,0,2.1-1,2.1-2.6c0.1-1.3-0.8-2.4-2.1-2.5c-0.1,0-0.2,0-0.3,0 M1637.4,780.7c2.4,0,3.1,2.3,3.1,5.2h-7.2
			C1633.9,782.4,1635.4,780.7,1637.4,780.7 M1642.9,793c-0.5,2.1-2.3,3.6-4.4,3.6c-3.2,0-5.3-2.7-5.3-7.8c0-0.4,0-0.9,0-1.3h10.7
			c0-5-2-8.2-6.3-8.2c-4.7,0-7.4,4.4-7.4,10.9c0,6.2,2.9,9.8,7.4,9.8c3.6,0,5.5-2.4,6.3-6.7L1642.9,793z M1618.4,797.1
			c-2.5,0-4.2-2.8-4.2-7.6c0-5.6,1.7-8.7,4.7-8.7c2.3,0,3.5,1.6,3.5,5v9C1621.6,796.2,1620.1,797,1618.4,797.1 M1625.5,795v-25h-1.1
			l-4.9,1.2v1c2.5,0,2.9,0.4,2.9,2.2v6.1c-1.1-0.8-2.4-1.3-3.7-1.2c-4.9,0-7.9,4.1-7.9,11.1c0,5.9,2.7,9.6,6.8,9.6
			c2.2-0.1,4.1-1.5,4.9-3.6l0.1,2.6l0.5,0.4h4.6v-1.1C1626,798.1,1625.6,797.5,1625.5,795 M1607,779.3c-2.4,0-3.7,3.1-4.9,6.8v-6.6
			h-0.9l-4.1,1.2v1c1.8,0,2.1,0.4,2.1,2.2v11.8c0,2-0.3,2.4-2.1,2.6v1.1h8v-1.1c-2.5-0.2-2.9-0.6-2.9-2.6V789
			c0.5-2.4,1.5-4.7,2.8-6.8c0.9,0.7,0.8,2.1,2.4,2.1c1.2,0,2.1-1,2.1-2.6c0.1-1.3-0.8-2.4-2.1-2.5
			C1607.3,779.3,1607.2,779.3,1607,779.3 M1583.1,798.3c-4.3,0-6.7-4.7-6.7-13s2.4-13,6.7-13s6.7,4.7,6.7,13
			S1587.4,798.3,1583.1,798.3 M1583.1,799.9c6.6,0,10.9-5.9,10.9-14.7c0-8.7-4.4-14.7-10.9-14.7s-10.9,5.9-10.9,14.7
			C1572.2,794,1576.5,799.9,1583.1,799.9 M1561.7,795.7c-0.7,1-1.8,1.6-3,1.6c-1.3,0-2-1-2-2.9v-12h4.4v-2.7h-4.4v-3.5h-1.6
			c-0.3,2.3-2,4.2-4.3,4.8v1.4h2.8v12.3c0,3.2,1.6,5.1,4.2,5.1c2,0,3.5-1.1,4.7-3.4L1561.7,795.7z M1541.7,799.9
			c3.8,0,6.1-2.1,6.1-5.6c0-2.7-1.3-4.2-3.6-5.7l-2.5-1.5c-1.8-1.1-2.7-1.9-2.7-3.6c0-1.6,1.2-2.7,3.1-2.7c2.2,0,3.7,1.4,4,4.7h1.6
			l-0.1-4.9c-1.6-0.9-3.3-1.4-5.1-1.4c-3.8,0-6.1,2.1-6.1,5.5c0,2.5,1.5,4.7,3.7,5.8l2.5,1.5c1.8,1.1,2.6,1.9,2.6,3.6
			c0.1,1.5-1.1,2.7-2.6,2.8c-0.2,0-0.3,0-0.5,0c-2.3,0-3.8-1.5-4.2-5.4h-1.6l0.2,5.6C1538,799.5,1539.8,800,1541.7,799.9
			 M1523.5,797.4c-1.2,0.1-2.3-0.8-2.3-2c0-0.1,0-0.2,0-0.3c0-1.7,1.1-2.9,3.6-3.8l2.2-0.8v4.2
			C1526,796.5,1524.9,797.4,1523.5,797.4 M1532.7,794.8c-0.4,1.9-0.8,2.6-1.5,2.6c-0.7,0-1.2-0.6-1.2-1.9V785c0-3.8-1.9-5.8-5.3-5.8
			c-4.1,0-7.9,3-7.9,6.1c-0.2,1.3,0.8,2.5,2.1,2.7c0.1,0,0.2,0,0.3,0c1.2,0.1,2.2-0.8,2.2-2c0,0,0-0.1,0-0.1c0-1.5-1.6-2-1.9-3.6
			c1.1-0.7,2.5-1.1,3.8-1.1c2.4,0,3.6,1.3,3.6,4v3.6l-3.4,1.1c-3.9,1.3-5.6,3-5.6,5.7c-0.1,2.3,1.7,4.1,4,4.2c0.2,0,0.3,0,0.5,0
			c2.1,0,4-1.4,4.6-3.5c0.2,2.2,1.3,3.2,3.2,3.2s3-1.4,3.6-4.6L1532.7,794.8z M1494.8,799.4h18.5l1.1-9.9h-1.7
			c-1.6,7.3-2.4,8.4-5.5,8.4h-3.1c-2.5,0-3-0.8-3-3.6v-18c0-3,0.4-3.7,3.1-3.8v-1.3h-9.5v1.3c2.5,0.1,2.9,0.5,2.9,3.4v18.9
			c0,2.9-0.4,3.2-2.9,3.4L1494.8,799.4z M1485.6,795.2c-0.9-2.9-1.3-5.8-1.3-8.8c-0.2-5.7,1.7-11.2,5.5-15.4l-0.7-0.6
			c-2.3,2.4-4.2,5.1-5.7,8.1c-1.2,2.6-1.9,5.4-1.8,8.3c0,5.8,2.5,11.2,7.5,16.2l0.8-0.6C1487.9,800.2,1486.5,797.8,1485.6,795.2
			 M1461.6,786.6c-3,0-4.7-2.7-4.7-7.1c0-4.9,1.6-7.2,4.5-7.2s5,2.8,5,7.2C1466.4,784.2,1464.5,786.6,1461.6,786.6 M1458.4,799.6
			c7,0,11.8-6.9,11.8-16.9c0-7.7-3.1-12-8.8-12c-4.9,0-8.1,3.9-8.1,9.4c0,5.2,2.9,8.7,7.3,8.7c2.7,0.1,5.1-1.6,5.9-4.1
			c0.5,8-3.5,13.1-8.4,13.1c-0.9,0-1.9-0.1-2.8-0.3v1.8C1456.3,799.5,1457.3,799.6,1458.4,799.6 M1448.3,787.1h-8.8v2.6h8.8V787.1z
			 M1433.2,795v-23.8h-3.2l-3.4,3.2v2.9l3.4-3.2v21c0,2.7-0.7,3-3.9,3.1v1.2h10.4v-1.2C1433.9,798.1,1433.3,797.8,1433.2,795
			 M1417.9,795.1v-23.9h-3.2l-3.4,3.2v2.9l3.4-3.2v21c0,2.7-0.7,3-3.9,3.1v1.2h10.4v-1.2C1418.5,798.1,1418,797.8,1417.9,795.1
			 M1399.5,795.8c-0.7,1-1.8,1.6-3,1.6c-1.3,0-2-1-2-2.9v-12h4.3v-2.7h-4.4v-3.5h-1.6c-0.3,2.3-2,4.2-4.3,4.8v1.4h2.8v12.3
			c0,3.2,1.6,5.1,4.2,5.1c2,0,3.5-1.1,4.7-3.4L1399.5,795.8z M1377.2,797.5c-1.2,0.1-2.3-0.8-2.3-2c0-0.1,0-0.2,0-0.3
			c0-1.7,1.1-2.9,3.6-3.8l2.2-0.8v4.2C1379.8,796.6,1378.6,797.5,1377.2,797.5 M1386.4,794.9c-0.4,1.9-0.8,2.6-1.5,2.6
			s-1.2-0.6-1.2-1.9v-10.5c0-3.8-1.9-5.8-5.3-5.8c-4.1,0-7.9,3-7.9,6.1c-0.2,1.3,0.8,2.5,2.1,2.7c0.1,0,0.2,0,0.3,0
			c1.2,0.1,2.1-0.8,2.2-2c0,0,0-0.1,0-0.1c0-1.5-1.6-2-1.9-3.6c1.1-0.7,2.5-1.1,3.8-1.1c2.4,0,3.6,1.3,3.6,4v3.6l-3.4,1.1
			c-3.9,1.3-5.7,3-5.7,5.7c-0.1,2.3,1.7,4.1,3.9,4.2c0.2,0,0.3,0,0.5,0c2.1,0,4-1.4,4.6-3.5c0.2,2.2,1.3,3.2,3.2,3.2s3-1.4,3.6-4.6
			L1386.4,794.9z M1359.2,799.9c4.9,0,7.8-2.6,7.8-7.1c0-3.3-1.7-6.3-4.6-7.9l-4.7-3.1c-2.8-1.9-3.6-3.2-3.6-5.4
			c0-2.2,1.7-4.1,3.9-4.1c0.2,0,0.4,0,0.6,0c3.7,0,5.6,2.3,6.3,7.7h1.8v-9h-1.6c-0.1,0.9-0.3,1.3-0.6,1.3c-1.8-1-3.7-1.6-5.8-1.6
			c-4.8,0-7.7,2.5-7.7,6.7c0,3.2,1.5,5.8,4.7,8l4.9,3.4c2,1.1,3.3,3.2,3.2,5.6c0.1,2.2-1.6,4-3.8,4c-0.2,0-0.4,0-0.6,0
			c-3.8,0-6.1-2.9-6.8-8.7h-1.8v10.1h1.6c0.2-0.8,0.4-1.3,0.7-1.3C1355,799.3,1357,799.8,1359.2,799.9 M1344.3,787.1h-8.8v2.6h8.8
			V787.1z M1323.1,780.6c2.4,0,3.1,2.3,3.1,5.2h-7.2C1319.5,782.3,1321,780.6,1323.1,780.6 M1328.6,792.9c-0.5,2.1-2.3,3.5-4.4,3.6
			c-3.2,0-5.3-2.7-5.3-7.8c0-0.5,0-0.9,0-1.3h10.8c0-5-2.1-8.2-6.3-8.2c-4.7,0-7.4,4.4-7.4,10.9c0,6.2,2.9,9.8,7.4,9.8
			c3.6,0,5.5-2.4,6.3-6.7L1328.6,792.9z M1311.5,794.7v-15h-5.2v1.1c1.6,0.2,2.1,0.5,2.1,2.8v11.2c-0.9,1.4-2.4,2.3-4.1,2.4
			c-1.9,0-3-1.2-3-4.4v-13.1h-4.6v1c1.2,0.3,1.6,0.7,1.6,2.4v10.4c0,4.3,1.9,6.3,5.1,6.3c2.2,0,4.2-1.5,5-3.6v2.8l0.6,0.5l4.5-0.7
			v-1.1C1312,797.7,1311.5,797.3,1311.5,794.7 M1295.3,770.3h-1.6c-0.2,0.7-0.4,0.8-1.6,0.8H1278c-1.2,0-1.4,0-1.6-0.8h-1.6
			l-0.3,8.4h1.7c0.7-5.1,1.5-6,5-6h2.2v21.1c0,3.5-0.5,4.1-3.7,4.2v1.3h10.6v-1.3c-3.2-0.1-3.7-0.7-3.7-4.2v-21.1h2.4
			c3.4,0,4.1,0.9,4.9,6h1.6L1295.3,770.3z"/>
		<path class="st0" d="M1574.2,728.1c-4.9,0-7.6,3.6-7.9,10.4l-2.8,1.4v1.1h2.8v12.3c0,2.9-0.4,3.4-2.8,3.5v1.1h9.7v-1.1
			c-3.4-0.2-3.9-0.7-3.9-3.5V741h3.9v-2.7h-4c0-0.5,0-1,0-1.6c0-4.4,1.7-7.1,4.4-7.1c0.3,0,0.6,0,0.9,0.1c0.2,0.7,0.4,1.5,0.5,2.2
			c0.1,1,1,1.7,1.9,1.6c1.1,0,1.9-0.8,1.9-1.9c0-0.1,0-0.2,0-0.2c0-2-1.9-3.2-4.9-3.2 M1563,728.3c-4.9,0-7.6,3.6-7.9,10.4l-2.8,1.4
			v1.1h2.8v12.3c0,2.9-0.4,3.4-2.8,3.5v1.1h9.7V757c-3.3-0.2-3.9-0.7-3.9-3.5v-12.3h3.9v-2.8h-4c0-0.5,0-1,0-1.6
			c0-4.4,1.6-7.1,4.4-7.1c0.3,0,0.6,0,0.9,0.1c0.3,0.7,0.5,1.4,0.7,2.1c0.1,1,1,1.7,1.9,1.6c1.1,0,1.9-0.8,1.9-1.9
			c0-0.1,0-0.2,0-0.2C1567.8,729.4,1565.9,728.2,1563,728.3 M1538.4,756.9c-4.3,0-6.7-4.7-6.7-13c0-8.2,2.4-13,6.7-13
			c4.3,0,6.7,4.7,6.7,13C1545.1,752.1,1542.7,756.9,1538.4,756.9 M1538.4,758.6c6.5,0,10.9-5.9,10.9-14.7s-4.4-14.6-10.9-14.6
			c-6.6,0-10.9,5.9-10.9,14.6S1531.8,758.6,1538.4,758.6 M1515.4,754.3v-10.5c0-3.8-1.9-5.9-5.1-5.9c-2.3,0-4.3,1.4-5.2,3.6v-3.3
			h-1.1l-4.1,1.2v1c1.7,0,2.1,0.4,2.1,2.2v11.8c0,1.9-0.3,2.4-2.1,2.6v1.1h7.1v-1.1c-1.7-0.2-2-0.6-2-2.6v-11.3
			c0.9-1.4,2.4-2.3,4.1-2.4c2,0,3.1,1.2,3.1,3.9v9.8c0,2.1-0.2,2.4-2,2.6v1.1h7.2v-1.1C1515.7,756.6,1515.4,756.2,1515.4,754.3
			 M1489.5,756.9c-3.2,0-4.5-4.6-4.5-9.3c0-6.5,2.1-8.2,3.9-8.2c3.2,0,4.4,4.6,4.4,9.3C1493.4,755.2,1491.3,756.9,1489.5,756.9
			 M1489.2,758.6c4.9,0,8-4.1,8-10.4s-3-10.3-8-10.3s-8,4-8,10.3S1484.3,758.6,1489.2,758.6 M1476.7,752.8l-1.4-18
			c-0.2-3.1,0.3-3.5,2.6-3.6v-1.3h-6.6l-6.6,23.5l-6.7-23.5h-6.5v1.3c2.4,0,2.5,0.8,2.3,3.6l-1.3,17.6c-0.3,3.6-0.7,4.2-3.1,4.4v1.3
			h8.1v-1.3c-2.8-0.1-3.4-0.9-3.1-4.4l1.4-17.9l6.9,23.6h2.4l6.7-23.7l1.4,18.2c0.2,3.4-0.5,4-3.2,4.1v1.3h9.5v-1.3
			C1477.5,756.6,1476.9,756,1476.7,752.8"/>
		<path class="st0" d="M1693.1,795.3c-0.3,0.3-0.8,0.5-1.2,0.5c-0.5,0-0.9-0.2-1.2-0.5c-0.7-0.7-0.7-1.8,0-2.5
			c0.3-0.3,0.8-0.5,1.2-0.5c1,0,1.8,0.8,1.8,1.8C1693.6,794.5,1693.4,795,1693.1,795.3 M1693.1,785.6c-0.3,0.3-0.8,0.5-1.2,0.5
			c-0.5,0-0.9-0.2-1.2-0.5c-0.7-0.7-0.7-1.8,0-2.5c0.3-0.3,0.8-0.5,1.2-0.5c0.5,0,0.9,0.2,1.2,0.5
			C1693.8,783.8,1693.8,784.9,1693.1,785.6"/>
		<path class="st0" d="M1798.5,836.7c-0.7,0.6-1.8,0.6-2.5,0c-0.3-0.3-0.5-0.8-0.5-1.2c-0.1-1,0.6-1.8,1.6-1.9
			c1-0.1,1.8,0.6,1.9,1.6c0,0.1,0,0.2,0,0.3C1799,835.9,1798.8,836.4,1798.5,836.7 M1798.5,827c-0.7,0.6-1.8,0.6-2.5,0
			c-0.7-0.7-0.7-1.8,0-2.5c0.7-0.6,1.8-0.6,2.5,0C1799.1,825.2,1799.1,826.3,1798.5,827"/>
		<path class="st0" d="M1615,878.1c-0.7,0.6-1.8,0.6-2.5,0c-0.3-0.3-0.5-0.8-0.5-1.2c-0.1-1,0.6-1.8,1.6-1.9c1-0.1,1.8,0.6,1.9,1.6
			c0,0.1,0,0.2,0,0.3C1615.5,877.4,1615.3,877.8,1615,878.1 M1615,868.4c-0.7,0.7-1.8,0.7-2.5,0c-0.7-0.7-0.7-1.8,0-2.5
			c0.7-0.6,1.8-0.6,2.5,0C1615.7,866.6,1615.7,867.7,1615,868.4"/>
	</g>
</g>
</svg>
